<svg width="30" height="29" viewBox="0 0 30 29" fill="none" xmlns="http://www.w3.org/2000/svg">
<g opacity="0.15">
<ellipse cx="15.375" cy="14.5" rx="14.5" ry="14.5" fill="#25D366"/>
<ellipse cx="15.375" cy="14.5" rx="14.5" ry="14.5" fill="white"/>
</g>
<path fill-rule="evenodd" clip-rule="evenodd" d="M22.4891 7.26699C20.7049 5.48281 18.326 4.53125 15.8281 4.53125C10.5945 4.53125 6.3125 8.81328 6.3125 14.0469C6.3125 15.7121 6.78829 17.3773 7.62091 18.8047L6.3125 23.5625L11.3082 22.2541C12.7356 22.9678 14.2818 23.4436 15.8281 23.4436C21.0617 23.4436 25.3437 19.1615 25.3437 13.9279C25.3437 11.4301 24.2732 9.05117 22.4891 7.26699ZM15.8281 21.8973C14.4008 21.8973 12.9734 21.5404 11.784 20.8268L11.5461 20.7078L8.57245 21.5404L9.40509 18.6857L9.16718 18.3289C8.33456 17.0205 7.97773 15.5932 7.97773 14.1658C7.97773 9.88379 11.5461 6.31543 15.8281 6.31543C17.9691 6.31543 19.8723 7.14805 21.4186 8.57539C22.9649 10.1217 23.6785 12.0248 23.6785 14.1658C23.6785 18.3289 20.2291 21.8973 15.8281 21.8973ZM20.1102 15.95C19.8723 15.8311 18.6828 15.2363 18.4449 15.2363C18.207 15.1174 18.0881 15.1174 17.9691 15.3553C17.8502 15.5932 17.3744 16.0689 17.2555 16.3068C17.1365 16.4258 17.0176 16.4258 16.7797 16.4258C16.5418 16.3068 15.8281 16.0689 14.8766 15.2363C14.1629 14.6416 13.6871 13.809 13.5682 13.5711C13.4492 13.3332 13.5682 13.2143 13.6871 13.0953C13.8061 12.9764 13.925 12.8574 14.0439 12.7385C14.1629 12.6195 14.1629 12.5006 14.2818 12.3816C14.4008 12.2627 14.2818 12.1437 14.2818 12.0248C14.2818 11.9059 13.8061 10.7164 13.5682 10.2406C13.4492 9.88379 13.2113 9.88379 13.0924 9.88379C12.9735 9.88379 12.8545 9.88379 12.6166 9.88379C12.4976 9.88379 12.2598 9.88379 12.0219 10.1217C11.784 10.3596 11.1893 10.9543 11.1893 12.1437C11.1893 13.3332 12.0219 14.4037 12.1408 14.6416C12.2598 14.7605 13.806 17.2584 16.1849 18.21C18.207 19.0426 18.5639 18.8047 19.0397 18.8047C19.5154 18.8047 20.467 18.21 20.5859 17.7342C20.8238 17.1395 20.8238 16.6637 20.7049 16.6637C20.5859 16.0689 20.3481 16.0689 20.1102 15.95Z" fill="white"/>
</svg>
