<svg width="22" height="22" viewBox="0 0 22 22" fill="none" xmlns="http://www.w3.org/2000/svg">
<path d="M18.4295 2.89744H17.1497C16.8967 2.36885 16.3609 2 15.7372 2H6.76282C6.1391 2 5.60333 2.36885 5.35026 2.89744H4.07051C3.20449 2.89744 2.5 3.60192 2.5 4.46795V7.16026C2.5 8.97038 3.93949 10.4404 5.73256 10.5122C6.43795 12.0917 7.785 13.3247 9.45513 13.8435V15.4615H7.66026C6.29885 15.4615 5.19231 16.5681 5.19231 17.9295C5.19231 18.7955 5.8968 19.5 6.76282 19.5H15.7372C16.6032 19.5 17.3077 18.7955 17.3077 17.9295C17.3077 16.5681 16.2012 15.4615 14.8397 15.4615H13.0449V13.8435C14.715 13.3238 16.0621 12.0917 16.7674 10.5122C18.5605 10.4404 20 8.97038 20 7.16026V4.46795C20 3.60192 19.2955 2.89744 18.4295 2.89744ZM5.19231 9.06462C4.40885 8.78641 3.84615 8.03795 3.84615 7.16026V4.46795C3.84615 4.3441 3.94667 4.24359 4.07051 4.24359H5.19231V9.06462ZM18.6538 7.16026C18.6538 8.03795 18.0912 8.78641 17.3077 9.06462V4.24359H18.4295C18.5533 4.24359 18.6538 4.3441 18.6538 4.46795V7.16026Z" fill="#236CAE"/>
</svg>
