<svg width="22" height="22" viewBox="0 0 22 22" fill="none" xmlns="http://www.w3.org/2000/svg">
<path d="M12.0366 3.00014C10.8345 3.00014 9.68198 3.47813 8.83223 4.32789L2.67501 10.4869C1.78541 11.3765 1.78541 12.8379 2.67501 13.7275L8.27365 19.3262C9.16324 20.2158 10.6246 20.2158 11.5143 19.3262L17.6776 13.1672C18.5274 12.3174 19.0054 11.1658 19.0054 9.96369V5.94854C19.0054 4.3287 17.6776 3 16.0577 3L12.0366 3.00014ZM14.3751 5.61399C14.9301 5.57415 15.4754 5.77686 15.8693 6.17075C16.619 6.92048 16.619 8.13581 15.8693 8.88475C15.1196 9.63449 13.9042 9.63449 13.1553 8.88475C12.4056 8.13502 12.4056 6.91969 13.1553 6.17075C13.4819 5.84412 13.9148 5.64673 14.3759 5.61399H14.3751Z" fill="#236CAE"/>
</svg>
