<svg width="22" height="23" viewBox="0 0 22 23" fill="none" xmlns="http://www.w3.org/2000/svg">
<path fill-rule="evenodd" clip-rule="evenodd" d="M10.4198 6.0724C10.2977 6.95426 10.0914 7.81576 9.84375 8.66607H13.4926C13.245 7.81576 13.0389 6.95449 12.9165 6.0724C12.8338 5.47275 12.7994 4.86601 12.7553 4.26156C12.7256 3.85654 12.7141 3.45037 12.702 3.04397C12.7 2.96942 12.718 2.88503 12.7537 2.81962C12.8742 2.5971 12.8484 2.38578 12.793 2.1429C12.7233 1.83759 12.7302 1.51375 12.7151 1.19724C12.7027 0.933318 12.7224 0.667113 12.6974 0.404796C12.6819 0.238761 12.5104 0.113892 12.343 0.0949098C12.1307 0.0708965 11.9542 0.021955 11.7255 0.00365917V0C11.7255 0.000457397 11.7321 0.00114349 11.7255 0.00182959C11.7191 0.00137219 11.7255 0.000686095 11.7255 0V0.00365917C11.4968 0.0221837 11.2631 0.0711252 11.0506 0.0949098C10.8836 0.113892 10.6742 0.238761 10.6581 0.404796C10.6334 0.667113 10.6435 0.933318 10.6309 1.19724C10.6161 1.51375 10.6179 1.83736 10.5484 2.1429C10.493 2.38578 10.4647 2.5971 10.5854 2.81962C10.6209 2.88503 10.6378 2.96942 10.6357 3.04397C10.6236 3.45037 10.6117 3.85654 10.5818 4.26156C10.5374 4.86601 10.5026 5.47298 10.4198 6.0724Z" fill="#236CAE"/>
<path fill-rule="evenodd" clip-rule="evenodd" d="M9.27671 10.4371C8.87168 11.6179 8.61188 12.827 8.58375 14.0746C8.57095 14.6358 8.56934 15.1975 8.57072 15.7594H14.7636C14.765 15.1975 14.7634 14.6358 14.7506 14.0746C14.7225 12.827 14.462 11.6179 14.0579 10.4371C13.8827 9.92667 13.7139 9.41438 13.5586 8.89844H9.77573C9.62067 9.41438 9.45166 9.92667 9.27671 10.4371Z" fill="#236CAE"/>
<path fill-rule="evenodd" clip-rule="evenodd" d="M8.52344 21.2461C8.52344 21.3008 8.52344 21.3554 8.52344 21.4101C8.52344 22.1248 8.85848 22.517 9.5185 22.6572C9.70078 22.6956 9.94434 22.6924 10.1305 22.7166C10.6437 22.7827 11.0391 22.8147 11.7252 22.8221V22.8225C11.7252 22.8225 11.7188 22.8221 11.7252 22.8221C11.7318 22.8221 11.7252 22.8225 11.7252 22.8225V22.8221C12.1826 22.815 12.7351 22.7827 13.2483 22.7166C13.434 22.6926 13.5875 22.6956 13.7698 22.6572C14.4296 22.517 14.6983 22.1248 14.6983 21.4101C14.6983 21.3554 14.6983 21.3008 14.6983 21.2461H8.52344Z" fill="#236CAE"/>
<path fill-rule="evenodd" clip-rule="evenodd" d="M8.57227 15.9844C8.57455 16.5481 8.5789 17.1279 8.5789 17.5853H8.57958C8.57958 18.7288 8.57821 19.9027 8.58073 21.0157H14.7556C14.7583 19.9027 14.7567 18.7288 14.7567 17.5853C14.7576 17.5853 14.7576 17.5853 14.7576 17.5853C14.7576 17.1279 14.7622 16.5481 14.7643 15.9844H8.57227Z" fill="#236CAE"/>
</svg>
