<svg width="22" height="22" viewBox="0 0 22 22" fill="none" xmlns="http://www.w3.org/2000/svg">
<path d="M3.67857 5.44644H10.1607V8.98215H3.67857C3.02742 8.98215 2.5 8.45474 2.5 7.80358V6.62501C2.50221 5.97459 3.02815 5.44864 3.67857 5.44644ZM8.98214 3.67858C9.40275 3.67932 9.79094 3.90324 10.0016 4.26787H11.4984C11.7091 3.90324 12.0972 3.67932 12.5178 3.67858C12.674 3.67858 12.8243 3.74045 12.9348 3.85095C13.0452 3.96144 13.1071 4.1117 13.1071 4.26786H14.2857C14.2827 3.29259 13.4931 2.50294 12.5178 2.5C11.8409 2.49926 11.1964 2.7917 10.75 3.30143C10.3036 2.7917 9.65905 2.49927 8.98212 2.5C8.00684 2.50295 7.2172 3.29259 7.21426 4.26786H8.39283C8.39283 3.94227 8.65656 3.67858 8.98214 3.67858ZM17.8214 5.44644H11.3393V8.98215H17.8214C18.1337 8.98215 18.4335 8.85766 18.6545 8.63669C18.8755 8.41571 19 8.11591 19 7.80358V6.62501C18.9978 5.97459 18.4718 5.44864 17.8214 5.44644ZM3.08929 10.0842V17.2322C3.09223 18.2074 3.88187 18.9971 4.85714 19H10.1607V10.1607H3.67857C3.47969 10.1622 3.28153 10.1365 3.08929 10.0842ZM11.3393 10.1608V19.0001H16.6429C17.6181 18.9971 18.4078 18.2075 18.4107 17.2322V10.0842C18.2185 10.1365 18.0203 10.1623 17.8214 10.1608L11.3393 10.1608Z" fill="#236CAE"/>
</svg>
