<svg width="22" height="22" viewBox="0 0 22 22" fill="none" xmlns="http://www.w3.org/2000/svg">
<path d="M17.76 5.60277L14.56 3.12394C14.456 3.04379 14.3296 3 14.2 3H7.8C7.6704 3 7.544 3.04379 7.44 3.12394L4.24 5.60277C4.0896 5.7201 4 5.90353 4 6.09853V9.57798C4 13.6846 6.5008 17.4119 10.2272 18.8554C10.476 18.9521 10.7376 19 10.9992 19C11.2608 19 11.5248 18.9513 11.776 18.8537C15.4992 17.4119 18 13.6837 18 9.57715V6.09771C18 5.90271 17.9112 5.7201 17.76 5.60277ZM13.8456 8.93596L10.9656 12.2411C10.8512 12.3716 10.6896 12.446 10.5192 12.446C10.3488 12.446 10.1872 12.3716 10.0728 12.2411L8.1528 10.0374C7.9312 9.7829 7.9512 9.39124 8.1976 9.16154C8.4448 8.93266 8.8232 8.95332 9.0456 9.20781L10.5192 10.8992L12.9528 8.10556C13.1752 7.85106 13.5536 7.83123 13.8008 8.05929C14.0472 8.28816 14.0672 8.68064 13.8456 8.93596Z" fill="#236CAE"/>
</svg>
