<svg width="22" height="22" viewBox="0 0 22 22" fill="none" xmlns="http://www.w3.org/2000/svg">
<path d="M19.9713 8.55441C19.9046 8.35362 19.7294 8.20551 19.522 8.17504L13.9443 7.36529L11.4508 2.31189C11.3578 2.12262 11.1645 2 10.9489 2C10.7333 2 10.544 2.11932 10.4469 2.31189L7.95347 7.36529L2.38331 8.17504C2.171 8.20467 1.99655 8.35362 1.9299 8.55441C1.86242 8.7552 1.92249 8.9782 2.07061 9.12632L6.10609 13.0615L5.15482 18.6136C5.11779 18.8218 5.20337 19.0333 5.37783 19.16C5.54899 19.2867 5.77529 19.3015 5.96457 19.2011L10.9522 16.5809L15.9391 19.2043C16.0206 19.2487 16.1103 19.2677 16.1991 19.2677C16.3143 19.2677 16.4296 19.2306 16.5258 19.1599C16.697 19.0331 16.7826 18.8258 16.7488 18.6134L15.7976 13.058L19.833 9.12282C19.982 8.97798 20.0379 8.75826 19.9713 8.55419L19.9713 8.55441Z" fill="#236CAE"/>
</svg>
