<svg width="30" height="29" viewBox="0 0 30 29" fill="none" xmlns="http://www.w3.org/2000/svg">
<ellipse cx="15.375" cy="14.5" rx="14.5" ry="14.5" fill="#25D366"/>
<ellipse cx="15.375" cy="14.5" rx="14.5" ry="14.5" fill="url(#paint0_radial_10673_2292)" fill-opacity="0.3"/>
<path fill-rule="evenodd" clip-rule="evenodd" d="M22.49 7.26699C20.7059 5.48281 18.327 4.53125 15.8291 4.53125C10.5955 4.53125 6.31348 8.81328 6.31348 14.0469C6.31348 15.7121 6.78927 17.3773 7.62188 18.8047L6.31348 23.5625L11.3092 22.2541C12.7365 22.9678 14.2828 23.4436 15.8291 23.4436C21.0627 23.4436 25.3447 19.1615 25.3447 13.9279C25.3447 11.4301 24.2742 9.05117 22.49 7.26699ZM15.8291 21.8973C14.4018 21.8973 12.9744 21.5404 11.785 20.8268L11.5471 20.7078L8.57343 21.5404L9.40606 18.6857L9.16816 18.3289C8.33554 17.0205 7.9787 15.5932 7.9787 14.1658C7.9787 9.88379 11.5471 6.31543 15.8291 6.31543C17.9701 6.31543 19.8733 7.14805 21.4195 8.57539C22.9658 10.1217 23.6795 12.0248 23.6795 14.1658C23.6795 18.3289 20.2301 21.8973 15.8291 21.8973ZM20.1111 15.95C19.8732 15.8311 18.6838 15.2363 18.4459 15.2363C18.208 15.1174 18.089 15.1174 17.9701 15.3553C17.8512 15.5932 17.3754 16.0689 17.2565 16.3068C17.1375 16.4258 17.0185 16.4258 16.7806 16.4258C16.5428 16.3068 15.8291 16.0689 14.8776 15.2363C14.1639 14.6416 13.6881 13.809 13.5691 13.5711C13.4502 13.3332 13.5692 13.2143 13.6881 13.0953C13.807 12.9764 13.926 12.8574 14.0449 12.7385C14.1639 12.6195 14.1639 12.5006 14.2828 12.3816C14.4018 12.2627 14.2828 12.1437 14.2828 12.0248C14.2828 11.9059 13.807 10.7164 13.5691 10.2406C13.4502 9.88379 13.2123 9.88379 13.0934 9.88379C12.9744 9.88379 12.8555 9.88379 12.6176 9.88379C12.4986 9.88379 12.2607 9.88379 12.0228 10.1217C11.7849 10.3596 11.1902 10.9543 11.1902 12.1437C11.1902 13.3332 12.0228 14.4037 12.1418 14.6416C12.2607 14.7605 13.807 17.2584 16.1859 18.21C18.208 19.0426 18.5649 18.8047 19.0406 18.8047C19.5164 18.8047 20.468 18.21 20.5869 17.7342C20.8248 17.1395 20.8248 16.6637 20.7059 16.6637C20.5869 16.0689 20.349 16.0689 20.1111 15.95Z" fill="white"/>
<defs>
<radialGradient id="paint0_radial_10673_2292" cx="0" cy="0" r="1" gradientUnits="userSpaceOnUse" gradientTransform="translate(10.1455 5.70492) rotate(55.9679) scale(22.0861)">
<stop stop-color="white"/>
<stop offset="0.697917" stop-color="white" stop-opacity="0"/>
<stop offset="1" stop-color="white" stop-opacity="0"/>
</radialGradient>
</defs>
</svg>
