<svg width="36" height="30" viewBox="0 0 36 30" fill="none" xmlns="http://www.w3.org/2000/svg">
<g clip-path="url(#clip0_10673_629)">
<path fill-rule="evenodd" clip-rule="evenodd" d="M33.9839 27.6141H32.5439L31.8239 25.4391C31.7618 25.2612 31.6439 25.1084 31.4881 25.0038C31.3323 24.8992 31.1469 24.8484 30.9599 24.8591H13.3919C13.2049 24.8484 13.0195 24.8992 12.8637 25.0038C12.7079 25.1084 12.59 25.2612 12.5279 25.4391L11.6639 27.6141H10.3679V19.3491C10.3679 18.9141 10.7999 18.4791 11.2319 18.4791H33.1199C33.5519 18.4791 33.9839 18.9141 33.9839 19.3491V27.6141ZM12.9599 9.34406H31.3919C32.1119 9.34406 32.8319 10.0691 32.8319 10.7941V16.7391H31.1039C31.1039 15.8691 31.1039 14.7091 31.5359 13.9841C31.5574 13.9078 31.5631 13.828 31.5527 13.7495C31.5424 13.671 31.5161 13.5954 31.4757 13.5275C31.4352 13.4595 31.3813 13.4007 31.3174 13.3545C31.2534 13.3083 31.1808 13.2759 31.1039 13.2591C28.7999 12.3891 25.3439 12.3891 22.8959 13.2591C22.7669 13.3221 22.6659 13.4314 22.6126 13.5655C22.5593 13.6995 22.5577 13.8488 22.6079 13.9841C22.7519 14.5641 22.8959 15.7241 22.7519 16.7391H21.0239C21.0239 15.8691 21.0239 14.7091 21.3119 13.9841C21.3334 13.9078 21.3391 13.828 21.3287 13.7495C21.3184 13.671 21.2921 13.5954 21.2517 13.5275C21.2112 13.4595 21.1573 13.4007 21.0934 13.3545C21.0294 13.3083 20.9568 13.2759 20.8799 13.2591C18.2587 12.4055 15.4371 12.4055 12.8159 13.2591C12.6869 13.3221 12.5859 13.4314 12.5326 13.5655C12.4793 13.6995 12.4777 13.8488 12.5279 13.9841C12.6719 14.5641 12.8159 15.7241 12.6719 16.7391H11.5199V10.9391C11.5199 10.0691 12.0959 9.48906 12.9599 9.48906V9.34406ZM23.7599 14.1291C25.8851 13.5765 28.1147 13.5765 30.2399 14.1291C29.9519 14.9991 29.9519 16.0141 29.9519 16.7391H23.9039V14.1291H23.7599ZM13.6799 14.1291C15.6959 13.5491 17.9999 13.5491 20.0159 14.1291L19.8719 16.7391H13.8239V14.1291H13.6799ZM33.9839 17.0291V10.7941C33.9849 10.0878 33.7165 9.4082 33.2341 8.89551C32.7518 8.38282 32.0923 8.07623 31.3919 8.03906H12.9599C12.2595 8.07623 11.6 8.38282 11.1177 8.89551C10.6353 9.4082 10.3669 10.0878 10.3679 10.7941V16.7391C9.83786 16.9267 9.38273 17.2828 9.07107 17.7535C8.75941 18.2242 8.60809 18.7842 8.6399 19.3491V28.4841C8.6399 28.9191 9.0719 29.3541 9.5039 29.3541H12.3839C12.5461 29.3357 12.6997 29.2715 12.8272 29.1689C12.9546 29.0662 13.0505 28.9293 13.1039 28.7741L13.9679 26.5991H30.2399L31.1039 28.7741C31.1573 28.9293 31.2532 29.0662 31.3806 29.1689C31.5081 29.2715 31.6617 29.3357 31.8239 29.3541H34.7039C34.9331 29.3541 35.1528 29.2624 35.3148 29.0992C35.4769 28.9361 35.5679 28.7148 35.5679 28.4841V19.3491C35.5679 18.1891 34.8479 17.3191 33.8399 16.8841L33.9839 17.0291Z" fill="#292F37" fill-opacity="0.58"/>
<path fill-rule="evenodd" clip-rule="evenodd" d="M32.4002 21.671H11.9522C11.7994 21.671 11.6529 21.7321 11.5449 21.8409C11.4369 21.9496 11.3762 22.0972 11.3762 22.251C11.3762 22.4048 11.4369 22.5523 11.5449 22.6611C11.6529 22.7699 11.7994 22.831 11.9522 22.831H32.4002C32.5529 22.831 32.6994 22.7699 32.8075 22.6611C32.9155 22.5523 32.9762 22.4048 32.9762 22.251C32.9762 22.0972 32.9155 21.9496 32.8075 21.8409C32.6994 21.7321 32.5529 21.671 32.4002 21.671ZM1.87217 8.04099L2.73617 2.24099H6.04817L6.91217 8.04099H1.87217ZM6.62417 1.08099H2.30417C2.21754 1.05842 2.12688 1.05648 2.03937 1.07534C1.95187 1.09419 1.86993 1.13331 1.80005 1.1896C1.73018 1.24588 1.67429 1.31779 1.63682 1.39962C1.59934 1.48144 1.58132 1.57093 1.58417 1.66099L0.576172 8.62099C0.576172 8.77482 0.636857 8.92234 0.744878 9.03112C0.852899 9.13989 0.999407 9.20099 1.15217 9.20099H3.88817V28.196H2.88017C2.72741 28.196 2.5809 28.2571 2.47288 28.3659C2.36486 28.4746 2.30417 28.6222 2.30417 28.776C2.30417 28.9298 2.36486 29.0773 2.47288 29.1861C2.5809 29.2949 2.72741 29.356 2.88017 29.356H5.76017C5.91294 29.356 6.05944 29.2949 6.16747 29.1861C6.27549 29.0773 6.33617 28.9298 6.33617 28.776C6.33617 28.6222 6.27549 28.4746 6.16747 28.3659C6.05944 28.2571 5.91294 28.196 5.76017 28.196H5.04017V9.34599H7.63217C7.72161 9.34887 7.81048 9.33072 7.89175 9.29298C7.97301 9.25525 8.04442 9.19897 8.10032 9.12861C8.15622 9.05825 8.19507 8.97574 8.21379 8.88763C8.23251 8.79952 8.23059 8.70823 8.20817 8.62099L7.20017 1.66099C7.20017 1.50717 7.13949 1.35964 7.03147 1.25087C6.92344 1.1421 6.77694 1.08099 6.62417 1.08099Z" fill="#292F37" fill-opacity="0.58"/>
<path fill-rule="evenodd" clip-rule="evenodd" d="M6.62474 10.2132C6.52258 10.1308 6.39561 10.0859 6.26474 10.0859C6.13387 10.0859 6.0069 10.1308 5.90474 10.2132C5.8487 10.3527 5.8487 10.5087 5.90474 10.6482V11.0832L6.33674 11.2282H6.76874C6.84278 11.1538 6.89531 11.0605 6.92068 10.9583C6.94604 10.8561 6.9433 10.7489 6.91274 10.6482C6.90191 10.558 6.8702 10.4717 6.82018 10.3961C6.77015 10.3206 6.70321 10.2579 6.62474 10.2132ZM6.33674 12.0982C6.18398 12.0982 6.03747 12.1593 5.92945 12.2681C5.82143 12.3768 5.76074 12.5243 5.76074 12.6782C5.76074 12.7929 5.79452 12.905 5.85782 13.0004C5.92111 13.0958 6.01107 13.1701 6.11632 13.214C6.22157 13.2579 6.33738 13.2694 6.44911 13.247C6.56085 13.2247 6.66348 13.1694 6.74404 13.0883C6.82459 13.0072 6.87945 12.9038 6.90167 12.7913C6.9239 12.6788 6.91249 12.5622 6.8689 12.4562C6.8253 12.3502 6.75147 12.2597 6.65675 12.1959C6.56203 12.1322 6.45066 12.0982 6.33674 12.0982ZM6.76874 14.1282C6.72093 14.1221 6.67255 14.1221 6.62474 14.1282C6.52258 14.0458 6.39561 14.0009 6.26474 14.0009C6.13387 14.0009 6.0069 14.0458 5.90474 14.1282C5.89872 14.1763 5.89872 14.225 5.90474 14.2732C5.88035 14.3683 5.88035 14.4681 5.90474 14.5632C5.9006 14.6949 5.94113 14.8241 6.01965 14.9295C6.09818 15.0349 6.21001 15.1103 6.33674 15.1432L6.76874 14.9982C6.8193 14.91 6.84591 14.81 6.84591 14.7082C6.84591 14.6064 6.8193 14.5063 6.76874 14.4182C6.80168 14.3244 6.80168 14.222 6.76874 14.1282Z" fill="#292F37" fill-opacity="0.58"/>
</g>
<defs>
<clipPath id="clip0_10673_629">
<rect width="36" height="29" fill="white" transform="translate(0 0.5)"/>
</clipPath>
</defs>
</svg>
