<svg width="31" height="32" viewBox="0 0 31 32" fill="none" xmlns="http://www.w3.org/2000/svg">
<g clip-path="url(#clip0_10673_614)">
<path fill-rule="evenodd" clip-rule="evenodd" d="M29.5237 23.5283C29.5239 24.4326 29.3435 25.3278 28.993 26.1614C28.6426 26.9949 28.1291 27.7502 27.4829 28.3826C26.8366 29.0151 26.0705 29.5122 25.2295 29.8446C24.3885 30.177 23.4896 30.3381 22.5856 30.3185H8.11889C6.34365 30.2799 4.65415 29.5475 3.41245 28.2782C2.17074 27.009 1.47561 25.3039 1.47603 23.5283V9.06229C1.47603 7.26142 2.19146 5.53431 3.46492 4.26091C4.73838 2.9875 6.46556 2.27211 8.26651 2.27211H22.7332C23.6249 2.27211 24.5079 2.44774 25.3318 2.78898C26.1556 3.13022 26.9042 3.63038 27.5348 4.26091C28.1653 4.89143 28.6655 5.63998 29.0068 6.4638C29.348 7.28762 29.5237 8.17059 29.5237 9.06229V23.5283ZM22.5856 1.09121H8.11889C6.00474 1.09121 3.97717 1.93102 2.48224 3.42588C0.987306 4.92075 0.147461 6.94823 0.147461 9.06229V23.5283C0.147461 25.6424 0.987306 27.6698 2.48224 29.1647C3.97717 30.6596 6.00474 31.4994 8.11889 31.4994H22.5856C23.6447 31.519 24.6972 31.3273 25.6814 30.9355C26.6657 30.5437 27.562 29.9597 28.3179 29.2176C29.0738 28.4754 29.6742 27.59 30.084 26.6132C30.4938 25.6364 30.7048 24.5876 30.7046 23.5283V9.06229C30.7048 8.00297 30.4938 6.95425 30.084 5.9774C29.6742 5.00056 29.0738 4.11519 28.3179 3.37305C27.562 2.6309 26.6657 2.04687 25.6814 1.65507C24.6972 1.26328 23.6447 1.07159 22.5856 1.09121Z" fill="#292F37" fill-opacity="0.58"/>
<path fill-rule="evenodd" clip-rule="evenodd" d="M17.2714 17.3305H11.9571V11.1307H17.2714C19.0428 11.1307 20.3714 12.6069 20.3714 14.2306C20.3723 15.0278 20.0661 15.7947 19.5162 16.3719C18.9664 16.9492 18.2154 17.2925 17.419 17.3305M17.419 9.35938H10.9238C10.6889 9.35937 10.4636 9.45269 10.2975 9.61878C10.1314 9.78488 10.0381 10.0102 10.0381 10.2451V23.0873C10.0381 23.2036 10.061 23.3188 10.1055 23.4263C10.15 23.5337 10.2153 23.6314 10.2975 23.7136C10.3798 23.7958 10.4774 23.8611 10.5849 23.9056C10.6923 23.9501 10.8075 23.973 10.9238 23.973C11.0401 23.973 11.1553 23.9501 11.2627 23.9056C11.3702 23.8611 11.4678 23.7958 11.5501 23.7136C11.6323 23.6314 11.6976 23.5337 11.7421 23.4263C11.7866 23.3188 11.8095 23.2036 11.8095 23.0873V19.1018H17.1238C17.7758 19.1216 18.4252 19.0102 19.0334 18.7742C19.6416 18.5383 20.1961 18.1826 20.6643 17.7283C21.1324 17.274 21.5044 16.7303 21.7584 16.1295C22.0124 15.5286 22.1431 14.8829 22.1428 14.2306C22.1428 13.5909 22.0168 12.9575 21.772 12.3665C21.5272 11.7755 21.1684 11.2385 20.716 10.7861C20.2637 10.3338 19.7267 9.97498 19.1356 9.73017C18.5446 9.48537 17.9111 9.35937 17.2714 9.35938" fill="#292F37" fill-opacity="0.58"/>
<path fill-rule="evenodd" clip-rule="evenodd" d="M25.0949 23.0807C25.1162 23.474 25.0544 23.8673 24.9136 24.2352C24.7727 24.603 24.556 24.9371 24.2775 25.2156C23.999 25.4941 23.6649 25.7108 23.297 25.8516C22.9292 25.9925 22.5358 26.0542 22.1425 26.0329H8.70916C8.31585 26.0542 7.92246 25.9925 7.55461 25.8516C7.18676 25.7108 6.85269 25.4941 6.57417 25.2156C6.29565 24.9371 6.07891 24.603 5.93808 24.2352C5.79725 23.8673 5.73547 23.474 5.75678 23.0807V9.35271C5.75625 8.97164 5.83339 8.59446 5.98348 8.24419C6.13357 7.89393 6.35348 7.57792 6.62976 7.31546C6.90605 7.053 7.23292 6.84959 7.59044 6.71765C7.94795 6.58571 8.32861 6.52801 8.70916 6.54807H22.1425C22.5236 6.54754 22.9008 6.62467 23.2511 6.77476C23.6013 6.92485 23.9174 7.14474 24.1798 7.42101C24.4423 7.69729 24.6457 8.02415 24.7777 8.38165C24.9096 8.73914 24.9673 9.11978 24.9473 9.50032V23.0807H25.0949ZM22.1425 4.92433H8.70916C8.10813 4.90463 7.50911 5.00358 6.94634 5.21552C6.38358 5.42746 5.86811 5.74824 5.42939 6.15951C4.99068 6.57078 4.63734 7.06449 4.38956 7.6124C4.14178 8.16031 4.00443 8.75168 3.98535 9.35271V23.0807C3.98473 24.2692 4.44655 25.4113 5.27308 26.2653C6.09961 27.1193 7.22601 27.6183 8.41392 27.6567H22.2901C23.4529 27.6197 24.558 27.1413 25.3807 26.3187C26.2033 25.4961 26.6817 24.391 26.7187 23.2283V9.35271C26.6817 8.18995 26.2033 7.08491 25.3807 6.2623C24.558 5.43969 23.4529 4.96127 22.2901 4.92433H22.1425Z" fill="#292F37" fill-opacity="0.58"/>
</g>
<defs>
<clipPath id="clip0_10673_614">
<rect width="31" height="31" fill="white" transform="translate(0 0.5)"/>
</clipPath>
</defs>
</svg>
