<svg width="76" height="55" viewBox="0 0 76 55" fill="none" xmlns="http://www.w3.org/2000/svg">
<path d="M74.3228 9.22921C73.8869 7.61896 73.0365 6.15096 71.8563 4.97139C70.6762 3.79183 69.2075 2.94186 67.5965 2.50613C61.6987 0.898438 37.9616 0.898438 37.9616 0.898438C37.9616 0.898438 14.2244 0.947155 8.32665 2.55485C6.71563 2.99057 5.24691 3.84054 4.06677 5.02011C2.88663 6.19968 2.03625 7.66768 1.60031 9.27793C-0.18363 19.7523 -0.875761 35.7123 1.64905 45.7677C2.08499 47.3779 2.93537 48.8459 4.11551 50.0255C5.29565 51.2051 6.76437 52.055 8.3754 52.4907C14.2731 54.0984 38.0103 54.0984 38.0103 54.0984C38.0103 54.0984 61.7475 54.0984 67.6452 52.4907C69.2562 52.055 70.7249 51.2051 71.9051 50.0255C73.0852 48.8459 73.9356 47.3779 74.3715 45.7677C76.253 35.2787 76.833 19.3284 74.3228 9.22921Z" fill="#FF0000"/>
<path d="M30.4004 38.8972L50.4368 27.1517L30.4004 15.4062V38.8972Z" fill="white"/>
</svg>
