<svg width="30" height="29" viewBox="0 0 30 29" fill="none" xmlns="http://www.w3.org/2000/svg">
<g opacity="0.15">
<ellipse cx="15.25" cy="14.5" rx="14.5" ry="14.5" fill="url(#paint0_linear_10673_916)"/>
<ellipse cx="15.25" cy="14.5" rx="14.5" ry="14.5" fill="white"/>
</g>
<path d="M6.40249 14.5244C10.7822 12.7341 13.702 11.5537 15.1618 10.9834C19.335 9.35499 20.2011 9.07217 20.7667 9.06258C20.8911 9.06071 21.1681 9.08957 21.3488 9.22668C21.499 9.34232 21.5412 9.49871 21.5624 9.60852C21.5811 9.71821 21.607 9.96821 21.5858 10.1634C21.3605 12.3925 20.3818 17.8018 19.8842 20.2985C19.6753 21.3549 19.2599 21.7091 18.8585 21.7437C17.9854 21.819 17.3235 21.2027 16.4786 20.6831C15.1571 19.8697 14.4108 19.3635 13.1269 18.5699C11.6435 17.6527 12.6059 17.1485 13.4508 16.3247C13.6714 16.1091 17.516 12.8282 17.5887 12.5306C17.5981 12.4934 17.6075 12.3546 17.5183 12.2815C17.4315 12.2081 17.3024 12.2332 17.2085 12.253C17.0747 12.2812 14.9647 13.5914 10.8714 16.1833C10.2728 16.5696 9.73067 16.758 9.24247 16.748C8.70733 16.7373 7.67461 16.4635 6.90711 16.2295C5.96827 15.9425 5.21955 15.7908 5.28527 15.3033C5.31813 15.0496 5.69132 14.7899 6.40249 14.5244Z" fill="white"/>
<defs>
<linearGradient id="paint0_linear_10673_916" x1="1450.75" y1="0" x2="1450.75" y2="2900" gradientUnits="userSpaceOnUse">
<stop stop-color="#2AABEE"/>
<stop offset="1" stop-color="#229ED9"/>
</linearGradient>
</defs>
</svg>
