<svg width="22" height="22" viewBox="0 0 22 22" fill="none" xmlns="http://www.w3.org/2000/svg">
<path d="M4.48276 15.9623H19.5345C19.7921 15.9623 20 15.7544 20 15.4968C20 15.2392 19.7921 15.0312 19.5345 15.0312H3.24138C2.9 15.0312 2.58966 15.1709 2.3631 15.3944C2.13966 15.6209 2 15.9312 2 16.2726C2 16.9585 2.55552 17.514 3.24138 17.514H19.5345C19.7921 17.514 20 17.3061 20 17.0485C20 16.7909 19.7921 16.583 19.5345 16.583H4.48276C4.31207 16.583 4.17241 16.4433 4.17241 16.2726C4.17241 16.1019 4.31207 15.9623 4.48276 15.9623Z" fill="#236CAE"/>
<path d="M18.7586 11.9297H2.46552C2.20793 11.9297 2 12.1376 2 12.3952C2 12.6528 2.20793 12.8607 2.46552 12.8607H17.5172C17.6879 12.8607 17.8276 13.0004 17.8276 13.1711C17.8276 13.3418 17.6879 13.4814 17.5172 13.4814H2.46552C2.20793 13.4814 2 13.6893 2 13.9469C2 14.2045 2.20793 14.4124 2.46552 14.4124H18.7586C19.4445 14.4124 20 13.8569 20 13.1711C20 12.8297 19.8603 12.5193 19.6369 12.2928C19.4103 12.0693 19.1 11.9297 18.7586 11.9297Z" fill="#236CAE"/>
<path d="M18.7586 4.48047H2.62069C2.27931 4.48047 2 4.75978 2 5.10116V11.4756C2.1831 11.367 2.39724 11.3081 2.62069 11.3081H18.7586C19.221 11.3081 19.6555 11.4756 20 11.786V5.72185C20 5.03599 19.4445 4.48047 18.7586 4.48047Z" fill="#236CAE"/>
</svg>
