<svg width="22" height="22" viewBox="0 0 22 22" fill="none" xmlns="http://www.w3.org/2000/svg">
<path d="M2.12545 14.1842C2.06507 14.4056 2.02481 14.627 1.98456 14.8685L1.90405 15.2912C1.8638 15.5327 2.04494 15.7541 2.28646 15.7541H18.5892C18.8106 15.7541 18.9917 15.5729 18.9917 15.3515V14.1641H2.12545V14.1842Z" fill="#236CAE"/>
<path d="M18.971 13.1587V10.2001L18.2464 8.54968L19.2326 8.14714C19.3333 8.10689 19.3735 7.98613 19.3333 7.90562L19.2326 7.62384L20.9032 6.9194C20.9837 6.87915 21.0239 6.77852 20.9837 6.69801L20.7623 6.15459C20.722 6.07408 20.6214 6.03382 20.5409 6.07408L18.8704 6.77852L18.7697 6.537C18.7295 6.43636 18.6087 6.39611 18.5282 6.43636L17.4816 6.87915C16.9382 6.05395 16.0124 5.55078 15.006 5.55078H13.094C8.20315 5.55078 3.9564 8.67044 2.42676 13.199H18.971V13.1587ZM13.0738 7.06029H14.9859C15.5696 7.06029 16.0929 7.40245 16.3143 7.92575L17.2803 10.1598H14.845V9.79754C14.845 9.37488 14.5028 9.03272 14.0802 9.03272H12.4298C12.0071 9.03272 11.665 9.37488 11.665 9.79754V10.1397C10.1152 10.0391 9.65228 9.3145 8.9881 7.966C10.236 7.38232 11.6247 7.06029 13.0738 7.06029Z" fill="#236CAE"/>
</svg>
