<svg width="22" height="22" viewBox="0 0 22 22" fill="none" xmlns="http://www.w3.org/2000/svg">
<path fill-rule="evenodd" clip-rule="evenodd" d="M7.15532 3.07324C7.03622 2.96695 6.85306 2.97751 6.74677 3.09736C6.64049 3.21646 6.65179 3.39962 6.77089 3.50591C7.07014 3.772 7.15607 4.01245 7.16285 4.23481C7.17038 4.47978 7.08596 4.73684 6.96687 5.04287C6.95481 5.07528 6.94199 5.10769 6.92843 5.14161C6.82516 5.40468 6.70607 5.70921 6.67515 6.01072C6.63822 6.38083 6.73093 6.75245 7.07165 7.09316C7.18471 7.20622 7.36789 7.20622 7.48095 7.09316C7.59402 6.98009 7.59402 6.79616 7.48095 6.68385C7.27366 6.47657 7.22994 6.28059 7.25105 6.06877C7.27291 5.85168 7.3611 5.62629 7.46889 5.34965C7.48171 5.31799 7.49452 5.28558 7.50733 5.25166C7.62342 4.95165 7.75306 4.59285 7.74175 4.21671C7.72894 3.81871 7.56086 3.43355 7.15532 3.07324ZM9.38584 3.07324C9.26599 2.96695 9.08282 2.97751 8.97654 3.09736C8.87101 3.21646 8.88156 3.39962 9.00066 3.50591C9.29991 3.772 9.38584 4.01245 9.39261 4.23481C9.40015 4.47978 9.31573 4.73684 9.19739 5.04287C9.18457 5.07528 9.17176 5.10769 9.15895 5.14161C9.05492 5.40468 8.93584 5.70921 8.90492 6.01072C8.86799 6.38083 8.9607 6.75245 9.30141 7.09316C9.41448 7.20622 9.59766 7.20622 9.71072 7.09316C9.82379 6.98009 9.82379 6.79616 9.71072 6.68385C9.50343 6.47657 9.45971 6.28059 9.48157 6.06877C9.50343 5.85168 9.59087 5.62629 9.69866 5.34965C9.71147 5.31799 9.72429 5.28558 9.7371 5.25166C9.85318 4.95165 9.98358 4.59285 9.97152 4.21671C9.9587 3.81871 9.79063 3.43355 9.38584 3.07324ZM11.207 3.09736C11.3133 2.97751 11.4957 2.96695 11.6155 3.07324C12.0203 3.43355 12.1884 3.81873 12.2012 4.21673C12.2133 4.59286 12.0829 4.95167 11.9668 5.25168C11.954 5.2856 11.9412 5.31801 11.9291 5.34967C11.8206 5.62631 11.7331 5.85169 11.7113 6.06878C11.6894 6.2806 11.7339 6.47658 11.9404 6.68387C12.0535 6.79618 12.0535 6.98011 11.9404 7.09317C11.8274 7.20624 11.6442 7.20624 11.5311 7.09317C11.1912 6.75247 11.0977 6.38085 11.1354 6.01074C11.1655 5.70922 11.2854 5.4047 11.3887 5.14163C11.4015 5.10771 11.4143 5.0753 11.4271 5.04288C11.5454 4.73685 11.6306 4.4798 11.6223 4.23483C11.6155 4.01247 11.5296 3.77201 11.2311 3.50593C11.1113 3.39965 11.1007 3.21646 11.207 3.09736ZM4.38594 8.2253C4.17261 8.2253 4 8.39791 4 8.61123V10.6955C4 10.6955 4 16.4265 9.63236 16.2698C15.1395 16.1167 14.9631 10.9352 14.9525 10.7038V10.6925V10.6849V8.6113C14.9525 8.39797 14.7791 8.22536 14.5666 8.22536L4.38594 8.2253ZM15.3654 9.30698C15.3549 9.20824 15.4212 9.11778 15.52 9.10572C16.1094 9.0326 18 8.95873 18 11.0083C18 13.0458 15.9956 12.9846 15.3505 12.9123C15.242 12.9003 15.1742 12.7955 15.1975 12.6884C15.4734 11.4311 15.5026 10.6329 15.3654 9.30698ZM13.166 18.0515C13.4321 18.0515 13.6484 17.8352 13.6484 17.5691C13.6484 17.303 13.4321 17.0867 13.166 17.0867H5.92968C5.6636 17.0867 5.44726 17.303 5.44726 17.5691C5.44726 17.8352 5.6636 18.0515 5.92968 18.0515H13.166Z" fill="#236CAE"/>
</svg>
