<svg width="22" height="22" viewBox="0 0 22 22" fill="none" xmlns="http://www.w3.org/2000/svg">
<path d="M7.9648 7.30074L11.5 10.8359L13.2675 9.06841L9.73234 5.53321L7.9648 7.30074Z" fill="#236CAE"/>
<path d="M12.1633 11.4982L13.9307 13.2656L17.466 9.7303L15.6986 7.96289L12.1633 11.4982Z" fill="#236CAE"/>
<path d="M4 9.76953V13.2311L5.15385 11.5003L4 9.76953Z" fill="#236CAE"/>
<path d="M18.9995 13.2311V9.76953L17.8457 11.5003L18.9995 13.2311Z" fill="#236CAE"/>
<path d="M14.3848 14.06L19.0002 19.0012V15.0372L16.2363 12.0781L14.3848 14.06Z" fill="#236CAE"/>
<path d="M8.61538 8.94118L4 4V7.96463L6.76361 10.9231L8.61538 8.94118Z" fill="#236CAE"/>
<path d="M4.76174 13.2305L4 14.3707V18.9997L6.30769 15.5455L4.76174 13.2305Z" fill="#236CAE"/>
<path d="M18.2382 9.76923L19.0001 8.62805V4L16.6924 7.45521L18.2382 9.76923Z" fill="#236CAE"/>
<path d="M8.94076 14.3828L4 18.9982H7.96421L10.9231 16.2343L8.94076 14.3828Z" fill="#236CAE"/>
<path d="M10.8363 11.502L9.06836 9.73438L5.53316 13.2701L7.30108 15.0377L10.8363 11.502Z" fill="#236CAE"/>
<path d="M9.76953 19.0015H13.2311L11.5003 17.8477L9.76953 19.0015Z" fill="#236CAE"/>
<path d="M13.2305 18.2372L14.3707 18.9991H18.9997L15.5455 16.6914L13.2305 18.2372Z" fill="#236CAE"/>
<path d="M9.76923 4.76174L8.62894 4H4L7.45501 6.30769L9.76923 4.76174Z" fill="#236CAE"/>
<path d="M13.2311 4H9.76953L11.5003 5.15385L13.2311 4Z" fill="#236CAE"/>
<path d="M15.0356 15.6997L11.5 12.1641L9.73234 13.9317L13.2679 17.4673L15.0356 15.6997Z" fill="#236CAE"/>
<path d="M14.059 8.61538L19.0002 4H15.0356L12.0771 6.7635L14.059 8.61538Z" fill="#236CAE"/>
</svg>
