<svg width="22" height="22" viewBox="0 0 22 22" fill="none" xmlns="http://www.w3.org/2000/svg">
<path d="M5.67002 9.24609H18.0279C18.3176 9.24609 18.5527 9.48121 18.5527 9.77089C18.5527 10.0606 18.3176 10.2955 18.0279 10.2955H5.67002C5.38034 10.2955 5.14502 10.0606 5.14502 9.77089C5.14502 9.48121 5.38034 9.24609 5.67002 9.24609Z" fill="#236CAE"/>
<path d="M3.84655 2.01805C4.12614 1.94291 4.41376 2.10926 4.48911 2.38905L5.99761 8.01954C6.07256 8.29954 5.90682 8.58716 5.62682 8.66231C5.34661 8.73745 5.05879 8.5711 4.98405 8.2911L3.47514 2.66061C3.4002 2.38082 3.56634 2.09299 3.84655 2.01805Z" fill="#236CAE"/>
<path d="M5.80311 11.0238C6.30587 11.0238 17.4085 11.0238 18.2102 11.0238C18.3539 11.0238 19 10.989 19 11.5861C19 12.0773 18.5932 13.1782 17.3603 14.3511C16.1273 15.5242 14.3639 16.1707 13.2429 16.1707C12.7881 16.1707 12.3154 16.1707 11.9322 16.1707C11.5489 16.1707 11.3934 16.4939 11.3934 16.7453C11.3934 16.9967 11.3934 17.5452 11.3934 18.1675C11.3934 18.7897 11.8602 18.7897 12.1355 18.7897C12.4111 18.7897 12.5783 18.7897 12.9017 18.7897C13.4103 18.7897 13.3909 19.4975 12.8894 19.4975C12.5188 19.4975 6.36517 19.4975 5.79075 19.4975C5.21613 19.4975 5.14449 18.983 5.14449 18.6238C5.14449 18.2651 5.14449 12.0291 5.14449 11.6816C5.1449 11.3343 5.30034 11.0238 5.80311 11.0238Z" fill="#236CAE"/>
</svg>
