<svg width="370" height="459" viewBox="0 0 370 459" fill="none" xmlns="http://www.w3.org/2000/svg">
<rect width="370" height="459" rx="10" fill="white"/>
<rect x="10" y="10" width="350" height="97" rx="10" fill="#236CAE" fill-opacity="0.1"/>
<rect x="10" y="378" width="350" height="71" rx="10" fill="#F2C94C"/>
<path d="M136.992 413.294C137.859 413.753 138.292 414.473 138.292 415.452C138.292 416.267 137.985 416.925 137.369 417.428C136.754 417.931 135.961 418.182 134.99 418.182C133.3 418.182 132.169 417.467 131.597 416.037L133.144 415.166C133.422 416.05 134.037 416.492 134.99 416.492C135.484 416.492 135.861 416.388 136.121 416.18C136.381 415.972 136.511 415.69 136.511 415.335C136.511 414.98 136.381 414.698 136.121 414.49C135.87 414.282 135.506 414.178 135.029 414.178H133.898V412.579H134.756C135.207 412.579 135.558 412.484 135.809 412.293C136.061 412.094 136.186 411.825 136.186 411.487C136.186 411.149 136.078 410.885 135.861 410.694C135.645 410.495 135.324 410.395 134.899 410.395C134.119 410.395 133.573 410.776 133.261 411.539L131.74 410.655C132.356 409.364 133.409 408.718 134.899 408.718C135.801 408.718 136.537 408.961 137.109 409.446C137.681 409.931 137.967 410.573 137.967 411.37C137.967 412.185 137.642 412.826 136.992 413.294ZM145.306 418L144.76 416.362H141.133L140.587 418H138.65L141.835 408.9H144.058L147.256 418H145.306ZM141.705 414.685H144.201L142.953 410.967L141.705 414.685ZM151.624 412.345C152.508 412.345 153.232 412.609 153.795 413.138C154.358 413.658 154.64 414.334 154.64 415.166C154.64 416.007 154.358 416.691 153.795 417.22C153.232 417.74 152.508 418 151.624 418H148.14V408.9H153.86V410.616H149.934V412.345H151.624ZM151.624 416.323C151.979 416.323 152.274 416.223 152.508 416.024C152.742 415.816 152.859 415.53 152.859 415.166C152.859 414.802 152.742 414.52 152.508 414.321C152.274 414.122 151.979 414.022 151.624 414.022H149.934V416.323H151.624ZM159.137 408.9C160.013 408.9 160.749 409.195 161.347 409.784C161.945 410.373 162.244 411.097 162.244 411.955C162.244 412.813 161.945 413.537 161.347 414.126C160.749 414.715 160.013 415.01 159.137 415.01H157.538V418H155.744V408.9H159.137ZM159.137 413.333C159.519 413.333 159.835 413.203 160.086 412.943C160.338 412.674 160.463 412.345 160.463 411.955C160.463 411.556 160.338 411.227 160.086 410.967C159.835 410.707 159.519 410.577 159.137 410.577H157.538V413.333H159.137ZM171.006 416.817C170.087 417.727 168.969 418.182 167.652 418.182C166.335 418.182 165.217 417.727 164.298 416.817C163.388 415.898 162.933 414.776 162.933 413.45C162.933 412.124 163.388 411.006 164.298 410.096C165.217 409.177 166.335 408.718 167.652 408.718C168.969 408.718 170.087 409.177 171.006 410.096C171.925 411.006 172.384 412.124 172.384 413.45C172.384 414.776 171.925 415.898 171.006 416.817ZM165.559 415.595C166.122 416.15 166.82 416.427 167.652 416.427C168.484 416.427 169.182 416.15 169.745 415.595C170.308 415.032 170.59 414.317 170.59 413.45C170.59 412.583 170.308 411.868 169.745 411.305C169.182 410.742 168.484 410.46 167.652 410.46C166.82 410.46 166.122 410.742 165.559 411.305C164.996 411.868 164.714 412.583 164.714 413.45C164.714 414.317 164.996 415.032 165.559 415.595ZM178.819 408.9H180.6V418H178.819V414.23H175.439V418H173.645V408.9H175.439V412.514H178.819V408.9ZM187.555 418V412.449L183.655 418H182.29V408.9H184.084V414.464L187.984 408.9H189.349V418H187.555ZM194.43 408.9C195.306 408.9 196.042 409.195 196.64 409.784C197.238 410.373 197.537 411.097 197.537 411.955C197.537 412.813 197.238 413.537 196.64 414.126C196.042 414.715 195.306 415.01 194.43 415.01H192.831V418H191.037V408.9H194.43ZM194.43 413.333C194.812 413.333 195.128 413.203 195.379 412.943C195.631 412.674 195.756 412.345 195.756 411.955C195.756 411.556 195.631 411.227 195.379 410.967C195.128 410.707 194.812 410.577 194.43 410.577H192.831V413.333H194.43ZM206.299 416.817C205.38 417.727 204.262 418.182 202.945 418.182C201.628 418.182 200.51 417.727 199.591 416.817C198.681 415.898 198.226 414.776 198.226 413.45C198.226 412.124 198.681 411.006 199.591 410.096C200.51 409.177 201.628 408.718 202.945 408.718C204.262 408.718 205.38 409.177 206.299 410.096C207.218 411.006 207.677 412.124 207.677 413.45C207.677 414.776 207.218 415.898 206.299 416.817ZM200.852 415.595C201.415 416.15 202.113 416.427 202.945 416.427C203.777 416.427 204.475 416.15 205.038 415.595C205.601 415.032 205.883 414.317 205.883 413.45C205.883 412.583 205.601 411.868 205.038 411.305C204.475 410.742 203.777 410.46 202.945 410.46C202.113 410.46 201.415 410.742 200.852 411.305C200.289 411.868 200.007 412.583 200.007 413.45C200.007 414.317 200.289 415.032 200.852 415.595ZM214.437 413.281C215.234 413.74 215.633 414.434 215.633 415.361C215.633 416.132 215.36 416.765 214.814 417.259C214.268 417.753 213.596 418 212.799 418H208.938V408.9H212.526C213.306 408.9 213.96 409.143 214.489 409.628C215.026 410.105 215.295 410.716 215.295 411.461C215.295 412.215 215.009 412.822 214.437 413.281ZM212.526 410.577H210.732V412.579H212.526C212.803 412.579 213.033 412.484 213.215 412.293C213.405 412.102 213.501 411.864 213.501 411.578C213.501 411.292 213.41 411.054 213.228 410.863C213.046 410.672 212.812 410.577 212.526 410.577ZM212.799 416.323C213.102 416.323 213.353 416.223 213.553 416.024C213.752 415.816 213.852 415.556 213.852 415.244C213.852 414.941 213.752 414.689 213.553 414.49C213.353 414.282 213.102 414.178 212.799 414.178H210.732V416.323H212.799ZM222.659 418L222.113 416.362H218.486L217.94 418H216.003L219.188 408.9H221.411L224.609 418H222.659ZM219.058 414.685H221.554L220.306 410.967L219.058 414.685ZM230.851 408.9V410.616H228.394V418H226.6V410.616H224.156V408.9H230.851ZM235.246 411.89C236.121 411.89 236.858 412.185 237.456 412.774C238.054 413.363 238.353 414.087 238.353 414.945C238.353 415.803 238.054 416.527 237.456 417.116C236.858 417.705 236.121 418 235.246 418H231.853V408.9H233.647V411.89H235.246ZM235.246 416.323C235.627 416.323 235.943 416.193 236.195 415.933C236.446 415.673 236.572 415.344 236.572 414.945C236.572 414.555 236.446 414.23 236.195 413.97C235.943 413.701 235.627 413.567 235.246 413.567H233.647V416.323H235.246Z" fill="black" fill-opacity="0.8"/>
<path d="M48.625 42.74C50.9583 42.74 52.93 43.44 54.54 44.84C56.15 46.2167 56.955 48.13 56.955 50.58C56.955 53.03 56.1267 54.955 54.47 56.355C52.8133 57.755 50.7833 58.455 48.38 58.455C46.4433 58.455 44.7283 58.0117 43.235 57.125C41.7417 56.215 40.68 54.9083 40.05 53.205L43.515 51.21C44.1683 53.4267 45.79 54.535 48.38 54.535C49.7567 54.535 50.8533 54.185 51.67 53.485C52.51 52.7617 52.93 51.7933 52.93 50.58C52.93 49.3667 52.5217 48.41 51.705 47.71C50.8883 47.01 49.8033 46.66 48.45 46.66H41.31L42.255 33.5H55.905V37.28H45.965L45.545 42.74H48.625ZM78.5123 43.51C80.2856 43.93 81.7206 44.7583 82.8173 45.995C83.9373 47.2083 84.4973 48.7367 84.4973 50.58C84.4973 53.03 83.6689 54.955 82.0123 56.355C80.3556 57.755 78.3256 58.455 75.9223 58.455C74.0556 58.455 72.3756 58.0233 70.8823 57.16C69.4123 56.2967 68.3506 55.0367 67.6973 53.38L71.1273 51.385C71.8506 53.485 73.4489 54.535 75.9223 54.535C77.3223 54.535 78.4306 54.185 79.2473 53.485C80.0639 52.7617 80.4723 51.7933 80.4723 50.58C80.4723 49.3667 80.0639 48.41 79.2473 47.71C78.4306 47.01 77.3223 46.66 75.9223 46.66H75.0123L73.4023 44.245L78.6873 37.28H68.4323V33.5H83.4823V36.93L78.5123 43.51ZM103.819 54.99C102.139 57.3 99.782 58.455 96.7486 58.455C93.7153 58.455 91.347 57.3 89.6436 54.99C87.9636 52.68 87.1236 49.6 87.1236 45.75C87.1236 41.9 87.9636 38.82 89.6436 36.51C91.347 34.2 93.7153 33.045 96.7486 33.045C99.782 33.045 102.139 34.2 103.819 36.51C105.522 38.82 106.374 41.9 106.374 45.75C106.374 49.6 105.522 52.68 103.819 54.99ZM96.7486 54.535C98.5686 54.535 99.957 53.7767 100.914 52.26C101.87 50.7433 102.349 48.5733 102.349 45.75C102.349 42.9267 101.87 40.7567 100.914 39.24C99.957 37.7233 98.5686 36.965 96.7486 36.965C94.952 36.965 93.5636 37.7233 92.5836 39.24C91.627 40.7567 91.1486 42.9267 91.1486 45.75C91.1486 48.5733 91.627 50.7433 92.5836 52.26C93.5636 53.7767 94.952 54.535 96.7486 54.535ZM125.865 54.99C124.185 57.3 121.828 58.455 118.795 58.455C115.761 58.455 113.393 57.3 111.69 54.99C110.01 52.68 109.17 49.6 109.17 45.75C109.17 41.9 110.01 38.82 111.69 36.51C113.393 34.2 115.761 33.045 118.795 33.045C121.828 33.045 124.185 34.2 125.865 36.51C127.568 38.82 128.42 41.9 128.42 45.75C128.42 49.6 127.568 52.68 125.865 54.99ZM118.795 54.535C120.615 54.535 122.003 53.7767 122.96 52.26C123.916 50.7433 124.395 48.5733 124.395 45.75C124.395 42.9267 123.916 40.7567 122.96 39.24C122.003 37.7233 120.615 36.965 118.795 36.965C116.998 36.965 115.61 37.7233 114.63 39.24C113.673 40.7567 113.195 42.9267 113.195 45.75C113.195 48.5733 113.673 50.7433 114.63 52.26C115.61 53.7767 116.998 54.535 118.795 54.535ZM150.92 49.075H145.915V51.42H154.14V54.15H145.915V58H141.89V54.15H139.09V51.42H141.89V49.075H139.09V45.47H141.89V33.5H150.92C153.137 33.5 155.015 34.27 156.555 35.81C158.095 37.3267 158.865 39.1817 158.865 41.375C158.865 43.545 158.095 45.3767 156.555 46.87C155.015 48.34 153.137 49.075 150.92 49.075ZM145.915 37.28V45.47H150.92C152.017 45.47 152.939 45.0733 153.685 44.28C154.455 43.4867 154.84 42.5183 154.84 41.375C154.84 40.2317 154.455 39.2633 153.685 38.47C152.939 37.6767 152.017 37.28 150.92 37.28H145.915Z" fill="#221F32"/>
<path d="M68.97 73.5H70.17V84H68.79V75L66.555 75.66L66.21 74.46L68.97 73.5ZM81.2767 76.5H82.5817V84H81.2767V80.865H77.3917V84H76.0867V76.5H77.3917V79.62H81.2767V76.5ZM90.8981 83.055C90.1281 83.815 89.1931 84.195 88.0931 84.195C86.9931 84.195 86.0581 83.815 85.2881 83.055C84.5281 82.295 84.1481 81.36 84.1481 80.25C84.1481 79.14 84.5281 78.205 85.2881 77.445C86.0581 76.685 86.9931 76.305 88.0931 76.305C89.1931 76.305 90.1281 76.685 90.8981 77.445C91.6681 78.205 92.0531 79.14 92.0531 80.25C92.0531 81.36 91.6681 82.295 90.8981 83.055ZM88.0931 82.92C88.8431 82.92 89.4731 82.665 89.9831 82.155C90.4931 81.645 90.7481 81.01 90.7481 80.25C90.7481 79.49 90.4931 78.855 89.9831 78.345C89.4731 77.835 88.8431 77.58 88.0931 77.58C87.3531 77.58 86.7281 77.835 86.2181 78.345C85.7081 78.855 85.4531 79.49 85.4531 80.25C85.4531 81.01 85.7081 81.645 86.2181 82.155C86.7281 82.665 87.3531 82.92 88.0931 82.92ZM98.1554 76.5H99.4604V84H98.1554V81.3C97.5554 81.56 96.8804 81.69 96.1304 81.69C95.1704 81.69 94.4254 81.465 93.8954 81.015C93.3754 80.555 93.1154 79.88 93.1154 78.99V76.5H94.4204V78.915C94.4204 79.475 94.5704 79.875 94.8704 80.115C95.1804 80.355 95.6304 80.475 96.2204 80.475C96.9304 80.475 97.5754 80.345 98.1554 80.085V76.5ZM104.608 79.2C105.358 79.2 105.978 79.425 106.468 79.875C106.968 80.315 107.218 80.89 107.218 81.6C107.218 82.31 106.968 82.89 106.468 83.34C105.978 83.78 105.358 84 104.608 84H101.443V76.5H102.748V79.2H104.608ZM104.608 82.785C104.978 82.785 105.288 82.68 105.538 82.47C105.798 82.25 105.928 81.96 105.928 81.6C105.928 81.24 105.798 80.95 105.538 80.73C105.288 80.51 104.978 80.4 104.608 80.4H102.748V82.785H104.608ZM110.41 82.455L109.435 86.1H108.31L108.91 82.455H110.41ZM117.984 73.5H119.184V84H117.804V75L115.569 75.66L115.224 74.46L117.984 73.5ZM130.02 76.5V77.76H126.405V84H125.1V76.5H130.02ZM137.202 83.055C136.432 83.815 135.497 84.195 134.397 84.195C133.297 84.195 132.362 83.815 131.592 83.055C130.832 82.295 130.452 81.36 130.452 80.25C130.452 79.14 130.832 78.205 131.592 77.445C132.362 76.685 133.297 76.305 134.397 76.305C135.497 76.305 136.432 76.685 137.202 77.445C137.972 78.205 138.357 79.14 138.357 80.25C138.357 81.36 137.972 82.295 137.202 83.055ZM134.397 82.92C135.147 82.92 135.777 82.665 136.287 82.155C136.797 81.645 137.052 81.01 137.052 80.25C137.052 79.49 136.797 78.855 136.287 78.345C135.777 77.835 135.147 77.58 134.397 77.58C133.657 77.58 133.032 77.835 132.522 78.345C132.012 78.855 131.757 79.49 131.757 80.25C131.757 81.01 132.012 81.645 132.522 82.155C133.032 82.665 133.657 82.92 134.397 82.92ZM143.42 84.195C142.29 84.195 141.35 83.82 140.6 83.07C139.85 82.31 139.475 81.37 139.475 80.25C139.475 79.13 139.85 78.195 140.6 77.445C141.35 76.685 142.29 76.305 143.42 76.305C144.16 76.305 144.825 76.485 145.415 76.845C146.005 77.195 146.445 77.67 146.735 78.27L145.64 78.9C145.45 78.5 145.155 78.18 144.755 77.94C144.365 77.7 143.92 77.58 143.42 77.58C142.67 77.58 142.04 77.835 141.53 78.345C141.03 78.855 140.78 79.49 140.78 80.25C140.78 81 141.03 81.63 141.53 82.14C142.04 82.65 142.67 82.905 143.42 82.905C143.92 82.905 144.37 82.79 144.77 82.56C145.17 82.32 145.475 82 145.685 81.6L146.795 82.245C146.475 82.835 146.015 83.31 145.415 83.67C144.815 84.02 144.15 84.195 143.42 84.195ZM153.547 76.5V77.76H150.997V84H149.692V77.76H147.127V76.5H153.547ZM157.855 79.2C158.605 79.2 159.225 79.425 159.715 79.875C160.215 80.315 160.465 80.89 160.465 81.6C160.465 82.31 160.215 82.89 159.715 83.34C159.225 83.78 158.605 84 157.855 84H154.69V76.5H155.995V79.2H157.855ZM157.855 82.785C158.225 82.785 158.535 82.68 158.785 82.47C159.045 82.25 159.175 81.96 159.175 81.6C159.175 81.24 159.045 80.95 158.785 80.73C158.535 80.51 158.225 80.4 157.855 80.4H155.995V82.785H157.855Z" fill="#221F32"/>
<g clip-path="url(#clip0_10720_734)">
<path fill-rule="evenodd" clip-rule="evenodd" d="M40.0373 80.9514C40.7015 80.2872 41.6024 79.9141 42.5417 79.9141H48.2083C49.1476 79.9141 50.0485 80.2872 50.7127 80.9514C51.3769 81.6156 51.75 82.5164 51.75 83.4557V84.8724C51.75 85.2636 51.4329 85.5807 51.0417 85.5807C50.6505 85.5807 50.3333 85.2636 50.3333 84.8724V83.4557C50.3333 82.8921 50.1094 82.3516 49.7109 81.9531C49.3124 81.5546 48.7719 81.3307 48.2083 81.3307H42.5417C41.9781 81.3307 41.4376 81.5546 41.0391 81.9531C40.6405 82.3516 40.4167 82.8921 40.4167 83.4557V84.8724C40.4167 85.2636 40.0995 85.5807 39.7083 85.5807C39.3171 85.5807 39 85.2636 39 84.8724V83.4557C39 82.5164 39.3731 81.6156 40.0373 80.9514Z" fill="#236CAE"/>
<path fill-rule="evenodd" clip-rule="evenodd" d="M45.3757 72.8307C44.202 72.8307 43.2507 73.7821 43.2507 74.9557C43.2507 76.1293 44.202 77.0807 45.3757 77.0807C46.5493 77.0807 47.5007 76.1293 47.5007 74.9557C47.5007 73.7821 46.5493 72.8307 45.3757 72.8307ZM41.834 74.9557C41.834 72.9997 43.4196 71.4141 45.3757 71.4141C47.3317 71.4141 48.9173 72.9997 48.9173 74.9557C48.9173 76.9117 47.3317 78.4974 45.3757 78.4974C43.4196 78.4974 41.834 76.9117 41.834 74.9557Z" fill="#236CAE"/>
<path fill-rule="evenodd" clip-rule="evenodd" d="M52.4807 80.5392C52.5785 80.1605 52.9648 79.9327 53.3436 80.0305C54.1034 80.2267 54.7765 80.6696 55.2573 81.2898C55.7381 81.91 55.9993 82.6723 55.9998 83.457L55.9998 84.8742C55.9998 85.2654 55.6827 85.5826 55.2915 85.5826C54.9003 85.5826 54.5832 85.2654 54.5832 84.8742L54.5832 83.4581C54.5832 83.458 54.5832 83.4582 54.5832 83.4581C54.5828 82.9873 54.4261 82.5298 54.1377 82.1578C53.8492 81.7856 53.4453 81.5199 52.9894 81.4022C52.6107 81.3044 52.3829 80.918 52.4807 80.5392Z" fill="#236CAE"/>
<path fill-rule="evenodd" clip-rule="evenodd" d="M49.6473 72.0406C49.7443 71.6616 50.1302 71.4331 50.5092 71.5301C51.271 71.7252 51.9463 72.1682 52.4285 72.7895C52.9107 73.4107 53.1724 74.1747 53.1724 74.9611C53.1724 75.7475 52.9107 76.5115 52.4285 77.1328C51.9463 77.754 51.271 78.197 50.5092 78.3921C50.1302 78.4891 49.7443 78.2606 49.6473 77.8816C49.5503 77.5026 49.7788 77.1167 50.1578 77.0197C50.6149 76.9027 51.02 76.6368 51.3094 76.2641C51.5987 75.8914 51.7557 75.4329 51.7557 74.9611C51.7557 74.4893 51.5987 74.0308 51.3094 73.6581C51.02 73.2854 50.6149 73.0195 50.1578 72.9025C49.7788 72.8055 49.5503 72.4196 49.6473 72.0406Z" fill="#236CAE"/>
</g>
<path d="M48.76 141H47.05L42.52 135.96V141H41.125V130.5H42.52V135.24L46.9 130.5H48.61L43.975 135.6L48.76 141ZM55.4031 133.5H56.7081V141H55.4031V139.71C54.7531 140.7 53.8081 141.195 52.5681 141.195C51.5181 141.195 50.6231 140.815 49.8831 140.055C49.1431 139.285 48.7731 138.35 48.7731 137.25C48.7731 136.15 49.1431 135.22 49.8831 134.46C50.6231 133.69 51.5181 133.305 52.5681 133.305C53.8081 133.305 54.7531 133.8 55.4031 134.79V133.5ZM52.7331 139.935C53.4931 139.935 54.1281 139.68 54.6381 139.17C55.1481 138.65 55.4031 138.01 55.4031 137.25C55.4031 136.49 55.1481 135.855 54.6381 135.345C54.1281 134.825 53.4931 134.565 52.7331 134.565C51.9831 134.565 51.3531 134.825 50.8431 135.345C50.3331 135.855 50.0781 136.49 50.0781 137.25C50.0781 138.01 50.3331 138.65 50.8431 139.17C51.3531 139.68 51.9831 139.935 52.7331 139.935ZM64.2653 133.5V134.76H61.7153V141H60.4103V134.76H57.8453V133.5H64.2653ZM66.031 137.85C66.161 138.52 66.466 139.04 66.946 139.41C67.436 139.78 68.036 139.965 68.746 139.965C69.736 139.965 70.456 139.6 70.906 138.87L72.016 139.5C71.286 140.63 70.186 141.195 68.716 141.195C67.526 141.195 66.556 140.825 65.806 140.085C65.066 139.335 64.696 138.39 64.696 137.25C64.696 136.12 65.061 135.18 65.791 134.43C66.521 133.68 67.466 133.305 68.626 133.305C69.726 133.305 70.621 133.695 71.311 134.475C72.011 135.245 72.361 136.175 72.361 137.265C72.361 137.455 72.346 137.65 72.316 137.85H66.031ZM68.626 134.535C67.926 134.535 67.346 134.735 66.886 135.135C66.426 135.525 66.141 136.05 66.031 136.71H71.041C70.931 136 70.651 135.46 70.201 135.09C69.751 134.72 69.226 134.535 68.626 134.535ZM78.7811 133.5V134.76H75.1661V141H73.8611V133.5H78.7811ZM85.9626 140.055C85.1926 140.815 84.2576 141.195 83.1576 141.195C82.0576 141.195 81.1226 140.815 80.3526 140.055C79.5926 139.295 79.2126 138.36 79.2126 137.25C79.2126 136.14 79.5926 135.205 80.3526 134.445C81.1226 133.685 82.0576 133.305 83.1576 133.305C84.2576 133.305 85.1926 133.685 85.9626 134.445C86.7326 135.205 87.1176 136.14 87.1176 137.25C87.1176 138.36 86.7326 139.295 85.9626 140.055ZM83.1576 139.92C83.9076 139.92 84.5376 139.665 85.0476 139.155C85.5576 138.645 85.8126 138.01 85.8126 137.25C85.8126 136.49 85.5576 135.855 85.0476 135.345C84.5376 134.835 83.9076 134.58 83.1576 134.58C82.4176 134.58 81.7926 134.835 81.2826 135.345C80.7726 135.855 80.5176 136.49 80.5176 137.25C80.5176 138.01 80.7726 138.645 81.2826 139.155C81.7926 139.665 82.4176 139.92 83.1576 139.92ZM92.796 133.305C93.846 133.305 94.741 133.69 95.481 134.46C96.221 135.22 96.591 136.15 96.591 137.25C96.591 138.35 96.221 139.285 95.481 140.055C94.741 140.815 93.846 141.195 92.796 141.195C91.556 141.195 90.611 140.7 89.961 139.71V144H88.656V133.5H89.961V134.79C90.611 133.8 91.556 133.305 92.796 133.305ZM92.631 139.935C93.381 139.935 94.011 139.68 94.521 139.17C95.031 138.65 95.286 138.01 95.286 137.25C95.286 136.49 95.031 135.855 94.521 135.345C94.011 134.825 93.381 134.565 92.631 134.565C91.871 134.565 91.236 134.825 90.726 135.345C90.216 135.855 89.961 136.49 89.961 137.25C89.961 138.01 90.216 138.65 90.726 139.17C91.236 139.68 91.871 139.935 92.631 139.935ZM103.593 133.5H104.643V141H103.353V135.735L99.1982 141H98.1482V133.5H99.4382V138.765L103.593 133.5ZM112.24 133.5V141H110.95V138.3H109.855L107.755 141H106.165L108.355 138.225C107.795 138.085 107.34 137.805 106.99 137.385C106.64 136.965 106.465 136.475 106.465 135.915C106.465 135.225 106.71 134.65 107.2 134.19C107.69 133.73 108.305 133.5 109.045 133.5H112.24ZM109.09 137.13H110.95V134.715H109.09C108.72 134.715 108.405 134.825 108.145 135.045C107.885 135.265 107.755 135.56 107.755 135.93C107.755 136.29 107.885 136.58 108.145 136.8C108.405 137.02 108.72 137.13 109.09 137.13ZM123.158 133.5H124.463V141H123.158V137.865H119.273V141H117.968V133.5H119.273V136.62H123.158V133.5ZM132.779 140.055C132.009 140.815 131.074 141.195 129.974 141.195C128.874 141.195 127.939 140.815 127.169 140.055C126.409 139.295 126.029 138.36 126.029 137.25C126.029 136.14 126.409 135.205 127.169 134.445C127.939 133.685 128.874 133.305 129.974 133.305C131.074 133.305 132.009 133.685 132.779 134.445C133.549 135.205 133.934 136.14 133.934 137.25C133.934 138.36 133.549 139.295 132.779 140.055ZM129.974 139.92C130.724 139.92 131.354 139.665 131.864 139.155C132.374 138.645 132.629 138.01 132.629 137.25C132.629 136.49 132.374 135.855 131.864 135.345C131.354 134.835 130.724 134.58 129.974 134.58C129.234 134.58 128.609 134.835 128.099 135.345C127.589 135.855 127.334 136.49 127.334 137.25C127.334 138.01 127.589 138.645 128.099 139.155C128.609 139.665 129.234 139.92 129.974 139.92ZM142.972 133.5V141H141.697V135.555L139.312 139.395H139.147L136.762 135.555V141H135.472V133.5H136.867L139.222 137.295L141.577 133.5H142.972ZM145.88 137.85C146.01 138.52 146.315 139.04 146.795 139.41C147.285 139.78 147.885 139.965 148.595 139.965C149.585 139.965 150.305 139.6 150.755 138.87L151.865 139.5C151.135 140.63 150.035 141.195 148.565 141.195C147.375 141.195 146.405 140.825 145.655 140.085C144.915 139.335 144.545 138.39 144.545 137.25C144.545 136.12 144.91 135.18 145.64 134.43C146.37 133.68 147.315 133.305 148.475 133.305C149.575 133.305 150.47 133.695 151.16 134.475C151.86 135.245 152.21 136.175 152.21 137.265C152.21 137.455 152.195 137.65 152.165 137.85H145.88ZM148.475 134.535C147.775 134.535 147.195 134.735 146.735 135.135C146.275 135.525 145.99 136.05 145.88 136.71H150.89C150.78 136 150.5 135.46 150.05 135.09C149.6 134.72 149.075 134.535 148.475 134.535ZM157.85 133.305C158.9 133.305 159.795 133.69 160.535 134.46C161.275 135.22 161.645 136.15 161.645 137.25C161.645 138.35 161.275 139.285 160.535 140.055C159.795 140.815 158.9 141.195 157.85 141.195C156.61 141.195 155.665 140.7 155.015 139.71V144H153.71V133.5H155.015V134.79C155.665 133.8 156.61 133.305 157.85 133.305ZM157.685 139.935C158.435 139.935 159.065 139.68 159.575 139.17C160.085 138.65 160.34 138.01 160.34 137.25C160.34 136.49 160.085 135.855 159.575 135.345C159.065 134.825 158.435 134.565 157.685 134.565C156.925 134.565 156.29 134.825 155.78 135.345C155.27 135.855 155.015 136.49 155.015 137.25C155.015 138.01 155.27 138.65 155.78 139.17C156.29 139.68 156.925 139.935 157.685 139.935ZM169.412 133.5H170.717V141H169.412V139.71C168.762 140.7 167.817 141.195 166.577 141.195C165.527 141.195 164.632 140.815 163.892 140.055C163.152 139.285 162.782 138.35 162.782 137.25C162.782 136.15 163.152 135.22 163.892 134.46C164.632 133.69 165.527 133.305 166.577 133.305C167.817 133.305 168.762 133.8 169.412 134.79V133.5ZM166.742 139.935C167.502 139.935 168.137 139.68 168.647 139.17C169.157 138.65 169.412 138.01 169.412 137.25C169.412 136.49 169.157 135.855 168.647 135.345C168.137 134.825 167.502 134.565 166.742 134.565C165.992 134.565 165.362 134.825 164.852 135.345C164.342 135.855 164.087 136.49 164.087 137.25C164.087 138.01 164.342 138.65 164.852 139.17C165.362 139.68 165.992 139.935 166.742 139.935Z" fill="black"/>
<path d="M40.645 163V162.28L44.5 158.32C45.63 157.15 46.195 156.16 46.195 155.35C46.195 154.65 45.975 154.1 45.535 153.7C45.095 153.3 44.545 153.1 43.885 153.1C42.715 153.1 41.88 153.63 41.38 154.69L40.705 154.285C41.015 153.655 41.445 153.175 41.995 152.845C42.555 152.505 43.185 152.335 43.885 152.335C44.735 152.335 45.465 152.605 46.075 153.145C46.695 153.685 47.005 154.42 47.005 155.35C47.005 155.95 46.83 156.535 46.48 157.105C46.14 157.665 45.66 158.26 45.04 158.89L41.785 162.235H47.245V163H40.645ZM49.2152 158.725V158.005H54.6152V158.725H49.2152ZM62.8082 163H61.7882L57.8132 159.31V163H57.0632V155.5H57.8132V158.905L61.6082 155.5H62.6582L58.6232 159.1L62.8082 163ZM67.0021 163.165C65.9021 163.165 64.9671 162.79 64.1971 162.04C63.4371 161.28 63.0571 160.35 63.0571 159.25C63.0571 158.15 63.4371 157.225 64.1971 156.475C64.9671 155.715 65.9021 155.335 67.0021 155.335C68.0921 155.335 69.0171 155.715 69.7771 156.475C70.5471 157.225 70.9321 158.15 70.9321 159.25C70.9321 160.35 70.5471 161.28 69.7771 162.04C69.0171 162.79 68.0921 163.165 67.0021 163.165ZM64.7371 161.515C65.3571 162.135 66.1121 162.445 67.0021 162.445C67.8921 162.445 68.6421 162.135 69.2521 161.515C69.8621 160.895 70.1671 160.14 70.1671 159.25C70.1671 158.36 69.8621 157.605 69.2521 156.985C68.6421 156.365 67.8921 156.055 67.0021 156.055C66.1121 156.055 65.3571 156.365 64.7371 156.985C64.1271 157.605 63.8221 158.36 63.8221 159.25C63.8221 160.14 64.1271 160.895 64.7371 161.515ZM79.982 155.5V163H79.217V156.64L76.412 161.065H76.307L73.487 156.61V163H72.737V155.5H73.622L76.352 159.805L79.082 155.5H79.982ZM87.7178 155.5H88.4828V163H87.7178V159.61H83.0378V163H82.2878V155.5H83.0378V158.89H87.7178V155.5ZM97.3986 155.5H98.1636V163H97.3986V161.305C97.0786 161.885 96.6386 162.34 96.0786 162.67C95.5186 163 94.8836 163.165 94.1736 163.165C93.1036 163.165 92.1886 162.79 91.4286 162.04C90.6686 161.28 90.2886 160.35 90.2886 159.25C90.2886 158.15 90.6686 157.225 91.4286 156.475C92.1886 155.715 93.1036 155.335 94.1736 155.335C94.8836 155.335 95.5186 155.5 96.0786 155.83C96.6386 156.16 97.0786 156.615 97.3986 157.195V155.5ZM91.9686 161.515C92.5886 162.135 93.3436 162.445 94.2336 162.445C95.1236 162.445 95.8736 162.135 96.4836 161.515C97.0936 160.895 97.3986 160.14 97.3986 159.25C97.3986 158.36 97.0936 157.605 96.4836 156.985C95.8736 156.365 95.1236 156.055 94.2336 156.055C93.3436 156.055 92.5886 156.365 91.9686 156.985C91.3586 157.605 91.0536 158.36 91.0536 159.25C91.0536 160.14 91.3586 160.895 91.9686 161.515ZM105.717 155.5V156.235H102.987V163H102.237V156.235H99.5065V155.5H105.717ZM112.503 155.5H113.268V163H112.503V159.61H107.823V163H107.073V155.5H107.823V158.89H112.503V155.5ZM118.554 158.41C119.244 158.41 119.829 158.625 120.309 159.055C120.789 159.485 121.029 160.035 121.029 160.705C121.029 161.375 120.789 161.925 120.309 162.355C119.829 162.785 119.244 163 118.554 163H115.584V155.5H116.334V158.41H118.554ZM122.184 155.5H122.934V163H122.184V155.5ZM118.554 162.265C119.034 162.265 119.439 162.12 119.769 161.83C120.099 161.54 120.264 161.165 120.264 160.705C120.264 160.235 120.099 159.86 119.769 159.58C119.449 159.29 119.044 159.145 118.554 159.145H116.334V162.265H118.554ZM126.422 154.195V153.535H130.217V154.195H126.422ZM130.772 155.5H131.432V163H130.667V156.805L125.897 163H125.237V155.5H125.987V161.695L130.772 155.5ZM143.177 155.5H143.942V163H143.177V159.61H138.497V163H137.747V155.5H138.497V158.89H143.177V155.5ZM149.693 163.165C148.593 163.165 147.658 162.79 146.888 162.04C146.128 161.28 145.748 160.35 145.748 159.25C145.748 158.15 146.128 157.225 146.888 156.475C147.658 155.715 148.593 155.335 149.693 155.335C150.783 155.335 151.708 155.715 152.468 156.475C153.238 157.225 153.623 158.15 153.623 159.25C153.623 160.35 153.238 161.28 152.468 162.04C151.708 162.79 150.783 163.165 149.693 163.165ZM147.428 161.515C148.048 162.135 148.803 162.445 149.693 162.445C150.583 162.445 151.333 162.135 151.943 161.515C152.553 160.895 152.858 160.14 152.858 159.25C152.858 158.36 152.553 157.605 151.943 156.985C151.333 156.365 150.583 156.055 149.693 156.055C148.803 156.055 148.048 156.365 147.428 156.985C146.818 157.605 146.513 158.36 146.513 159.25C146.513 160.14 146.818 160.895 147.428 161.515ZM162.672 155.5V163H161.907V156.64L159.102 161.065H158.997L156.177 156.61V163H155.427V155.5H156.312L159.042 159.805L161.772 155.5H162.672ZM168.353 155.335C169.453 155.335 170.343 155.725 171.023 156.505C171.713 157.285 172.058 158.21 172.058 159.28C172.058 159.32 172.053 159.38 172.043 159.46C172.043 159.54 172.043 159.6 172.043 159.64H165.248C165.338 160.48 165.673 161.16 166.253 161.68C166.843 162.19 167.568 162.445 168.428 162.445C169.028 162.445 169.553 162.32 170.003 162.07C170.453 161.82 170.793 161.49 171.023 161.08L171.683 161.47C171.373 161.99 170.933 162.405 170.363 162.715C169.793 163.015 169.143 163.165 168.413 163.165C167.263 163.165 166.318 162.8 165.578 162.07C164.838 161.33 164.468 160.39 164.468 159.25C164.468 158.13 164.828 157.2 165.548 156.46C166.278 155.71 167.213 155.335 168.353 155.335ZM168.353 156.055C167.503 156.055 166.793 156.32 166.223 156.85C165.653 157.38 165.328 158.065 165.248 158.905H171.278C171.198 158.015 170.878 157.32 170.318 156.82C169.768 156.31 169.113 156.055 168.353 156.055ZM177.786 155.335C178.866 155.335 179.781 155.715 180.531 156.475C181.291 157.225 181.671 158.15 181.671 159.25C181.671 160.35 181.291 161.28 180.531 162.04C179.781 162.79 178.866 163.165 177.786 163.165C177.076 163.165 176.436 162.995 175.866 162.655C175.306 162.315 174.871 161.85 174.561 161.26V166H173.811V155.5H174.561V157.24C174.871 156.65 175.306 156.185 175.866 155.845C176.436 155.505 177.076 155.335 177.786 155.335ZM175.476 161.515C176.096 162.135 176.851 162.445 177.741 162.445C178.631 162.445 179.381 162.135 179.991 161.515C180.611 160.895 180.921 160.14 180.921 159.25C180.921 158.36 180.611 157.605 179.991 156.985C179.381 156.365 178.631 156.055 177.741 156.055C176.851 156.055 176.096 156.365 175.476 156.985C174.866 157.605 174.561 158.36 174.561 159.25C174.561 160.14 174.866 160.895 175.476 161.515ZM193.223 163H192.203L188.228 159.31V163H187.478V155.5H188.228V158.905L192.023 155.5H193.073L189.038 159.1L193.223 163ZM197.417 163.165C196.317 163.165 195.382 162.79 194.612 162.04C193.852 161.28 193.472 160.35 193.472 159.25C193.472 158.15 193.852 157.225 194.612 156.475C195.382 155.715 196.317 155.335 197.417 155.335C198.507 155.335 199.432 155.715 200.192 156.475C200.962 157.225 201.347 158.15 201.347 159.25C201.347 160.35 200.962 161.28 200.192 162.04C199.432 162.79 198.507 163.165 197.417 163.165ZM195.152 161.515C195.772 162.135 196.527 162.445 197.417 162.445C198.307 162.445 199.057 162.135 199.667 161.515C200.277 160.895 200.582 160.14 200.582 159.25C200.582 158.36 200.277 157.605 199.667 156.985C199.057 156.365 198.307 156.055 197.417 156.055C196.527 156.055 195.772 156.365 195.152 156.985C194.542 157.605 194.237 158.36 194.237 159.25C194.237 160.14 194.542 160.895 195.152 161.515ZM210.397 155.5V163H209.632V156.64L206.827 161.065H206.722L203.902 156.61V163H203.152V155.5H204.037L206.767 159.805L209.497 155.5H210.397ZM219.843 156.55C220.583 157.28 220.953 158.18 220.953 159.25C220.953 160.32 220.583 161.225 219.843 161.965C219.113 162.695 218.148 163.095 216.948 163.165V166H216.198V163.165C214.998 163.095 214.028 162.695 213.288 161.965C212.558 161.225 212.193 160.32 212.193 159.25C212.193 158.18 212.558 157.28 213.288 156.55C214.028 155.81 214.998 155.405 216.198 155.335V152.5H216.948V155.335C218.148 155.405 219.113 155.81 219.843 156.55ZM213.843 157.06C213.253 157.65 212.958 158.38 212.958 159.25C212.958 160.12 213.253 160.85 213.843 161.44C214.433 162.03 215.218 162.36 216.198 162.43V156.07C215.218 156.14 214.433 156.47 213.843 157.06ZM216.948 162.43C217.928 162.36 218.713 162.03 219.303 161.44C219.893 160.85 220.188 160.12 220.188 159.25C220.188 158.38 219.893 157.65 219.303 157.06C218.713 156.47 217.928 156.14 216.948 156.07V162.43ZM226.187 163.165C225.087 163.165 224.152 162.79 223.382 162.04C222.622 161.28 222.242 160.35 222.242 159.25C222.242 158.15 222.622 157.225 223.382 156.475C224.152 155.715 225.087 155.335 226.187 155.335C227.277 155.335 228.202 155.715 228.962 156.475C229.732 157.225 230.117 158.15 230.117 159.25C230.117 160.35 229.732 161.28 228.962 162.04C228.202 162.79 227.277 163.165 226.187 163.165ZM223.922 161.515C224.542 162.135 225.297 162.445 226.187 162.445C227.077 162.445 227.827 162.135 228.437 161.515C229.047 160.895 229.352 160.14 229.352 159.25C229.352 158.36 229.047 157.605 228.437 156.985C227.827 156.365 227.077 156.055 226.187 156.055C225.297 156.055 224.542 156.365 223.922 156.985C223.312 157.605 223.007 158.36 223.007 159.25C223.007 160.14 223.312 160.895 223.922 161.515ZM235.897 155.335C236.977 155.335 237.892 155.715 238.642 156.475C239.402 157.225 239.782 158.15 239.782 159.25C239.782 160.35 239.402 161.28 238.642 162.04C237.892 162.79 236.977 163.165 235.897 163.165C235.187 163.165 234.547 162.995 233.977 162.655C233.417 162.315 232.982 161.85 232.672 161.26V166H231.922V155.5H232.672V157.24C232.982 156.65 233.417 156.185 233.977 155.845C234.547 155.505 235.187 155.335 235.897 155.335ZM233.587 161.515C234.207 162.135 234.962 162.445 235.852 162.445C236.742 162.445 237.492 162.135 238.102 161.515C238.722 160.895 239.032 160.14 239.032 159.25C239.032 158.36 238.722 157.605 238.102 156.985C237.492 156.365 236.742 156.055 235.852 156.055C234.962 156.055 234.207 156.365 233.587 156.985C232.977 157.605 232.672 158.36 232.672 159.25C232.672 160.14 232.977 160.895 233.587 161.515ZM246.547 155.5V156.235H243.817V163H243.067V156.235H240.337V155.5H246.547Z" fill="black"/>
<path d="M48.76 204H47.05L42.52 198.96V204H41.125V193.5H42.52V198.24L46.9 193.5H48.61L43.975 198.6L48.76 204ZM55.5231 203.055C54.7531 203.815 53.8181 204.195 52.7181 204.195C51.6181 204.195 50.6831 203.815 49.9131 203.055C49.1531 202.295 48.7731 201.36 48.7731 200.25C48.7731 199.14 49.1531 198.205 49.9131 197.445C50.6831 196.685 51.6181 196.305 52.7181 196.305C53.8181 196.305 54.7531 196.685 55.5231 197.445C56.2931 198.205 56.6781 199.14 56.6781 200.25C56.6781 201.36 56.2931 202.295 55.5231 203.055ZM52.7181 202.92C53.4681 202.92 54.0981 202.665 54.6081 202.155C55.1181 201.645 55.3731 201.01 55.3731 200.25C55.3731 199.49 55.1181 198.855 54.6081 198.345C54.0981 197.835 53.4681 197.58 52.7181 197.58C51.9781 197.58 51.3531 197.835 50.8431 198.345C50.3331 198.855 50.0781 199.49 50.0781 200.25C50.0781 201.01 50.3331 201.645 50.8431 202.155C51.3531 202.665 51.9781 202.92 52.7181 202.92ZM64.2079 196.5V204H62.9029V197.76H59.9479V200.82C59.9479 202.05 59.6979 202.91 59.1979 203.4C58.7079 203.88 58.0129 204.08 57.1129 204V202.77C57.6229 202.84 58.0029 202.73 58.2529 202.44C58.5129 202.14 58.6429 201.59 58.6429 200.79V196.5H64.2079ZM66.3203 200.025V198.765H71.7953V200.025H66.3203ZM78.9 200.145C79.67 200.465 80.055 201.045 80.055 201.885C80.055 202.505 79.845 203.015 79.425 203.415C79.015 203.805 78.425 204 77.655 204H73.905V196.5H77.355C78.105 196.5 78.685 196.69 79.095 197.07C79.505 197.44 79.71 197.93 79.71 198.54C79.71 199.26 79.44 199.795 78.9 200.145ZM77.295 197.67H75.18V199.635H77.295C78.055 199.635 78.435 199.3 78.435 198.63C78.435 197.99 78.055 197.67 77.295 197.67ZM77.58 202.815C77.96 202.815 78.25 202.725 78.45 202.545C78.66 202.365 78.765 202.11 78.765 201.78C78.765 201.47 78.66 201.23 78.45 201.06C78.25 200.88 77.96 200.79 77.58 200.79H75.18V202.815H77.58ZM87.7936 203.055C87.0236 203.815 86.0886 204.195 84.9886 204.195C83.8886 204.195 82.9536 203.815 82.1836 203.055C81.4236 202.295 81.0436 201.36 81.0436 200.25C81.0436 199.14 81.4236 198.205 82.1836 197.445C82.9536 196.685 83.8886 196.305 84.9886 196.305C86.0886 196.305 87.0236 196.685 87.7936 197.445C88.5636 198.205 88.9486 199.14 88.9486 200.25C88.9486 201.36 88.5636 202.295 87.7936 203.055ZM84.9886 202.92C85.7386 202.92 86.3686 202.665 86.8786 202.155C87.3886 201.645 87.6436 201.01 87.6436 200.25C87.6436 199.49 87.3886 198.855 86.8786 198.345C86.3686 197.835 85.7386 197.58 84.9886 197.58C84.2486 197.58 83.6236 197.835 83.1136 198.345C82.6036 198.855 82.3486 199.49 82.3486 200.25C82.3486 201.01 82.6036 201.645 83.1136 202.155C83.6236 202.665 84.2486 202.92 84.9886 202.92ZM97.7621 204.195C96.6321 204.195 95.6921 203.82 94.9421 203.07C94.1921 202.31 93.8171 201.37 93.8171 200.25C93.8171 199.13 94.1921 198.195 94.9421 197.445C95.6921 196.685 96.6321 196.305 97.7621 196.305C98.5021 196.305 99.1671 196.485 99.7571 196.845C100.347 197.195 100.787 197.67 101.077 198.27L99.9821 198.9C99.7921 198.5 99.4971 198.18 99.0971 197.94C98.7071 197.7 98.2621 197.58 97.7621 197.58C97.0121 197.58 96.3821 197.835 95.8721 198.345C95.3721 198.855 95.1221 199.49 95.1221 200.25C95.1221 201 95.3721 201.63 95.8721 202.14C96.3821 202.65 97.0121 202.905 97.7621 202.905C98.2621 202.905 98.7121 202.79 99.1121 202.56C99.5121 202.32 99.8171 202 100.027 201.6L101.137 202.245C100.817 202.835 100.357 203.31 99.7571 203.67C99.1571 204.02 98.4921 204.195 97.7621 204.195ZM108.935 196.5V204H107.63V197.745H103.745V204H102.44V196.5H108.935ZM117.132 196.5H118.437V204H117.132V202.71C116.482 203.7 115.537 204.195 114.297 204.195C113.247 204.195 112.352 203.815 111.612 203.055C110.872 202.285 110.502 201.35 110.502 200.25C110.502 199.15 110.872 198.22 111.612 197.46C112.352 196.69 113.247 196.305 114.297 196.305C115.537 196.305 116.482 196.8 117.132 197.79V196.5ZM114.462 202.935C115.222 202.935 115.857 202.68 116.367 202.17C116.877 201.65 117.132 201.01 117.132 200.25C117.132 199.49 116.877 198.855 116.367 198.345C115.857 197.825 115.222 197.565 114.462 197.565C113.712 197.565 113.082 197.825 112.572 198.345C112.062 198.855 111.807 199.49 111.807 200.25C111.807 201.01 112.062 201.65 112.572 202.17C113.082 202.68 113.712 202.935 114.462 202.935ZM126.669 196.5V204H125.364V197.76H122.409V200.82C122.409 202.05 122.159 202.91 121.659 203.4C121.169 203.88 120.474 204.08 119.574 204V202.77C120.084 202.84 120.464 202.73 120.714 202.44C120.974 202.14 121.104 201.59 121.104 200.79V196.5H126.669ZM131.811 199.2C132.561 199.2 133.181 199.425 133.671 199.875C134.171 200.315 134.421 200.89 134.421 201.6C134.421 202.31 134.171 202.89 133.671 203.34C133.181 203.78 132.561 204 131.811 204H128.646V196.5H129.951V199.2H131.811ZM131.811 202.785C132.181 202.785 132.491 202.68 132.741 202.47C133.001 202.25 133.131 201.96 133.131 201.6C133.131 201.24 133.001 200.95 132.741 200.73C132.491 200.51 132.181 200.4 131.811 200.4H129.951V202.785H131.811ZM141.014 196.5H142.319V204H141.014V200.865H137.129V204H135.824V196.5H137.129V199.62H141.014V196.5ZM147.47 199.2C148.22 199.2 148.84 199.425 149.33 199.875C149.83 200.315 150.08 200.89 150.08 201.6C150.08 202.31 149.83 202.89 149.33 203.34C148.84 203.78 148.22 204 147.47 204H144.305V196.5H145.61V199.2H147.47ZM151.055 196.5H152.36V204H151.055V196.5ZM147.47 202.785C147.84 202.785 148.15 202.68 148.4 202.47C148.66 202.25 148.79 201.96 148.79 201.6C148.79 201.24 148.66 200.95 148.4 200.73C148.15 200.51 147.84 200.4 147.47 200.4H145.61V202.785H147.47ZM160.864 204H159.334L157.234 201.165L155.119 204H153.589L156.469 200.145L153.754 196.5H155.299L157.234 199.11L159.169 196.5H160.699L157.999 200.13L160.864 204ZM173.324 196.5V204H172.049V198.555L169.664 202.395H169.499L167.114 198.555V204H165.824V196.5H167.219L169.574 200.295L171.929 196.5H173.324ZM176.231 200.85C176.361 201.52 176.666 202.04 177.146 202.41C177.636 202.78 178.236 202.965 178.946 202.965C179.936 202.965 180.656 202.6 181.106 201.87L182.216 202.5C181.486 203.63 180.386 204.195 178.916 204.195C177.726 204.195 176.756 203.825 176.006 203.085C175.266 202.335 174.896 201.39 174.896 200.25C174.896 199.12 175.261 198.18 175.991 197.43C176.721 196.68 177.666 196.305 178.826 196.305C179.926 196.305 180.821 196.695 181.511 197.475C182.211 198.245 182.561 199.175 182.561 200.265C182.561 200.455 182.546 200.65 182.516 200.85H176.231ZM178.826 197.535C178.126 197.535 177.546 197.735 177.086 198.135C176.626 198.525 176.341 199.05 176.231 199.71H181.241C181.131 199 180.851 198.46 180.401 198.09C179.951 197.72 179.426 197.535 178.826 197.535ZM187.572 204.195C186.442 204.195 185.502 203.82 184.752 203.07C184.002 202.31 183.627 201.37 183.627 200.25C183.627 199.13 184.002 198.195 184.752 197.445C185.502 196.685 186.442 196.305 187.572 196.305C188.312 196.305 188.977 196.485 189.567 196.845C190.157 197.195 190.597 197.67 190.887 198.27L189.792 198.9C189.602 198.5 189.307 198.18 188.907 197.94C188.517 197.7 188.072 197.58 187.572 197.58C186.822 197.58 186.192 197.835 185.682 198.345C185.182 198.855 184.932 199.49 184.932 200.25C184.932 201 185.182 201.63 185.682 202.14C186.192 202.65 186.822 202.905 187.572 202.905C188.072 202.905 188.522 202.79 188.922 202.56C189.322 202.32 189.627 202 189.837 201.6L190.947 202.245C190.627 202.835 190.167 203.31 189.567 203.67C188.967 204.02 188.302 204.195 187.572 204.195ZM197.698 196.5V197.76H195.148V204H193.843V197.76H191.278V196.5H197.698Z" fill="black"/>
<path d="M40.645 226V225.28L44.5 221.32C45.63 220.15 46.195 219.16 46.195 218.35C46.195 217.65 45.975 217.1 45.535 216.7C45.095 216.3 44.545 216.1 43.885 216.1C42.715 216.1 41.88 216.63 41.38 217.69L40.705 217.285C41.015 216.655 41.445 216.175 41.995 215.845C42.555 215.505 43.185 215.335 43.885 215.335C44.735 215.335 45.465 215.605 46.075 216.145C46.695 216.685 47.005 217.42 47.005 218.35C47.005 218.95 46.83 219.535 46.48 220.105C46.14 220.665 45.66 221.26 45.04 221.89L41.785 225.235H47.245V226H40.645ZM60.3092 218.5V226H59.5442V219.64L56.7392 224.065H56.6342L53.8142 219.61V226H53.0642V218.5H53.9492L56.6792 222.805L59.4092 218.5H60.3092ZM65.99 218.335C67.09 218.335 67.98 218.725 68.66 219.505C69.35 220.285 69.695 221.21 69.695 222.28C69.695 222.32 69.69 222.38 69.68 222.46C69.68 222.54 69.68 222.6 69.68 222.64H62.885C62.975 223.48 63.31 224.16 63.89 224.68C64.48 225.19 65.205 225.445 66.065 225.445C66.665 225.445 67.19 225.32 67.64 225.07C68.09 224.82 68.43 224.49 68.66 224.08L69.32 224.47C69.01 224.99 68.57 225.405 68 225.715C67.43 226.015 66.78 226.165 66.05 226.165C64.9 226.165 63.955 225.8 63.215 225.07C62.475 224.33 62.105 223.39 62.105 222.25C62.105 221.13 62.465 220.2 63.185 219.46C63.915 218.71 64.85 218.335 65.99 218.335ZM65.99 219.055C65.14 219.055 64.43 219.32 63.86 219.85C63.29 220.38 62.965 221.065 62.885 221.905H68.915C68.835 221.015 68.515 220.32 67.955 219.82C67.405 219.31 66.75 219.055 65.99 219.055ZM74.883 226.165C73.753 226.165 72.813 225.79 72.063 225.04C71.313 224.29 70.938 223.36 70.938 222.25C70.938 221.14 71.313 220.21 72.063 219.46C72.813 218.71 73.753 218.335 74.883 218.335C75.613 218.335 76.273 218.51 76.863 218.86C77.453 219.2 77.883 219.665 78.153 220.255L77.538 220.615C77.318 220.135 76.968 219.755 76.488 219.475C76.018 219.195 75.483 219.055 74.883 219.055C73.983 219.055 73.228 219.365 72.618 219.985C72.008 220.595 71.703 221.35 71.703 222.25C71.703 223.15 72.008 223.91 72.618 224.53C73.228 225.14 73.983 225.445 74.883 225.445C75.483 225.445 76.018 225.305 76.488 225.025C76.968 224.745 77.333 224.365 77.583 223.885L78.213 224.26C77.913 224.84 77.463 225.305 76.863 225.655C76.273 225.995 75.613 226.165 74.883 226.165ZM84.9597 218.5V219.235H82.2297V226H81.4797V219.235H78.7497V218.5H84.9597ZM92.6232 218.5H93.3882V226H92.6232V224.305C92.3032 224.885 91.8632 225.34 91.3032 225.67C90.7432 226 90.1082 226.165 89.3982 226.165C88.3282 226.165 87.4132 225.79 86.6532 225.04C85.8932 224.28 85.5132 223.35 85.5132 222.25C85.5132 221.15 85.8932 220.225 86.6532 219.475C87.4132 218.715 88.3282 218.335 89.3982 218.335C90.1082 218.335 90.7432 218.5 91.3032 218.83C91.8632 219.16 92.3032 219.615 92.6232 220.195V218.5ZM87.1932 224.515C87.8132 225.135 88.5682 225.445 89.4582 225.445C90.3482 225.445 91.0982 225.135 91.7082 224.515C92.3182 223.895 92.6232 223.14 92.6232 222.25C92.6232 221.36 92.3182 220.605 91.7082 219.985C91.0982 219.365 90.3482 219.055 89.4582 219.055C88.5682 219.055 87.8132 219.365 87.1932 219.985C86.5832 220.605 86.2782 221.36 86.2782 222.25C86.2782 223.14 86.5832 223.895 87.1932 224.515Z" fill="black"/>
<path d="M48.76 267H47.05L42.52 261.96V267H41.125V256.5H42.52V261.24L46.9 256.5H48.61L43.975 261.6L48.76 267ZM55.5231 266.055C54.7531 266.815 53.8181 267.195 52.7181 267.195C51.6181 267.195 50.6831 266.815 49.9131 266.055C49.1531 265.295 48.7731 264.36 48.7731 263.25C48.7731 262.14 49.1531 261.205 49.9131 260.445C50.6831 259.685 51.6181 259.305 52.7181 259.305C53.8181 259.305 54.7531 259.685 55.5231 260.445C56.2931 261.205 56.6781 262.14 56.6781 263.25C56.6781 264.36 56.2931 265.295 55.5231 266.055ZM52.7181 265.92C53.4681 265.92 54.0981 265.665 54.6081 265.155C55.1181 264.645 55.3731 264.01 55.3731 263.25C55.3731 262.49 55.1181 261.855 54.6081 261.345C54.0981 260.835 53.4681 260.58 52.7181 260.58C51.9781 260.58 51.3531 260.835 50.8431 261.345C50.3331 261.855 50.0781 262.49 50.0781 263.25C50.0781 264.01 50.3331 264.645 50.8431 265.155C51.3531 265.665 51.9781 265.92 52.7181 265.92ZM64.2079 259.5V267H62.9029V260.76H59.9479V263.82C59.9479 265.05 59.6979 265.91 59.1979 266.4C58.7079 266.88 58.0129 267.08 57.1129 267V265.77C57.6229 265.84 58.0029 265.73 58.2529 265.44C58.5129 265.14 58.6429 264.59 58.6429 263.79V259.5H64.2079ZM66.3203 263.025V261.765H71.7953V263.025H66.3203ZM78.9 263.145C79.67 263.465 80.055 264.045 80.055 264.885C80.055 265.505 79.845 266.015 79.425 266.415C79.015 266.805 78.425 267 77.655 267H73.905V259.5H77.355C78.105 259.5 78.685 259.69 79.095 260.07C79.505 260.44 79.71 260.93 79.71 261.54C79.71 262.26 79.44 262.795 78.9 263.145ZM77.295 260.67H75.18V262.635H77.295C78.055 262.635 78.435 262.3 78.435 261.63C78.435 260.99 78.055 260.67 77.295 260.67ZM77.58 265.815C77.96 265.815 78.25 265.725 78.45 265.545C78.66 265.365 78.765 265.11 78.765 264.78C78.765 264.47 78.66 264.23 78.45 264.06C78.25 263.88 77.96 263.79 77.58 263.79H75.18V265.815H77.58ZM87.7936 266.055C87.0236 266.815 86.0886 267.195 84.9886 267.195C83.8886 267.195 82.9536 266.815 82.1836 266.055C81.4236 265.295 81.0436 264.36 81.0436 263.25C81.0436 262.14 81.4236 261.205 82.1836 260.445C82.9536 259.685 83.8886 259.305 84.9886 259.305C86.0886 259.305 87.0236 259.685 87.7936 260.445C88.5636 261.205 88.9486 262.14 88.9486 263.25C88.9486 264.36 88.5636 265.295 87.7936 266.055ZM84.9886 265.92C85.7386 265.92 86.3686 265.665 86.8786 265.155C87.3886 264.645 87.6436 264.01 87.6436 263.25C87.6436 262.49 87.3886 261.855 86.8786 261.345C86.3686 260.835 85.7386 260.58 84.9886 260.58C84.2486 260.58 83.6236 260.835 83.1136 261.345C82.6036 261.855 82.3486 262.49 82.3486 263.25C82.3486 264.01 82.6036 264.645 83.1136 265.155C83.6236 265.665 84.2486 265.92 84.9886 265.92ZM100.582 267H98.9621L95.5421 263.445V267H94.2371V259.5H95.5421V262.815L98.7821 259.5H100.462L96.8771 263.13L100.582 267ZM107.437 266.055C106.667 266.815 105.732 267.195 104.632 267.195C103.532 267.195 102.597 266.815 101.827 266.055C101.067 265.295 100.687 264.36 100.687 263.25C100.687 262.14 101.067 261.205 101.827 260.445C102.597 259.685 103.532 259.305 104.632 259.305C105.732 259.305 106.667 259.685 107.437 260.445C108.207 261.205 108.592 262.14 108.592 263.25C108.592 264.36 108.207 265.295 107.437 266.055ZM104.632 265.92C105.382 265.92 106.012 265.665 106.522 265.155C107.032 264.645 107.287 264.01 107.287 263.25C107.287 262.49 107.032 261.855 106.522 261.345C106.012 260.835 105.382 260.58 104.632 260.58C103.892 260.58 103.267 260.835 102.757 261.345C102.247 261.855 101.992 262.49 101.992 263.25C101.992 264.01 102.247 264.645 102.757 265.155C103.267 265.665 103.892 265.92 104.632 265.92ZM117.631 259.5V267H116.356V261.555L113.971 265.395H113.806L111.421 261.555V267H110.131V259.5H111.526L113.881 263.295L116.236 259.5H117.631ZM124.813 259.5H126.118V267H124.813V263.865H120.928V267H119.623V259.5H120.928V262.62H124.813V259.5ZM134.314 259.5H135.619V267H134.314V265.71C133.664 266.7 132.719 267.195 131.479 267.195C130.429 267.195 129.534 266.815 128.794 266.055C128.054 265.285 127.684 264.35 127.684 263.25C127.684 262.15 128.054 261.22 128.794 260.46C129.534 259.69 130.429 259.305 131.479 259.305C132.719 259.305 133.664 259.8 134.314 260.79V259.5ZM131.644 265.935C132.404 265.935 133.039 265.68 133.549 265.17C134.059 264.65 134.314 264.01 134.314 263.25C134.314 262.49 134.059 261.855 133.549 261.345C133.039 260.825 132.404 260.565 131.644 260.565C130.894 260.565 130.264 260.825 129.754 261.345C129.244 261.855 128.989 262.49 128.989 263.25C128.989 264.01 129.244 264.65 129.754 265.17C130.264 265.68 130.894 265.935 131.644 265.935ZM143.176 259.5V260.76H140.626V267H139.321V260.76H136.756V259.5H143.176Z" fill="black"/>
<path d="M40.645 289V288.28L44.5 284.32C45.63 283.15 46.195 282.16 46.195 281.35C46.195 280.65 45.975 280.1 45.535 279.7C45.095 279.3 44.545 279.1 43.885 279.1C42.715 279.1 41.88 279.63 41.38 280.69L40.705 280.285C41.015 279.655 41.445 279.175 41.995 278.845C42.555 278.505 43.185 278.335 43.885 278.335C44.735 278.335 45.465 278.605 46.075 279.145C46.695 279.685 47.005 280.42 47.005 281.35C47.005 281.95 46.83 282.535 46.48 283.105C46.14 283.665 45.66 284.26 45.04 284.89L41.785 288.235H47.245V289H40.645Z" fill="black"/>
<path d="M48.745 319.5V330H47.35V320.82H42.52V330H41.125V319.5H48.745ZM57.118 322.5V330H55.813V323.76H52.858V326.82C52.858 328.05 52.608 328.91 52.108 329.4C51.618 329.88 50.923 330.08 50.023 330V328.77C50.533 328.84 50.913 328.73 51.163 328.44C51.423 328.14 51.553 327.59 51.553 326.79V322.5H57.118ZM65.4255 329.055C64.6555 329.815 63.7205 330.195 62.6205 330.195C61.5205 330.195 60.5855 329.815 59.8155 329.055C59.0555 328.295 58.6755 327.36 58.6755 326.25C58.6755 325.14 59.0555 324.205 59.8155 323.445C60.5855 322.685 61.5205 322.305 62.6205 322.305C63.7205 322.305 64.6555 322.685 65.4255 323.445C66.1955 324.205 66.5805 325.14 66.5805 326.25C66.5805 327.36 66.1955 328.295 65.4255 329.055ZM62.6205 328.92C63.3705 328.92 64.0005 328.665 64.5105 328.155C65.0205 327.645 65.2755 327.01 65.2755 326.25C65.2755 325.49 65.0205 324.855 64.5105 324.345C64.0005 323.835 63.3705 323.58 62.6205 323.58C61.8805 323.58 61.2555 323.835 60.7455 324.345C60.2355 324.855 59.9805 325.49 59.9805 326.25C59.9805 327.01 60.2355 327.645 60.7455 328.155C61.2555 328.665 61.8805 328.92 62.6205 328.92ZM78.3189 328.755H79.3539V332.01H78.0639V330H68.1189V322.5H69.4239V328.755H72.5739V322.5H73.8789V328.755H77.0139V322.5H78.3189V328.755ZM86.6775 322.5H87.9825V330H86.6775V328.71C86.0275 329.7 85.0825 330.195 83.8425 330.195C82.7925 330.195 81.8975 329.815 81.1575 329.055C80.4175 328.285 80.0475 327.35 80.0475 326.25C80.0475 325.15 80.4175 324.22 81.1575 323.46C81.8975 322.69 82.7925 322.305 83.8425 322.305C85.0825 322.305 86.0275 322.8 86.6775 323.79V322.5ZM84.0075 328.935C84.7675 328.935 85.4025 328.68 85.9125 328.17C86.4225 327.65 86.6775 327.01 86.6775 326.25C86.6775 325.49 86.4225 324.855 85.9125 324.345C85.4025 323.825 84.7675 323.565 84.0075 323.565C83.2575 323.565 82.6275 323.825 82.1175 324.345C81.6075 324.855 81.3525 325.49 81.3525 326.25C81.3525 327.01 81.6075 327.65 82.1175 328.17C82.6275 328.68 83.2575 328.935 84.0075 328.935ZM96.4097 328.755H97.4447V332.01H96.1547V330H90.5297V332.01H89.2397V328.755H90.1547C90.6347 328.095 90.8747 327.17 90.8747 325.98V322.5H96.4097V328.755ZM91.6397 328.755H95.1197V323.715H92.1647V325.98C92.1647 327.1 91.9897 328.025 91.6397 328.755ZM102.016 325.2C102.766 325.2 103.386 325.425 103.876 325.875C104.376 326.315 104.626 326.89 104.626 327.6C104.626 328.31 104.376 328.89 103.876 329.34C103.386 329.78 102.766 330 102.016 330H98.8513V322.5H100.156V325.2H102.016ZM102.016 328.785C102.386 328.785 102.696 328.68 102.946 328.47C103.206 328.25 103.336 327.96 103.336 327.6C103.336 327.24 103.206 326.95 102.946 326.73C102.696 326.51 102.386 326.4 102.016 326.4H100.156V328.785H102.016ZM114.969 322.5H116.274V330H114.969V326.865H111.084V330H109.779V322.5H111.084V325.62H114.969V322.5ZM124.591 329.055C123.821 329.815 122.886 330.195 121.786 330.195C120.686 330.195 119.751 329.815 118.981 329.055C118.221 328.295 117.841 327.36 117.841 326.25C117.841 325.14 118.221 324.205 118.981 323.445C119.751 322.685 120.686 322.305 121.786 322.305C122.886 322.305 123.821 322.685 124.591 323.445C125.361 324.205 125.746 325.14 125.746 326.25C125.746 327.36 125.361 328.295 124.591 329.055ZM121.786 328.92C122.536 328.92 123.166 328.665 123.676 328.155C124.186 327.645 124.441 327.01 124.441 326.25C124.441 325.49 124.186 324.855 123.676 324.345C123.166 323.835 122.536 323.58 121.786 323.58C121.046 323.58 120.421 323.835 119.911 324.345C119.401 324.855 119.146 325.49 119.146 326.25C119.146 327.01 119.401 327.645 119.911 328.155C120.421 328.665 121.046 328.92 121.786 328.92ZM134.784 322.5V330H133.509V324.555L131.124 328.395H130.959L128.574 324.555V330H127.284V322.5H128.679L131.034 326.295L133.389 322.5H134.784ZM137.691 326.85C137.821 327.52 138.126 328.04 138.606 328.41C139.096 328.78 139.696 328.965 140.406 328.965C141.396 328.965 142.116 328.6 142.566 327.87L143.676 328.5C142.946 329.63 141.846 330.195 140.376 330.195C139.186 330.195 138.216 329.825 137.466 329.085C136.726 328.335 136.356 327.39 136.356 326.25C136.356 325.12 136.721 324.18 137.451 323.43C138.181 322.68 139.126 322.305 140.286 322.305C141.386 322.305 142.281 322.695 142.971 323.475C143.671 324.245 144.021 325.175 144.021 326.265C144.021 326.455 144.006 326.65 143.976 326.85H137.691ZM140.286 323.535C139.586 323.535 139.006 323.735 138.546 324.135C138.086 324.525 137.801 325.05 137.691 325.71H142.701C142.591 325 142.311 324.46 141.861 324.09C141.411 323.72 140.886 323.535 140.286 323.535ZM149.661 322.305C150.711 322.305 151.606 322.69 152.346 323.46C153.086 324.22 153.456 325.15 153.456 326.25C153.456 327.35 153.086 328.285 152.346 329.055C151.606 329.815 150.711 330.195 149.661 330.195C148.421 330.195 147.476 329.7 146.826 328.71V333H145.521V322.5H146.826V323.79C147.476 322.8 148.421 322.305 149.661 322.305ZM149.496 328.935C150.246 328.935 150.876 328.68 151.386 328.17C151.896 327.65 152.151 327.01 152.151 326.25C152.151 325.49 151.896 324.855 151.386 324.345C150.876 323.825 150.246 323.565 149.496 323.565C148.736 323.565 148.101 323.825 147.591 324.345C147.081 324.855 146.826 325.49 146.826 326.25C146.826 327.01 147.081 327.65 147.591 328.17C148.101 328.68 148.736 328.935 149.496 328.935ZM161.223 322.5H162.528V330H161.223V328.71C160.573 329.7 159.628 330.195 158.388 330.195C157.338 330.195 156.443 329.815 155.703 329.055C154.963 328.285 154.593 327.35 154.593 326.25C154.593 325.15 154.963 324.22 155.703 323.46C156.443 322.69 157.338 322.305 158.388 322.305C159.628 322.305 160.573 322.8 161.223 323.79V322.5ZM158.553 328.935C159.313 328.935 159.948 328.68 160.458 328.17C160.968 327.65 161.223 327.01 161.223 326.25C161.223 325.49 160.968 324.855 160.458 324.345C159.948 323.825 159.313 323.565 158.553 323.565C157.803 323.565 157.173 323.825 156.663 324.345C156.153 324.855 155.898 325.49 155.898 326.25C155.898 327.01 156.153 327.65 156.663 328.17C157.173 328.68 157.803 328.935 158.553 328.935Z" fill="black"/>
<path d="M44.35 345.865C45.23 345.955 45.955 346.27 46.525 346.81C47.095 347.35 47.38 348.07 47.38 348.97C47.38 349.95 47.045 350.73 46.375 351.31C45.705 351.88 44.885 352.165 43.915 352.165C43.135 352.165 42.445 351.99 41.845 351.64C41.245 351.29 40.82 350.8 40.57 350.17L41.23 349.78C41.42 350.3 41.75 350.7 42.22 350.98C42.69 351.26 43.255 351.4 43.915 351.4C44.695 351.4 45.335 351.18 45.835 350.74C46.335 350.3 46.585 349.71 46.585 348.97C46.585 348.23 46.33 347.64 45.82 347.2C45.32 346.76 44.675 346.54 43.885 346.54V346.525L43.87 346.54H43.66L43.315 346.015L45.97 342.25H40.84V341.5H46.885V342.25L44.35 345.865ZM56.4524 349.045V349.795H55.1024V352H54.3074V349.795H48.6524V349.045L52.6424 341.5H53.5124L49.5374 349.045H54.3074V345.745H55.1024V349.045H56.4524ZM69.2301 344.5V352H68.4651V345.64L65.6601 350.065H65.5551L62.7351 345.61V352H61.9851V344.5H62.8701L65.6001 348.805L68.3301 344.5H69.2301ZM74.9709 345.76H70.7409V344.95L72.4659 343.27C72.8759 342.88 73.1809 342.565 73.3809 342.325C73.5909 342.075 73.7309 341.855 73.8009 341.665C73.8809 341.465 73.9209 341.255 73.9209 341.035C73.9209 340.715 73.8259 340.475 73.6359 340.315C73.4559 340.155 73.2159 340.075 72.9159 340.075C72.6159 340.075 72.3409 340.135 72.0909 340.255C71.8509 340.365 71.6009 340.52 71.3409 340.72L70.8159 340.03C71.1059 339.78 71.4209 339.58 71.7609 339.43C72.1109 339.28 72.5009 339.205 72.9309 339.205C73.5709 339.205 74.0709 339.365 74.4309 339.685C74.8009 339.995 74.9859 340.425 74.9859 340.975C74.9859 341.305 74.9159 341.61 74.7759 341.89C74.6459 342.16 74.4509 342.44 74.1909 342.73C73.9409 343.01 73.6309 343.325 73.2609 343.675L72.0459 344.83H74.9709V345.76Z" fill="black"/>
<rect x="10" y="177" width="350" height="1" fill="#D9D9D9"/>
<rect x="10" y="240" width="350" height="1" fill="#D9D9D9"/>
<rect x="10" y="303" width="350" height="1" fill="#D9D9D9"/>
<defs>
<clipPath id="clip0_10720_734">
<rect width="17" height="17" fill="white" transform="translate(39 70)"/>
</clipPath>
</defs>
</svg>
