<svg width="22" height="22" viewBox="0 0 22 22" fill="none" xmlns="http://www.w3.org/2000/svg">
<path d="M15.3758 0.0625C15.22 0.0625 15.0938 0.188737 15.0938 0.344596C15.0938 0.500455 15.22 0.626691 15.3758 0.626691C17.6148 0.626691 19.4359 2.44778 19.4359 4.68677C19.4359 4.84218 19.5617 4.96841 19.7176 4.96841C19.8734 4.96841 19.9997 4.84218 19.9997 4.68677C19.9997 2.13697 17.9252 0.0625 15.3758 0.0625Z" fill="#236CAE"/>
<path d="M15.3758 2.58203C15.22 2.58203 15.0938 2.70827 15.0938 2.86413C15.0938 3.01999 15.22 3.14622 15.3758 3.14622C16.224 3.14622 16.9135 3.83619 16.9135 4.6843C16.9135 4.83971 17.0402 4.96594 17.1956 4.96594C17.3519 4.96594 17.4772 4.83971 17.4772 4.6843C17.4772 3.52539 16.5343 2.58203 15.3758 2.58203Z" fill="#236CAE"/>
<path d="M15.3758 1.37891C15.22 1.37891 15.0938 1.50514 15.0938 1.661C15.0938 1.81641 15.22 1.94264 15.3758 1.94264C16.8889 1.94264 18.1198 3.17402 18.1198 4.68704C18.1198 4.84244 18.246 4.96868 18.4019 4.96868C18.5573 4.96868 18.6835 4.84244 18.6835 4.68704C18.6835 2.86276 17.1992 1.37891 15.3758 1.37891Z" fill="#236CAE"/>
<path d="M2.79318 6.96875C2.78589 6.97695 2.77632 6.98242 2.76902 6.99017C1.08055 8.76386 2.2577 12.6266 5.39903 15.6185C5.78822 15.989 6.18881 16.328 6.59532 16.6352L3.69506 21.9371H9.78632L7.30716 17.1324C9.94446 18.8582 12.698 19.2347 14.0788 17.8821C12.6296 17.7608 9.96907 16.1316 7.3655 13.6525C4.64799 11.0648 2.84878 8.36783 2.79318 6.96875Z" fill="#236CAE"/>
<path d="M14.7674 5.19137L10.8185 9.21545C8.06686 6.72808 5.25729 5.44612 4.4069 6.33889C3.51276 7.27815 5.12513 10.2645 8.00761 13.0098C10.8901 15.7551 13.9517 17.2189 14.8458 16.2792C15.7149 15.3669 14.2123 12.5208 11.4816 9.84116L15.4182 5.82939C15.5946 5.64983 15.5918 5.36136 15.4118 5.18499C15.2323 5.00908 14.9438 5.01136 14.7674 5.19137Z" fill="#236CAE"/>
</svg>
