<svg width="22" height="22" viewBox="0 0 22 22" fill="none" xmlns="http://www.w3.org/2000/svg">
<path fill-rule="evenodd" clip-rule="evenodd" d="M18.9412 13.9127H11.5289C11.383 13.9127 11.2647 13.7921 11.2647 13.6492V11.795H10.7353V13.6492C10.7353 13.7947 10.6169 13.9127 10.4711 13.9127H3.05882V19.472C3.05882 19.6178 2.9392 19.7362 2.79164 19.7362H2.26719C2.11736 19.7362 2 19.6186 2 19.4734V11.2656C2 11.1194 2.05926 10.9871 2.15506 10.8913C2.25087 10.7955 2.38322 10.7362 2.52941 10.7362H19.4706C19.763 10.7362 20 10.9732 20 11.2656V19.4734C20 19.6165 19.8804 19.7362 19.7328 19.7362H19.2084C19.0585 19.7362 18.9412 19.6179 18.9412 19.472V13.9127ZM4.38235 10.2068C4.08997 10.2068 3.85294 9.96978 3.85294 9.67739V2.79504C3.85294 2.50265 4.08997 2.26562 4.38235 2.26562H8.08824C8.38062 2.26562 8.61765 2.50265 8.61765 2.79504V9.67739C8.61765 9.96978 8.38062 10.2068 8.08824 10.2068H4.38235ZM7.02941 4.12105C7.02941 3.97348 6.91003 3.85386 6.76715 3.85386H5.70344C5.5586 3.85386 5.44118 3.97122 5.44118 4.12105V4.38079C5.44118 4.52835 5.56055 4.64798 5.70344 4.64798H6.76715C6.91199 4.64798 7.02941 4.53062 7.02941 4.38079V4.12105ZM7.02941 5.97399C7.02941 5.82642 6.91003 5.7068 6.76715 5.7068H5.70344C5.5586 5.7068 5.44118 5.82416 5.44118 5.97399V6.23373C5.44118 6.3813 5.56055 6.50092 5.70344 6.50092H6.76715C6.91199 6.50092 7.02941 6.38356 7.02941 6.23373V5.97399ZM6.23529 8.61857C6.52768 8.61857 6.76471 8.38154 6.76471 8.08915C6.76471 7.79677 6.52768 7.55974 6.23529 7.55974C5.94291 7.55974 5.70588 7.79677 5.70588 8.08915C5.70588 8.38154 5.94291 8.61857 6.23529 8.61857ZM15.2353 9.95941C15.2353 10.1063 15.1157 10.2233 14.9681 10.2233H14.4437C14.2938 10.2233 14.1765 10.1051 14.1765 9.95941V8.88327H11.2647C10.9723 8.88327 10.7353 8.64625 10.7353 8.35386V4.11857C10.7353 3.82618 10.9723 3.58915 11.2647 3.58915H18.1471C18.4394 3.58915 18.6765 3.82618 18.6765 4.11857V8.35386C18.6765 8.64625 18.4394 8.88327 18.1471 8.88327H15.2353V9.95941Z" fill="#236CAE"/>
</svg>
