<svg width="22" height="22" viewBox="0 0 22 22" fill="none" xmlns="http://www.w3.org/2000/svg">
<path d="M1.02103 17.3883C1.06455 17.5624 1.16347 17.7169 1.3023 17.8276C1.44114 17.9383 1.61206 17.9989 1.78831 18H20.2031C20.38 18 20.5518 17.9401 20.6916 17.8295C20.8313 17.719 20.931 17.5642 20.975 17.3896C21.019 17.2149 21.0047 17.0303 20.9344 16.8648C20.8641 16.6994 20.7418 16.5624 20.5867 16.4756L11.7925 11.4613V10.1075C12.41 9.90048 12.9455 9.49591 13.3194 8.95388C13.6934 8.41185 13.8858 7.76128 13.8681 7.09885C13.8799 6.70289 13.8149 6.30846 13.6767 5.93819C13.5386 5.56791 13.3301 5.22909 13.0633 4.94117C12.7964 4.65324 12.4764 4.42189 12.1215 4.26038C11.7667 4.09887 11.3841 4.01038 10.9957 4C10.6038 4.01028 10.2179 4.10004 9.86042 4.26406C9.50295 4.42808 9.18112 4.66306 8.91371 4.95528C8.64631 5.2475 8.43869 5.59111 8.30298 5.96604C8.16727 6.34097 8.10619 6.73971 8.12331 7.13897C8.12331 7.35441 8.20726 7.56103 8.35668 7.71337C8.50611 7.86571 8.70878 7.95129 8.9201 7.95129C9.13142 7.95129 9.33409 7.86571 9.48352 7.71337C9.63295 7.56103 9.71689 7.35441 9.71689 7.13897C9.69535 6.77075 9.81785 6.40883 10.0575 6.13251C10.2972 5.85619 10.6346 5.68799 10.9957 5.66476C11.355 5.68802 11.6908 5.85481 11.9302 6.12894C12.1696 6.40307 12.2934 6.7624 12.2745 7.12894C12.296 7.49716 12.1736 7.85908 11.9339 8.1354C11.6942 8.41172 11.3568 8.57992 10.9957 8.60315C10.7844 8.60315 10.5817 8.68874 10.4323 8.84108C10.2829 8.99342 10.1989 9.20003 10.1989 9.41547V11.4814L1.40467 16.4957C1.25465 16.5822 1.13616 16.7159 1.06699 16.8768C0.997824 17.0377 0.981697 17.2172 1.02103 17.3883ZM10.9957 12.8954L17.1241 16.3754H4.86728L10.9957 12.8954Z" fill="#236CAE"/>
</svg>
