<svg width="22" height="22" viewBox="0 0 22 22" fill="none" xmlns="http://www.w3.org/2000/svg">
<path d="M17.6761 1.83594H4.98776C4.90225 1.83619 4.82032 1.87026 4.75986 1.93073C4.69939 1.99119 4.66532 2.07312 4.66507 2.15863C4.66208 3.28134 4.66652 18.9191 4.66828 19.5841C4.66813 19.6265 4.67638 19.6685 4.69254 19.7078C4.70871 19.747 4.73247 19.7826 4.76246 19.8126C4.79246 19.8426 4.82809 19.8664 4.86731 19.8825C4.90652 19.8987 4.94855 19.9069 4.99097 19.9068H6.27206C6.31448 19.9069 6.35651 19.8987 6.39573 19.8825C6.43494 19.8664 6.47058 19.8426 6.50057 19.8126C6.53056 19.7826 6.55433 19.747 6.57049 19.7078C6.58666 19.6685 6.5949 19.6265 6.59476 19.5841V18.0642H16.0239V19.5841C16.0241 19.6696 16.0582 19.7515 16.1187 19.812C16.1791 19.8724 16.2611 19.9065 16.3466 19.9068H17.6728C17.7152 19.9069 17.7573 19.8987 17.7965 19.8825C17.8357 19.8664 17.8713 19.8426 17.9013 19.8126C17.9313 19.7826 17.9551 19.747 17.9713 19.7078C17.9874 19.6685 17.9957 19.6265 17.9955 19.5841C17.9926 18.9839 18.0039 3.2123 17.9987 2.15863C17.9985 2.07313 17.9644 1.99119 17.9039 1.93073C17.8435 1.87027 17.7616 1.83619 17.6761 1.83594ZM17.0274 3.03313V16.9509C17.0276 16.9933 17.0193 17.0354 17.0032 17.0746C16.987 17.1138 16.9633 17.1494 16.9333 17.1794C16.9033 17.2094 16.8676 17.2332 16.8284 17.2493C16.7892 17.2655 16.7472 17.2738 16.7047 17.2736H5.92678C5.84127 17.2734 5.75934 17.2393 5.69888 17.1788C5.63841 17.1183 5.60434 17.0364 5.60409 16.9509V3.03313C5.60434 2.94763 5.63842 2.8657 5.69888 2.80523C5.75935 2.74477 5.84128 2.71069 5.92678 2.71044H16.7047C16.7472 2.71029 16.7892 2.71853 16.8284 2.7347C16.8676 2.75086 16.9033 2.77462 16.9333 2.80462C16.9633 2.83461 16.987 2.87024 17.0032 2.90946C17.0194 2.94868 17.0276 2.99071 17.0274 3.03313Z" fill="#236CAE"/>
<path d="M11.6387 16.6279H16.3823V3.35547H11.6387V16.6279ZM12.0033 8.8219C12.0036 8.73639 12.0377 8.65446 12.0981 8.594C12.1586 8.53354 12.2405 8.49946 12.326 8.49921H13.2296C13.3151 8.49946 13.397 8.53354 13.4574 8.594C13.5179 8.65446 13.552 8.73639 13.5522 8.8219V10.5483C13.552 10.6338 13.5179 10.7157 13.4574 10.7762C13.397 10.8367 13.3151 10.8707 13.2296 10.871H12.326C12.2405 10.8707 12.1586 10.8367 12.0981 10.7762C12.0377 10.7157 12.0036 10.6338 12.0033 10.5483V8.8219Z" fill="#236CAE"/>
<path d="M6.24902 16.6279H10.9926V3.35547H6.24902V16.6279ZM8.92093 8.8219C8.92118 8.73639 8.95525 8.65446 9.01572 8.594C9.07618 8.53353 9.15811 8.49945 9.24362 8.49921H10.1472C10.2327 8.49946 10.3146 8.53354 10.3751 8.594C10.4355 8.65446 10.4696 8.73639 10.4699 8.8219V10.5483C10.4696 10.6338 10.4355 10.7157 10.3751 10.7762C10.3146 10.8367 10.2327 10.8707 10.1472 10.871H9.24362C9.15811 10.8708 9.07618 10.8367 9.01572 10.7762C8.95525 10.7158 8.92117 10.6338 8.92093 10.5483V8.8219Z" fill="#236CAE"/>
<path d="M12.9066 9.14062H12.6484V10.2217H12.9066V9.14062Z" fill="#236CAE"/>
<path d="M9.82456 9.14062H9.56641V10.2217H9.82456V9.14062Z" fill="#236CAE"/>
</svg>
