<svg width="22" height="22" viewBox="0 0 22 22" fill="none" xmlns="http://www.w3.org/2000/svg">
<path fill-rule="evenodd" clip-rule="evenodd" d="M4 7.28541V13.7142H7.20455L12.0212 18.5308V2.46875L7.20455 7.28541H4Z" fill="#236CAE"/>
<path fill-rule="evenodd" clip-rule="evenodd" d="M16.9954 5.75435C16.3859 5.12523 15.4423 6.0689 16.0517 6.69802C18.1947 8.84094 18.1947 12.3207 16.0517 14.4637C15.4226 15.0928 16.3859 16.0364 16.9954 15.4073C19.6691 12.7532 19.6691 8.40842 16.9954 5.75435Z" fill="#236CAE"/>
<path fill-rule="evenodd" clip-rule="evenodd" d="M15.3631 7.38325C14.7339 6.75414 13.8099 7.69781 14.4194 8.32692C15.658 9.56549 15.658 11.5905 14.4194 12.829C13.7903 13.4581 14.7339 14.4018 15.3631 13.7727C17.1324 12.0033 17.1324 9.15264 15.3631 7.38325Z" fill="#236CAE"/>
<path fill-rule="evenodd" clip-rule="evenodd" d="M13.7312 9.01734C13.1021 8.40788 12.1584 9.35155 12.7875 9.96101C13.1218 10.2952 13.1218 10.8654 12.7875 11.1996C12.1584 11.8287 13.1218 12.7527 13.7312 12.1433C14.5963 11.2782 14.5963 9.88237 13.7312 9.01734Z" fill="#236CAE"/>
</svg>
