<svg width="15" height="15" viewBox="0 0 15 15" fill="none" xmlns="http://www.w3.org/2000/svg">
<path d="M0.2 14C0.2 14.4418 0.558172 14.8 1 14.8H8.2C8.64183 14.8 9 14.4418 9 14C9 13.5582 8.64183 13.2 8.2 13.2H1.8L1.8 6.8C1.8 6.35817 1.44183 6 1 6C0.558172 6 0.2 6.35817 0.2 6.8L0.2 14ZM14.8 1C14.8 0.558172 14.4418 0.2 14 0.2L6.8 0.2C6.35817 0.2 6 0.558172 6 1C6 1.44183 6.35817 1.8 6.8 1.8L13.2 1.8V8.2C13.2 8.64183 13.5582 9 14 9C14.4418 9 14.8 8.64183 14.8 8.2V1ZM1.56569 14.5657L14.5657 1.56569L13.4343 0.434315L0.434315 13.4343L1.56569 14.5657Z" fill="#236CAE"/>
</svg>
