<svg width="30" height="26" viewBox="0 0 30 26" fill="none" xmlns="http://www.w3.org/2000/svg">
<g clip-path="url(#clip0_10673_619)">
<path fill-rule="evenodd" clip-rule="evenodd" d="M24.7142 15.94H5.42852C5.99994 11.3812 10.1428 7.70473 15.1428 7.70473C20.1428 7.70473 24.2857 11.3812 24.7142 15.94ZM14.5714 4.76356V6.08709C8.57137 6.3812 3.71423 11.0871 3.71423 16.6753C3.71423 17.1165 4.1428 17.5577 4.57137 17.5577H25.7142C25.9416 17.5577 26.1596 17.4647 26.3203 17.2992C26.4811 17.1338 26.5714 16.9093 26.5714 16.6753C26.5714 10.793 21.7142 6.23415 15.7142 5.94003V4.91062C16.4285 4.46944 17.1428 3.73415 17.1428 2.85179C17.1428 2.58142 17.0911 2.3137 16.9906 2.06391C16.8901 1.81413 16.7427 1.58716 16.557 1.39598C16.3713 1.2048 16.1508 1.05315 15.9082 0.949687C15.6655 0.846222 15.4054 0.792969 15.1428 0.792969C14.8802 0.792969 14.6201 0.846222 14.3774 0.949687C14.1348 1.05315 13.9143 1.2048 13.7286 1.39598C13.5429 1.58716 13.3956 1.81413 13.295 2.06391C13.1945 2.3137 13.1428 2.58142 13.1428 2.85179C13.1428 3.73415 13.7142 4.46944 14.5714 4.76356ZM3.57137 22.8518L4.42852 20.793H25.8571L26.5714 22.8518H3.57137ZM27.1428 19.6165C27.0812 19.4361 26.9642 19.2811 26.8097 19.175C26.6551 19.0689 26.4712 19.0174 26.2857 19.0283H3.85709C3.69622 19.0469 3.54376 19.112 3.41735 19.2161C3.29094 19.3202 3.19575 19.459 3.1428 19.6165L1.42852 23.44C1.38113 23.5772 1.36746 23.7244 1.38873 23.8683C1.41 24.0123 1.46555 24.1485 1.55042 24.265C1.63528 24.3815 1.74684 24.4746 1.87512 24.5359C2.00341 24.5972 2.14445 24.6249 2.28566 24.6165H27.9999C28.129 24.6021 28.2532 24.5578 28.3631 24.4869C28.4731 24.4159 28.566 24.3202 28.6347 24.2069C28.7035 24.0936 28.7464 23.9657 28.7602 23.8329C28.774 23.7 28.7582 23.5657 28.7142 23.44L27.1428 19.6165ZM29.2857 13.44C28.4285 10.2047 26.5714 7.55767 23.8571 5.49885C23.7914 5.46023 23.719 5.43529 23.644 5.42548C23.569 5.41566 23.4928 5.42115 23.4198 5.44163C23.3469 5.46212 23.2786 5.49719 23.2188 5.54486C23.159 5.59252 23.1089 5.65185 23.0714 5.71944C23.0338 5.78703 23.0096 5.86157 23.0001 5.9388C22.9906 6.01602 22.9959 6.09443 23.0158 6.16954C23.0357 6.24464 23.0698 6.31498 23.1161 6.37653C23.1624 6.43808 23.22 6.48964 23.2857 6.52826C25.7142 8.29297 27.5714 10.94 28.1428 13.7341C28.1807 13.8902 28.2772 14.0243 28.4112 14.107C28.5451 14.1898 28.7055 14.2143 28.8571 14.1753C29.0086 14.1363 29.1389 14.0369 29.2193 13.899C29.2997 13.7612 29.3235 13.596 29.2857 13.44ZM2.1428 13.7341C2.71423 10.793 4.57137 8.29297 6.99994 6.3812C7.08109 6.27687 7.1253 6.14721 7.1253 6.01356C7.1253 5.87991 7.08109 5.75024 6.99994 5.64591C6.89859 5.56238 6.77263 5.51687 6.6428 5.51687C6.51297 5.51687 6.38701 5.56238 6.28566 5.64591C3.67472 7.4754 1.75723 10.1765 0.857088 13.293C0.834849 13.3814 0.83294 13.474 0.851513 13.5634C0.870085 13.6528 0.908628 13.7364 0.964085 13.8078C1.01954 13.8792 1.09039 13.9362 1.171 13.9745C1.25162 14.0128 1.33979 14.0312 1.42852 14.0283C1.55828 14.0325 1.68558 13.9911 1.78944 13.9109C1.89331 13.8307 1.96755 13.7165 1.99994 13.5871" fill="#292F37" fill-opacity="0.58"/>
</g>
<defs>
<clipPath id="clip0_10673_619">
<rect width="30" height="25" fill="white" transform="translate(0 0.5)"/>
</clipPath>
</defs>
</svg>
