<svg width="38" height="26" viewBox="0 0 38 26" fill="none" xmlns="http://www.w3.org/2000/svg">
<path fill-rule="evenodd" clip-rule="evenodd" d="M36.2462 2.74905L35.9539 2.89349C35.5898 3.08662 35.2713 3.35383 35.0194 3.6775C34.7674 4.00118 34.5878 4.37396 34.4923 4.77127L33.3231 11.2713C33.3231 11.849 33.3231 12.4268 33.9077 12.8602L35.0769 14.1602V23.1157C35.0694 23.1728 35.0793 23.2308 35.1053 23.2822C35.1314 23.3337 35.1724 23.3763 35.2231 23.4046H36.5385L36.8308 23.1157V2.89349C36.8385 2.8396 36.8306 2.78465 36.8081 2.73498C36.7856 2.68532 36.7493 2.64295 36.7035 2.61276C36.6577 2.58257 36.6041 2.56578 36.5491 2.56434C36.494 2.5629 36.4397 2.57685 36.3923 2.6046M3.65386 2.6046V8.67127C3.65386 9.39349 3.2154 9.82682 2.77693 9.82682C2.33847 9.82682 1.90001 9.39349 1.90001 8.67127V2.89349C1.6577 2.87346 1.41383 2.90345 1.18388 2.98154C0.953926 3.05964 0.742916 3.18414 0.564247 3.34713C0.385579 3.51013 0.243156 3.70806 0.146022 3.92836C0.0488875 4.14866 -0.000835256 4.38652 1.06136e-05 4.62682V8.96016C1.06136e-05 10.2602 0.73078 11.4157 1.75386 11.849V23.1157C1.75386 23.1157 1.75386 23.4046 2.04616 23.4046H3.2154L3.5077 23.1157V11.5602C4.53078 11.2713 5.26155 10.1157 5.26155 8.67127V4.62682C5.26155 4.16711 5.07677 3.72623 4.74786 3.40117C4.41895 3.07611 3.97285 2.89349 3.5077 2.89349M19 23.1157C16.2866 23.1157 13.6844 22.0504 11.7658 20.1542C9.84713 18.258 8.76924 15.6862 8.76924 13.0046C8.76924 10.323 9.84713 7.75117 11.7658 5.85497C13.6844 3.95876 16.2866 2.89349 19 2.89349C21.7134 2.89349 24.3156 3.95876 26.2343 5.85497C28.1529 7.75117 29.2308 10.323 29.2308 13.0046C29.2308 15.6862 28.1529 18.258 26.2343 20.1542C24.3156 22.0504 21.7134 23.1157 19 23.1157ZM19 1.16016C15.8021 1.16016 12.7352 2.41566 10.4739 4.65047C8.21268 6.88528 6.94232 9.91633 6.94232 13.0768C6.94232 16.2373 8.21268 19.2684 10.4739 21.5032C12.7352 23.738 15.8021 24.9935 19 24.9935C22.1979 24.9935 25.2648 23.738 27.5261 21.5032C29.7873 19.2684 31.0577 16.2373 31.0577 13.0768C31.0577 9.91633 29.7873 6.88528 27.5261 4.65047C25.2648 2.41566 22.1979 1.16016 19 1.16016Z" fill="#292F37" fill-opacity="0.58"/>
<path fill-rule="evenodd" clip-rule="evenodd" d="M18.9996 19.2146C17.3583 19.1769 15.797 18.5058 14.6499 17.3451C13.5027 16.1844 12.8607 14.626 12.8611 13.0035C12.8983 11.406 13.557 9.88421 14.7002 8.75436C15.8434 7.6245 17.3832 6.97354 18.9996 6.93681C20.6414 6.93637 22.2181 7.57089 23.3926 8.70464C24.5671 9.83839 25.246 11.3813 25.2842 13.0035C25.2842 14.6508 24.6221 16.2306 23.4435 17.3954C22.2649 18.5602 20.6664 19.2146 18.9996 19.2146ZM18.9996 5.78125C17.0615 5.78125 15.2027 6.54216 13.8323 7.89659C12.4618 9.25102 11.6919 11.088 11.6919 13.0035C11.6724 13.964 11.8471 14.9187 12.2056 15.8117C12.5642 16.7047 13.0994 17.518 13.7799 18.204C14.4604 18.89 15.2726 19.4349 16.1689 19.8069C17.0651 20.1788 18.0275 20.3703 18.9996 20.3701C19.9715 20.3894 20.9375 20.2167 21.841 19.8624C22.7446 19.5081 23.5675 18.9791 24.2616 18.3066C24.9558 17.634 25.5072 16.8313 25.8835 15.9455C26.2599 15.0597 26.4536 14.1086 26.4534 13.1479C26.4729 12.1874 26.2982 11.2327 25.9397 10.3397C25.5811 9.44673 25.046 8.63342 24.3654 7.9474C23.6849 7.26138 22.8727 6.71644 21.9764 6.34449C21.0802 5.97254 20.1178 5.78106 19.1457 5.78125" fill="#292F37" fill-opacity="0.58"/>
</svg>
