<svg width="31" height="26" viewBox="0 0 31 26" fill="none" xmlns="http://www.w3.org/2000/svg">
<path fill-rule="evenodd" clip-rule="evenodd" d="M16.9082 22.5584C16.7368 22.7499 16.5296 22.9025 16.2993 23.0069C16.069 23.1113 15.8206 23.1651 15.5696 23.1651C15.3185 23.1651 15.0701 23.1113 14.8399 23.0069C14.6096 22.9025 14.4023 22.7499 14.231 22.5584C14.0033 22.4026 13.8119 22.1959 13.6704 21.9531C13.529 21.7104 13.4412 21.4379 13.4133 21.1553C13.3855 20.8727 13.4183 20.5872 13.5095 20.3196C13.6006 20.0519 13.7478 19.8088 13.9402 19.6079C14.1327 19.4071 14.3656 19.2535 14.6221 19.1584C14.8786 19.0632 15.1521 19.0289 15.4229 19.058C15.6937 19.0871 15.9548 19.1787 16.1874 19.3263C16.4199 19.474 16.618 19.6738 16.7673 19.9113C17.4719 20.6466 17.4719 21.9702 16.7673 22.5584M13.1037 18.7349C12.4582 19.4221 12.0967 20.3461 12.0967 21.3084C12.0967 22.2707 12.4582 23.1947 13.1037 23.8819C13.7479 24.5301 14.6043 24.8982 15.4991 24.9113C16.3446 24.9113 17.331 24.6172 18.0355 23.8819C18.5443 23.1739 18.7913 22.2982 18.7312 21.4154C18.6711 20.5327 18.3079 19.7022 17.7083 19.0764C17.1087 18.4506 16.3129 18.0716 15.467 18.0088C14.6212 17.9461 13.7821 18.2039 13.1037 18.7349ZM8.87641 14.9113C8.72692 15.0868 8.65036 15.3171 8.66357 15.5516C8.67679 15.786 8.77869 16.0053 8.94686 16.1613C9.11503 16.3173 9.3357 16.3972 9.56032 16.3835C9.78493 16.3697 9.9951 16.2633 10.1446 16.0878C10.8527 15.3364 11.6971 14.7396 12.6285 14.3322C13.5599 13.9248 14.5597 13.715 15.5696 13.715C16.5795 13.715 17.5793 13.9248 18.5107 14.3322C19.4421 14.7396 20.2864 15.3364 20.9946 16.0878C21.1524 16.1664 21.3296 16.1921 21.5019 16.1612C21.6742 16.1304 21.8331 16.0445 21.9568 15.9155C22.0804 15.7865 22.1627 15.6206 22.1922 15.4408C22.2218 15.261 22.1972 15.076 22.1219 14.9113C21.2566 13.9954 20.2256 13.2681 19.0886 12.7716C17.9517 12.2752 16.7316 12.0195 15.4991 12.0195C14.2667 12.0195 13.0466 12.2752 11.9096 12.7716C10.7727 13.2681 9.74164 13.9954 8.87641 14.9113Z" fill="#292F37" fill-opacity="0.58"/>
<path fill-rule="evenodd" clip-rule="evenodd" d="M5.21332 11.3805C5.06383 11.556 4.98728 11.7863 5.00049 12.0207C5.0137 12.2552 5.1156 12.4745 5.28377 12.6305C5.45194 12.7865 5.67261 12.8664 5.89723 12.8526C6.12185 12.8388 6.33201 12.7325 6.4815 12.557C8.88215 10.0784 12.1228 8.6881 15.4997 8.6881C18.8766 8.6881 22.1172 10.0784 24.5179 12.557C24.5919 12.6439 24.6816 12.7147 24.7818 12.7655C24.8821 12.8162 24.9909 12.8458 25.1021 12.8526C25.2134 12.8595 25.3248 12.8434 25.43 12.8052C25.5353 12.7671 25.6323 12.7078 25.7156 12.6305C25.7989 12.5533 25.8667 12.4597 25.9153 12.355C25.9639 12.2504 25.9923 12.1368 25.9989 12.0207C26.0054 11.9047 25.99 11.7884 25.9535 11.6785C25.917 11.5687 25.8601 11.4674 25.786 11.3805C20.1497 5.49816 10.8497 5.49816 5.21332 11.3805Z" fill="#292F37" fill-opacity="0.58"/>
<path fill-rule="evenodd" clip-rule="evenodd" d="M29.4499 7.85373C27.6225 5.93543 25.4486 4.41472 23.054 3.37973C20.6593 2.34474 18.0917 1.81605 15.4999 1.82431C10.2862 1.82431 5.35442 3.88314 1.54988 7.70667C1.34433 7.88218 1.21402 8.13572 1.18759 8.4115C1.16116 8.68729 1.2408 8.96274 1.40897 9.17726C1.57714 9.39177 1.82007 9.52777 2.08433 9.55535C2.34859 9.58293 2.61252 9.49982 2.81806 9.32431C4.45012 7.51194 6.41261 6.05803 8.59035 5.04791C10.7681 4.03778 13.1172 3.49179 15.4999 3.44196C20.2908 3.44196 24.7999 5.35373 28.1817 8.88314C28.3125 9.07815 28.5122 9.21095 28.7368 9.25232C28.9614 9.29368 29.1926 9.24023 29.3794 9.10373C29.5663 8.96722 29.6935 8.75883 29.7332 8.52441C29.7728 8.28999 29.7216 8.04874 29.5908 7.85373" fill="#292F37" fill-opacity="0.58"/>
</svg>
