<svg width="33" height="32" viewBox="0 0 33 32" fill="none" xmlns="http://www.w3.org/2000/svg">
<path fill-rule="evenodd" clip-rule="evenodd" d="M31.5651 22.9788C29.9868 22.9788 28.9824 23.706 28.1216 24.2879C27.1172 24.8697 26.2564 25.4515 24.5346 25.4515C22.6694 25.4515 21.6651 24.8697 20.8042 24.2879C19.7998 23.5606 18.7955 22.8333 16.4998 22.8333C14.4911 22.8333 13.3433 23.5606 12.339 24.2879C11.3065 25.0737 10.0427 25.4837 8.75201 25.4515C7.03027 25.4515 6.02592 24.8697 5.16505 24.2879C4.1607 23.706 3.29983 23.1242 1.57809 22.8333C1.42588 22.8333 1.27991 22.8946 1.17228 23.0037C1.06465 23.1128 1.00418 23.2608 1.00418 23.4151C0.982801 23.4916 0.977097 23.5717 0.987421 23.6504C0.997745 23.7292 1.02388 23.805 1.06421 23.8732C1.10454 23.9413 1.15821 24.0003 1.22192 24.0467C1.28562 24.093 1.35801 24.1255 1.43462 24.1424C2.8694 24.1424 3.73027 24.7242 4.44766 25.306C5.45201 25.8879 6.59983 26.7606 8.75201 26.7606C10.9042 26.7606 12.052 25.8879 13.0564 25.306C14.0699 24.4681 15.3355 24.0062 16.6433 23.9969C18.3651 23.9969 19.2259 24.5788 20.2303 25.306C21.2346 25.8879 22.3824 26.7606 24.5346 26.7606C26.5433 26.7606 27.6911 25.8879 28.839 25.306C29.5564 24.7242 30.2737 24.1424 31.7085 24.1424C31.7976 24.1453 31.8862 24.1271 31.9672 24.0892C32.0481 24.0514 32.1193 23.9949 32.175 23.9243C32.2307 23.8538 32.2694 23.771 32.288 23.6826C32.3067 23.5942 32.3048 23.5026 32.2824 23.4151C32.2824 23.1242 31.9955 22.9788 31.7085 22.9788M12.4824 19.6333C11.6216 20.3606 10.7607 20.9424 9.03897 20.9424C8.1781 20.9424 7.60418 20.7969 6.88679 20.506C6.81858 20.4459 6.7373 20.4029 6.64959 20.3806C6.56187 20.3583 6.47021 20.3573 6.38206 20.3778C6.29391 20.3982 6.21178 20.4395 6.14235 20.4982C6.07292 20.557 6.01817 20.6315 5.98255 20.7158C5.94693 20.8 5.93145 20.8916 5.93738 20.9831C5.94331 21.0746 5.97047 21.1633 6.01666 21.2421C6.06285 21.3209 6.12675 21.3876 6.20316 21.4366C6.27957 21.4856 6.36633 21.5156 6.45636 21.5242C7.17375 21.9606 8.03462 22.106 9.03897 22.106C11.1911 22.106 12.1955 21.3788 13.1998 20.6515C14.0607 20.0697 14.9216 19.4879 16.6433 19.4879C16.7955 19.4879 16.9415 19.4266 17.0491 19.3174C17.1568 19.2083 17.2172 19.0603 17.2172 18.906C17.2172 18.7517 17.1568 18.6037 17.0491 18.4946C16.9415 18.3855 16.7955 18.3242 16.6433 18.3242C14.4911 18.3242 13.4868 19.0515 12.4824 19.7788M21.952 20.506C21.8311 20.4945 21.7096 20.5222 21.6052 20.5851C21.5007 20.648 21.4187 20.7429 21.3708 20.8561C21.3229 20.9693 21.3118 21.095 21.3388 21.2151C21.3659 21.3351 21.4299 21.4434 21.5216 21.5242C22.239 21.9606 22.9564 22.106 23.9607 22.106C25.9694 22.106 27.1172 21.3788 27.9781 20.6515C28.839 20.0697 29.5564 19.6333 30.8477 19.4879C30.9999 19.4879 31.1458 19.4266 31.2535 19.3174C31.3611 19.2083 31.4216 19.0603 31.4216 18.906C31.4216 18.7517 31.3611 18.6037 31.2535 18.4946C31.1458 18.3855 30.9999 18.3242 30.8477 18.3242C29.1259 18.4697 28.2651 19.1969 27.4042 19.7788C26.3998 20.3606 25.6824 20.9424 23.9607 20.9424C23.0998 20.9424 22.5259 20.7969 21.952 20.506ZM29.1259 28.0697L28.1216 28.6515C27.0891 29.4374 25.8253 29.8473 24.5346 29.8151C22.6694 29.8151 21.6651 29.2333 20.8042 28.6515C19.7998 28.0697 18.7955 27.1969 16.4998 27.1969C14.4911 27.1969 13.3433 28.0697 12.339 28.6515C11.4781 29.2333 10.6172 29.8151 8.75201 29.8151C6.88679 29.8151 6.02592 29.2333 5.16505 28.6515C4.79208 28.4386 4.40901 28.2444 4.01723 28.0697C3.88404 27.9925 3.72608 27.9722 3.57809 28.0131C3.4301 28.054 3.3042 28.1528 3.22809 28.2879C3.15199 28.4229 3.13191 28.583 3.17227 28.733C3.21263 28.8831 3.31013 29.0107 3.44331 29.0879L4.44766 29.6697C5.45201 30.2515 6.59983 31.1242 8.75201 31.1242C10.9042 31.1242 12.052 30.2515 13.0564 29.6697C14.0889 28.8838 15.3526 28.4738 16.6433 28.506C18.3651 28.506 19.2259 29.0879 20.2303 29.6697C21.2346 30.2515 22.3824 31.1242 24.5346 31.1242C26.5433 31.1242 27.6911 30.2515 28.839 29.6697L29.6998 29.0879C29.7899 29.0793 29.8766 29.0493 29.953 29.0002C30.0294 28.9512 30.0933 28.8846 30.1395 28.8058C30.1857 28.727 30.2129 28.6382 30.2188 28.5467C30.2247 28.4553 30.2093 28.3637 30.1736 28.2794C30.138 28.1951 30.0833 28.1206 30.0138 28.0619C29.9444 28.0031 29.8623 27.9619 29.7741 27.9414C29.686 27.921 29.5943 27.9219 29.5066 27.9442C29.4189 27.9665 29.3376 28.0095 29.2694 28.0697" fill="#292F37" fill-opacity="0.58"/>
<path fill-rule="evenodd" clip-rule="evenodd" d="M5.1651 14.6887H18.3651V10.3251H5.1651V14.6887ZM4.30423 21.2342C4.53255 21.2342 4.75151 21.1423 4.91296 20.9786C5.0744 20.8149 5.1651 20.5929 5.1651 20.3615V15.9978H18.3651V20.3615C18.3651 20.5929 18.4558 20.8149 18.6172 20.9786C18.7787 21.1423 18.9977 21.2342 19.226 21.2342C19.4543 21.2342 19.6733 21.1423 19.8347 20.9786C19.9961 20.8149 20.0868 20.5929 20.0868 20.3615V4.79784C20.0868 4.37349 20.2531 3.96652 20.5491 3.66647C20.8451 3.36641 21.2465 3.19784 21.6651 3.19784C22.0837 3.19784 22.4851 3.36641 22.7811 3.66647C23.0771 3.96652 23.2434 4.37349 23.2434 4.79784C23.2434 5.0293 23.3341 5.25128 23.4955 5.41495C23.6569 5.57862 23.8759 5.67056 24.1042 5.67056C24.3325 5.67056 24.5515 5.57862 24.713 5.41495C24.8744 5.25128 24.9651 5.0293 24.9651 4.79784C24.9651 3.91057 24.6174 3.05964 23.9986 2.43224C23.3797 1.80485 22.5403 1.45238 21.6651 1.45238C20.7899 1.45238 19.9505 1.80485 19.3316 2.43224C18.7128 3.05964 18.3651 3.91057 18.3651 4.79784V9.16147H5.1651V4.79784C5.1651 4.3542 5.33894 3.92874 5.64837 3.61504C5.95781 3.30134 6.37749 3.12511 6.8151 3.12511C7.25271 3.12511 7.67239 3.30134 7.98182 3.61504C8.29126 3.92874 8.4651 4.3542 8.4651 4.79784C8.4651 5.0293 8.5558 5.25128 8.71724 5.41495C8.87869 5.57862 9.09765 5.67056 9.32597 5.67056C9.55428 5.67056 9.77325 5.57862 9.93469 5.41495C10.0961 5.25128 10.1868 5.0293 10.1868 4.79784C10.1873 4.34599 10.0974 3.89875 9.92265 3.48308C9.74791 3.06741 9.49192 2.69193 9.17013 2.37929C8.84833 2.06666 8.4674 1.82335 8.05032 1.66405C7.63324 1.50474 7.18864 1.43274 6.74336 1.45238C5.86814 1.45238 5.02878 1.80485 4.40991 2.43224C3.79104 3.05964 3.44336 3.91057 3.44336 4.79784V20.3615C3.44336 20.5929 3.53406 20.8149 3.6955 20.9786C3.85695 21.1423 4.07591 21.2342 4.30423 21.2342Z" fill="#292F37" fill-opacity="0.58"/>
</svg>
