<svg width="31" height="26" viewBox="0 0 31 26" fill="none" xmlns="http://www.w3.org/2000/svg">
<path fill-rule="evenodd" clip-rule="evenodd" d="M14.2322 23.4423C13.9733 23.5316 13.6995 23.5639 13.4281 23.5372C13.1567 23.5105 12.8935 23.4254 12.6552 23.2872C12.4168 23.149 12.2085 22.9608 12.0434 22.7344C11.8783 22.508 11.76 22.2483 11.6958 21.9718L11.414 20.7953C11.352 20.5199 11.345 20.2341 11.3935 19.9558C11.442 19.6775 11.5449 19.4126 11.6958 19.1776C11.9776 18.5894 12.4004 18.2953 13.1049 18.1482C13.5933 18.0579 14.0964 18.1629 14.514 18.4423C15.0776 18.7365 15.3595 19.1776 15.5004 19.7659L15.7822 20.9423C15.9109 21.4688 15.835 22.027 15.5711 22.4953C15.3071 22.9636 14.8765 23.304 14.3731 23.4423H14.2322ZM7.04583 20.5012L6.76401 21.9718C6.63058 22.4592 6.32954 22.8781 5.91855 23.1482C5.69342 23.3058 5.43959 23.4132 5.17291 23.4638C4.90623 23.5144 4.63241 23.5071 4.36855 23.4423C4.08672 23.4096 3.81495 23.3138 3.57179 23.1616C3.32862 23.0093 3.11977 22.8041 2.95946 22.56C2.69171 22.1242 2.59109 21.5991 2.67765 21.0894L2.95946 19.6188C3.08455 19.1795 3.34651 18.7963 3.70384 18.53C4.06117 18.2636 4.49344 18.1292 4.93219 18.1482H5.49583C5.99925 18.2866 6.42986 18.627 6.69381 19.0953C6.95775 19.5636 7.03364 20.1218 6.90492 20.6482L7.04583 20.5012ZM16.6276 19.4718C16.5374 19.0474 16.366 18.6464 16.1239 18.2926C15.8818 17.9389 15.5739 17.6397 15.2186 17.4129C14.514 16.9718 13.6686 16.8247 12.6822 17.1188C12.4004 17.1188 11.9776 17.2659 11.6958 17.56L10.4276 15.5012C10.8504 15.2071 11.1322 14.6188 11.2731 14.0306C11.8367 11.8247 13.1049 5.94235 13.2458 3.29529C13.2458 2.41293 12.8231 1.8247 12.4004 1.8247L9.15946 12.8541L5.63674 2.11882C5.21401 2.11882 4.93219 2.70705 4.93219 3.58941C5.0731 6.08941 6.48219 11.8247 7.04583 14.0306C7.04583 14.6188 7.46855 15.06 7.75037 15.5012L6.6231 17.2659C6.31783 17.0671 5.98518 16.9183 5.63674 16.8247C5.22958 16.7259 4.80748 16.714 4.39581 16.7898C3.98415 16.8657 3.59144 17.0276 3.24128 17.2659C2.88592 17.4927 2.578 17.7918 2.3359 18.1456C2.0938 18.4993 1.92249 18.9003 1.83219 19.3247L1.55037 20.5012C1.45569 20.9261 1.44432 21.3666 1.51697 21.7962C1.58962 22.2259 1.74477 22.6357 1.9731 23.0012C1.78495 23.0585 1.61744 23.1731 1.49195 23.3303C1.36647 23.4874 1.28869 23.68 1.26855 23.8835C1.26855 24.4718 1.69128 24.9129 2.25492 24.9129C2.47429 24.9224 2.69043 24.8553 2.8691 24.7221C3.04776 24.5889 3.17874 24.3973 3.24128 24.1776L4.08674 24.4718V24.0306V24.6188C4.49431 24.7271 4.91875 24.7477 5.3342 24.6794C5.74965 24.6111 6.14744 24.4552 6.50335 24.2214C6.85926 23.9875 7.16585 23.6805 7.40446 23.319C7.64306 22.9576 7.8087 22.5492 7.89128 22.1188L8.1731 20.9423C8.24765 20.5076 8.2361 20.0614 8.13916 19.6315C8.04222 19.2015 7.86196 18.7968 7.60946 18.4423L9.01855 16.9718C9.86401 17.56 10.5686 18.4423 10.8504 18.4423C10.622 18.8078 10.4669 19.2176 10.3942 19.6473C10.3216 20.0769 10.333 20.5174 10.4276 20.9423L10.7095 22.2659C10.9098 23.0766 11.4034 23.7747 12.0866 24.2135C12.7698 24.6523 13.5894 24.7976 14.3731 24.6188H14.514C14.9264 24.5326 15.3177 24.3598 15.664 24.1107C16.0104 23.8617 16.3045 23.5418 16.5286 23.1703C16.7527 22.7989 16.902 22.3837 16.9675 21.9501C17.033 21.5166 17.0132 21.0736 16.9095 20.6482L16.6276 19.4718ZM29.5913 2.85411L24.9413 1.8247C24.8489 1.79979 24.7519 1.79979 24.6595 1.8247C24.5063 1.7867 24.346 1.7941 24.1966 1.84606C24.0472 1.89803 23.9147 1.99249 23.814 2.11882C22.6259 5.23553 21.821 8.49679 21.4186 11.8247C20.4843 15.4787 19.9176 19.2245 19.7276 23.0012C19.7553 23.1858 19.8385 23.3565 19.9651 23.4886C20.0917 23.6208 20.2553 23.7076 20.4322 23.7365C20.479 23.7426 20.5263 23.7426 20.5731 23.7365L25.364 24.9129C25.438 24.9322 25.515 24.9362 25.5904 24.9244C25.6659 24.9127 25.7384 24.8856 25.8038 24.8446C25.8693 24.8037 25.9263 24.7496 25.9717 24.6857C26.0171 24.6217 26.0501 24.549 26.0686 24.4718C26.0871 24.3945 26.0908 24.3142 26.0796 24.2355C26.0683 24.1567 26.0424 24.081 26.0031 24.0127C25.9639 23.9445 25.9121 23.8849 25.8508 23.8375C25.7895 23.7901 25.7198 23.7558 25.6458 23.7365L21.4186 22.8541L21.5595 20.9423L25.9276 21.8247C26.0017 21.8466 26.0793 21.8525 26.1556 21.8419C26.2319 21.8313 26.3053 21.8045 26.3714 21.7632C26.4374 21.7218 26.4946 21.6668 26.5394 21.6015C26.5843 21.5362 26.6159 21.462 26.6322 21.3835C26.6532 21.3062 26.6588 21.2253 26.6487 21.1456C26.6385 21.066 26.6128 20.9893 26.5732 20.9204C26.5336 20.8515 26.4809 20.7918 26.4184 20.745C26.3558 20.6982 26.2847 20.6653 26.2095 20.6482L21.7004 19.7659L21.9822 17.8541L26.6322 18.8835C26.7817 18.903 26.9325 18.8598 27.0514 18.7632C27.1703 18.6667 27.2476 18.5248 27.2663 18.3688C27.285 18.2128 27.2435 18.0554 27.151 17.9313C27.0585 17.8072 26.9226 17.7266 26.7731 17.7071L22.264 16.6776L22.5458 14.9129L27.1958 15.9423C27.3453 15.9618 27.4961 15.9186 27.615 15.822C27.7339 15.7255 27.8112 15.5836 27.8299 15.4276C27.8486 15.2716 27.8071 15.1143 27.7147 14.9902C27.6222 14.8661 27.4862 14.7854 27.3367 14.7659L22.6867 13.7365L23.1095 12.1188V11.9718L27.7595 12.8541C27.909 12.8736 28.0597 12.8303 28.1787 12.7338C28.2976 12.6373 28.3749 12.4954 28.3936 12.3394C28.4122 12.1834 28.3708 12.026 28.2783 11.9019C28.1858 11.7778 28.0499 11.6971 27.9004 11.6776L23.3913 10.7953L23.6731 8.88352L28.3231 9.91294C28.3972 9.93485 28.4747 9.9407 28.5511 9.93011C28.6274 9.91953 28.7008 9.89275 28.7668 9.85141C28.8328 9.81007 28.89 9.75506 28.9349 9.68976C28.9798 9.62447 29.0113 9.55028 29.0276 9.47176C29.0486 9.39446 29.0542 9.31349 29.0441 9.23385C29.034 9.1542 29.0083 9.07757 28.9687 9.00867C28.9291 8.93978 28.8764 8.88008 28.8138 8.83327C28.7512 8.78645 28.6802 8.7535 28.6049 8.73646L23.9549 7.85411L24.3776 5.94235L28.8867 6.97176C29.0362 7.01076 29.1944 6.98619 29.3266 6.90345C29.4587 6.82072 29.5539 6.68659 29.5913 6.53058C29.6287 6.37457 29.6051 6.20946 29.5258 6.07156C29.4466 5.93367 29.318 5.83429 29.1686 5.79529L24.6595 4.76588L25.2231 3.14823L29.4504 3.88352C29.5244 3.90544 29.602 3.91128 29.6783 3.9007C29.7547 3.89012 29.8281 3.86334 29.8941 3.822C29.9601 3.78066 30.0173 3.72565 30.0622 3.66035C30.107 3.59506 30.1386 3.52086 30.1549 3.44235C30.159 3.30876 30.1193 3.17772 30.0425 3.0708C29.9656 2.96388 29.8562 2.88746 29.7322 2.85411" fill="#292F37" fill-opacity="0.58"/>
</svg>
