<svg width="29" height="29" viewBox="0 0 29 29" fill="none" xmlns="http://www.w3.org/2000/svg">
<g clip-path="url(#clip0_10673_2289)">
<ellipse cx="14.5" cy="14.5" rx="14.5" ry="14.5" fill="#0077FF"/>
<ellipse cx="14.5" cy="14.5" rx="14.5" ry="14.5" fill="url(#paint0_radial_10673_2289)" fill-opacity="0.3"/>
<path d="M15.2285 19.9375C9.65514 19.9375 6.47621 16.1955 6.34375 9.96875H9.13553C9.22723 14.539 11.2853 16.4749 12.9156 16.874V9.96875H15.5444V13.9103C17.1542 13.7407 18.8454 11.9445 19.416 9.96875H22.0448C21.6067 12.4036 19.7727 14.1997 18.4685 14.9381C19.7727 15.5369 21.8615 17.1035 22.6562 19.9375H19.7625C19.141 18.0415 17.5924 16.5747 15.5444 16.3751V19.9375H15.2285Z" fill="white"/>
</g>
<defs>
<radialGradient id="paint0_radial_10673_2289" cx="0" cy="0" r="1" gradientUnits="userSpaceOnUse" gradientTransform="translate(9.27049 5.70492) rotate(55.9679) scale(22.0861)">
<stop stop-color="white"/>
<stop offset="0.697917" stop-color="white" stop-opacity="0"/>
<stop offset="1" stop-color="white" stop-opacity="0"/>
</radialGradient>
<clipPath id="clip0_10673_2289">
<rect width="29" height="29" fill="white"/>
</clipPath>
</defs>
</svg>
