<svg width="22" height="22" viewBox="0 0 22 22" fill="none" xmlns="http://www.w3.org/2000/svg">
<path fill-rule="evenodd" clip-rule="evenodd" d="M17.2857 3C18.2326 3 19 3.7674 19 4.7142V14.4282C19 15.375 18.2326 16.1424 17.2857 16.1424H4.71429C3.76743 16.1424 3 15.375 3 14.4282V4.7142C3 3.7674 3.76743 3 4.71429 3H17.2857ZM5.85714 11.571H7C7.31543 11.571 7.57143 11.3154 7.57143 10.9998C7.57143 10.6842 7.31543 10.4286 7 10.4286H5.85714C5.54171 10.4286 5.28571 10.6842 5.28571 10.9998C5.28571 11.3154 5.54171 11.571 5.85714 11.571ZM9.28571 9.2856H10.4286C10.744 9.2856 11 9.0294 11 8.7138C11 8.3988 10.744 8.1426 10.4286 8.1426H9.28571C8.97029 8.1426 8.71429 8.3988 8.71429 8.7138C8.71429 9.0294 8.97029 9.2856 9.28571 9.2856ZM9.28571 11.571H10.4286C10.744 11.571 11 11.3154 11 10.9998C11 10.6842 10.744 10.4286 10.4286 10.4286H9.28571C8.97029 10.4286 8.71429 10.6842 8.71429 10.9998C8.71429 11.3154 8.97029 11.571 9.28571 11.571ZM9.28571 6.9996H10.4286C10.744 6.9996 11 6.744 11 6.4284C11 6.1128 10.744 5.8572 10.4286 5.8572H9.28571C8.97029 5.8572 8.71429 6.1128 8.71429 6.4284C8.71429 6.744 8.97029 6.9996 9.28571 6.9996ZM14.4286 5.8572C12.8514 5.8572 11.5714 7.137 11.5714 8.7138C11.5714 10.2912 12.8514 11.571 14.4286 11.571C16.0057 11.571 17.2857 10.2912 17.2857 8.7138C17.2857 7.137 16.0057 5.8572 14.4286 5.8572ZM14.4286 6.9996C15.3749 6.9996 16.1429 7.7682 16.1429 8.7138C16.1429 9.66 15.3749 10.4286 14.4286 10.4286C13.4823 10.4286 12.7143 9.66 12.7143 8.7138C12.7143 7.7682 13.4823 6.9996 14.4286 6.9996ZM5.85714 6.9996H7C7.31543 6.9996 7.57143 6.744 7.57143 6.4284C7.57143 6.1128 7.31543 5.8572 7 5.8572H5.85714C5.54171 5.8572 5.28571 6.1128 5.28571 6.4284C5.28571 6.744 5.54171 6.9996 5.85714 6.9996ZM5.85714 9.2856H7C7.31543 9.2856 7.57143 9.0294 7.57143 8.7138C7.57143 8.3988 7.31543 8.1426 7 8.1426H5.85714C5.54171 8.1426 5.28571 8.3988 5.28571 8.7138C5.28571 9.0294 5.54171 9.2856 5.85714 9.2856ZM16.1429 12.714H5.85714C5.54171 12.714 5.28571 12.9702 5.28571 13.2852C5.28571 13.6008 5.54171 13.857 5.85714 13.857H16.1429C16.4583 13.857 16.7143 13.6008 16.7143 13.2852C16.7143 12.9702 16.4583 12.714 16.1429 12.714ZM17.8571 17.2284V17.2854C17.8571 18.2322 17.0897 18.9996 16.1429 18.9996C15.196 18.9996 14.4286 18.2322 14.4286 17.2854H17.2857C17.4811 17.2854 17.6726 17.2656 17.8571 17.2284ZM7.57143 17.2854V17.2866C7.57143 18.2328 6.80457 18.9996 5.85829 18.9996H5.85714C4.91029 18.9996 4.14286 18.2322 4.14286 17.2854V17.2284C4.32743 17.2656 4.51886 17.2854 4.71429 17.2854H7.57143Z" fill="#236CAE"/>
</svg>
