<svg width="22" height="22" viewBox="0 0 22 22" fill="none" xmlns="http://www.w3.org/2000/svg">
<path d="M18.4231 19H4.57692C4.26154 19 4 18.747 4 18.4419C4 18.1367 4.26154 17.8837 4.57692 17.8837H18.4231C18.7385 17.8837 19 18.1367 19 18.4419C19 18.747 18.7385 19 18.4231 19ZM12.0769 9.69767H18.2308V5.04651C18.2308 3.91535 17.2846 3 16.1154 3H12.0769V9.69767ZM10.9231 9.69767V3H6.88462C5.71538 3 4.76923 3.91535 4.76923 5.04651V9.69767H10.9231ZM12.0769 10.814V16.7674H18.2308V10.814H12.0769ZM4.76923 10.814V16.7674H10.9231V10.814H4.76923Z" fill="#236CAE"/>
</svg>
