<svg width="22" height="22" viewBox="0 0 22 22" fill="none" xmlns="http://www.w3.org/2000/svg">
<path d="M18.8786 14.9733C18.825 15.0615 18.7534 15.139 18.6679 15.2012C18.5824 15.2634 18.4848 15.3091 18.3806 15.3358C18.2763 15.3625 18.1675 15.3695 18.0603 15.3566C17.9532 15.3437 17.8497 15.3111 17.756 15.2606L16.1471 14.3942L16.4405 15.4088C16.4689 15.5069 16.4764 15.6093 16.4627 15.7101C16.449 15.8109 16.4143 15.9082 16.3607 15.9965C16.307 16.0847 16.2354 16.1621 16.1499 16.2243C16.0645 16.2865 15.9668 16.3322 15.8626 16.3589C15.7584 16.3855 15.6496 16.3926 15.5424 16.3797C15.4353 16.3668 15.3318 16.3342 15.2381 16.2837C15.1443 16.2332 15.0621 16.1658 14.996 16.0854C14.9299 16.005 14.8813 15.9131 14.853 15.815L14.1277 13.3069L12.3227 12.3349V14.2923L14.2756 16.13C14.3519 16.2019 14.4125 16.2873 14.4539 16.3812C14.4952 16.4751 14.5165 16.5758 14.5165 16.6774C14.5165 16.7791 14.4952 16.8797 14.4539 16.9737C14.4125 17.0676 14.3519 17.1529 14.2756 17.2248C14.1992 17.2967 14.1085 17.3537 14.0087 17.3926C13.9089 17.4315 13.8019 17.4515 13.6939 17.4515C13.5859 17.4515 13.4789 17.4315 13.3791 17.3926C13.2793 17.3537 13.1886 17.2967 13.1122 17.2248L12.3227 16.4819V18.2258C12.3227 18.4311 12.236 18.6281 12.0817 18.7732C11.9275 18.9184 11.7182 19 11.5 19C11.2818 19 11.0725 18.9184 10.9183 18.7732C10.764 18.6281 10.6773 18.4311 10.6773 18.2258V16.4819L9.8878 17.2248C9.73353 17.37 9.52429 17.4515 9.30612 17.4515C9.08795 17.4515 8.87871 17.37 8.72444 17.2248C8.57017 17.0796 8.4835 16.8827 8.4835 16.6774C8.4835 16.4721 8.57017 16.2752 8.72444 16.13L10.6773 14.2923V12.3302L8.86484 13.2995L8.13153 15.8054C8.08363 15.9687 7.98017 16.1128 7.837 16.2154C7.69383 16.3181 7.51884 16.3738 7.33882 16.374C7.26482 16.3739 7.19116 16.3646 7.11975 16.3463C6.90937 16.2917 6.73064 16.1608 6.62286 15.9822C6.51508 15.8037 6.48709 15.5921 6.54504 15.3942L6.8413 14.3816L5.23063 15.2429C5.13671 15.2934 5.03313 15.326 4.92582 15.3388C4.81851 15.3516 4.70957 15.3443 4.60525 15.3174C4.50092 15.2905 4.40326 15.2445 4.31784 15.1821C4.23243 15.1196 4.16095 15.0419 4.10749 14.9535C4.05403 14.865 4.01964 14.7674 4.00629 14.6664C3.99294 14.5654 4.00089 14.4629 4.02969 14.3648C4.0585 14.2667 4.10758 14.1749 4.17413 14.0946C4.24069 14.0144 4.32341 13.9473 4.41756 13.8972L6.02913 13.0354L4.9521 12.7566C4.74184 12.7019 4.56324 12.5709 4.45556 12.3924C4.34788 12.2139 4.31993 12.0025 4.37787 11.8046C4.4358 11.6067 4.57488 11.4385 4.76451 11.3371C4.95415 11.2356 5.17883 11.2092 5.38917 11.2636L8.05248 11.9533L9.83939 10.9978L8.05479 10.0368L5.3897 10.7188C5.28546 10.7454 5.17666 10.7525 5.06951 10.7396C4.96235 10.7267 4.85895 10.6941 4.76519 10.6436C4.67144 10.5931 4.58918 10.5257 4.5231 10.4453C4.45702 10.3649 4.40842 10.273 4.38007 10.1749C4.35172 10.0768 4.34419 9.97442 4.35789 9.87358C4.37159 9.77275 4.40627 9.67544 4.45993 9.58721C4.5136 9.49899 4.5852 9.42158 4.67066 9.35939C4.75612 9.29721 4.85376 9.25147 4.958 9.2248L6.03504 8.94922L4.42669 8.08315C4.23854 7.98058 4.1012 7.81209 4.04468 7.6145C3.98816 7.41691 4.01707 7.20631 4.12509 7.02872C4.23311 6.85113 4.41144 6.72101 4.62112 6.6668C4.83079 6.61259 5.05474 6.63869 5.24401 6.73942L6.8529 7.60575L6.55949 6.59123C6.5025 6.39319 6.53138 6.18197 6.63979 6.00397C6.7482 5.82597 6.92726 5.69574 7.13764 5.64191C7.34802 5.58807 7.57251 5.61503 7.76178 5.71686C7.95105 5.81869 8.08962 5.98706 8.14705 6.18498L8.87228 8.69311L10.6773 9.66507V7.70766L8.72444 5.86996C8.64805 5.79808 8.58746 5.71274 8.54612 5.61882C8.50478 5.5249 8.4835 5.42424 8.4835 5.32258C8.4835 5.22092 8.50478 5.12026 8.54612 5.02634C8.58746 4.93242 8.64805 4.84708 8.72444 4.7752C8.80083 4.70332 8.89151 4.6463 8.99132 4.60739C9.09112 4.56849 9.19809 4.54847 9.30612 4.54847C9.41415 4.54847 9.52112 4.56849 9.62092 4.60739C9.72073 4.6463 9.81141 4.70332 9.8878 4.7752L10.6773 5.51815V3.77419C10.6773 3.56886 10.764 3.37195 10.9183 3.22676C11.0725 3.08157 11.2818 3 11.5 3C11.7182 3 11.9275 3.08157 12.0817 3.22676C12.236 3.37195 12.3227 3.56886 12.3227 3.77419V5.51815L13.1122 4.7752C13.2665 4.63003 13.4757 4.54847 13.6939 4.54847C13.9121 4.54847 14.1213 4.63003 14.2756 4.7752C14.4298 4.92037 14.5165 5.11727 14.5165 5.32258C14.5165 5.52789 14.4298 5.72479 14.2756 5.86996L12.3227 7.70766V9.66976L14.1352 8.70051L14.8685 6.19455C14.8971 6.09647 14.946 6.00466 15.0124 5.92437C15.0787 5.84408 15.1613 5.77688 15.2552 5.72661C15.3492 5.67635 15.4528 5.644 15.5601 5.63141C15.6673 5.61883 15.7762 5.62626 15.8804 5.65328C15.9846 5.68029 16.0821 5.72637 16.1674 5.78887C16.2527 5.85137 16.324 5.92907 16.3774 6.01753C16.4308 6.10599 16.4651 6.20348 16.4784 6.30443C16.4917 6.40537 16.4837 6.5078 16.455 6.60585L16.1587 7.61838L17.7694 6.75706C17.8633 6.70656 17.9669 6.67398 18.0742 6.6612C18.1815 6.64842 18.2904 6.65568 18.3948 6.68257C18.4991 6.70946 18.5967 6.75545 18.6822 6.81791C18.7676 6.88036 18.8391 6.95806 18.8925 7.04654C18.946 7.13503 18.9804 7.23257 18.9937 7.33359C19.0071 7.4346 18.9991 7.53709 18.9703 7.63521C18.9415 7.73332 18.8924 7.82513 18.8259 7.90537C18.7593 7.98561 18.6766 8.05271 18.5824 8.10282L16.9709 8.96462L18.0479 9.24345C18.2398 9.29318 18.4061 9.40672 18.5159 9.56301C18.6256 9.7193 18.6715 9.90775 18.6448 10.0934C18.6182 10.2791 18.521 10.4494 18.3711 10.5727C18.2213 10.696 18.029 10.764 17.8299 10.7641C17.7559 10.764 17.6822 10.7547 17.6108 10.7364L14.9475 10.0467L13.1606 11.0022L14.9452 11.9632L17.6103 11.2813C17.8208 11.2274 18.0455 11.2544 18.2348 11.3564C18.4241 11.4584 18.5627 11.627 18.6199 11.8251C18.6772 12.0232 18.6484 12.2346 18.5401 12.4128C18.4317 12.591 18.2525 12.7213 18.042 12.7752L16.965 13.0508L18.5733 13.9169C18.7626 14.0189 18.9011 14.1875 18.9584 14.3856C19.0156 14.5837 18.9869 14.7951 18.8786 14.9733Z" fill="#236CAE"/>
</svg>
