<svg width="22" height="22" viewBox="0 0 22 22" fill="none" xmlns="http://www.w3.org/2000/svg">
<path d="M4 4V7.45186H11.2042V4H4ZM11.7989 4V7.45186H19V4H11.7989ZM4 8.04967V11.2042H7.35377V8.04967H4ZM7.94851 8.04967V11.2042H15.1251V8.04967H7.94851ZM15.7198 8.04967V11.2042H19V8.04967H15.7198ZM4 11.7989V14.9534H11.2042V11.7989H4ZM11.7989 11.7989V14.9534H19V11.7989H11.7989ZM4 15.5481V19H7.35377V15.5481H4ZM7.94851 15.5481V19H15.1251V15.5481H7.94851ZM15.7198 15.5481V19H19V15.5481H15.7198Z" fill="#236CAE"/>
</svg>
