<svg width="22" height="22" viewBox="0 0 22 22" fill="none" xmlns="http://www.w3.org/2000/svg">
<path d="M1.84473 19.6651C1.84473 19.8896 2.02565 20.0716 2.24969 20.0716C2.473 20.0716 2.65466 19.8893 2.65466 19.6651V13.5898H1.84473V19.6651Z" fill="#236CAE"/>
<path d="M3.46173 9.94948C3.46173 9.72533 3.27988 9.54297 3.05639 9.54297H2.24969C2.02639 9.54297 1.84473 9.72529 1.84473 9.94948V10.356H3.46169L3.46173 9.94948Z" fill="#236CAE"/>
<path d="M13.543 18.8545C13.543 19.0787 13.7246 19.261 13.9479 19.261H17.58V16.8281H13.543V18.8545ZM15.158 17.6415H15.9647C16.1865 17.6415 16.3664 17.8221 16.3664 18.0448C16.3664 18.2675 16.1865 18.448 15.9647 18.448H15.158C14.9361 18.448 14.7562 18.2675 14.7562 18.0448C14.7562 17.8221 14.9361 17.6415 15.158 17.6415Z" fill="#236CAE"/>
<path d="M19.1932 9.94948C19.1932 9.72533 19.0115 9.54297 18.7882 9.54297H17.9815C17.758 9.54297 17.5762 9.72529 17.5762 9.94948V10.356H19.1931V9.94948H19.1932Z" fill="#236CAE"/>
<path d="M10.5183 3.06641C9.07154 3.06641 7.89453 4.24792 7.89453 5.70016V10.3583H13.142V5.70012C13.142 4.24788 11.965 3.06641 10.5183 3.06641Z" fill="#236CAE"/>
<path d="M7.09217 5.69721C7.09217 3.80024 8.62961 2.25692 10.5194 2.25692C12.4091 2.25692 13.9466 3.80024 13.9466 5.69721V10.3554H15.1598V5.68673C15.1598 3.12403 13.0828 1.03906 10.5298 1.03906H10.5089C7.95594 1.03906 5.87891 3.12403 5.87891 5.68676V10.3554H7.09217V5.69721Z" fill="#236CAE"/>
<path d="M18.3838 19.6651C18.3838 19.8896 18.5647 20.0716 18.7888 20.0716C19.0121 20.0716 19.1937 19.8893 19.1937 19.6651V13.5898H18.3838C18.3838 14.2323 18.3838 19.0819 18.3838 19.6651Z" fill="#236CAE"/>
<path d="M19.595 11.1602C17.2235 11.1602 3.57838 11.1602 1.44305 11.1602C1.21975 11.1602 1.03809 11.3425 1.03809 11.5667V12.3765C1.03809 12.6008 1.21971 12.7833 1.44305 12.7833C2.51165 12.7833 18.5855 12.7833 19.595 12.7833C19.8183 12.7833 20 12.6008 20 12.3765V11.5666C20 11.3425 19.8184 11.1602 19.595 11.1602Z" fill="#236CAE"/>
<path d="M13.543 16.0224H17.58V13.5898H13.543V16.0224ZM15.158 14.4029H15.9647C16.1865 14.4029 16.3664 14.5834 16.3664 14.8061C16.3664 15.0288 16.1865 15.2094 15.9647 15.2094H15.158C14.9361 15.2094 14.7562 15.0288 14.7562 14.8061C14.7562 14.5834 14.9361 14.4029 15.158 14.4029Z" fill="#236CAE"/>
</svg>
