<svg width="22" height="22" viewBox="0 0 22 22" fill="none" xmlns="http://www.w3.org/2000/svg">
<path fill-rule="evenodd" clip-rule="evenodd" d="M6.94283 14.7852L8.01734 11.6512H5.20003L4.17769 17.6132C4.16128 17.7089 4.18414 17.8073 4.23983 17.8821C4.29552 17.957 4.37817 18 4.46552 18H5.63793C5.75928 18 5.86831 17.9167 5.91169 17.7903L6.71948 15.4357H16.2805L17.0883 17.7903C17.1317 17.9167 17.2407 18 17.3621 18H18.5345C18.6218 18 18.7045 17.957 18.7602 17.8821C18.8159 17.8073 18.8387 17.7089 18.8223 17.6132L17.8 11.6512H14.9827L16.0572 14.7852H6.94283ZM20 4.32558C20 4.14586 19.8687 4 19.7069 4H3.2931C3.13131 4 3 4.14586 3 4.32558V10.8372C3 11.0169 3.13131 11.1628 3.2931 11.1628H19.7069C19.8687 11.1628 20 11.0169 20 10.8372V4.32558Z" fill="#236CAE"/>
</svg>
