<svg width="22" height="22" viewBox="0 0 22 22" fill="none" xmlns="http://www.w3.org/2000/svg">
<path d="M17.3061 11.807L16.2445 9.32993C16.1721 9.16108 16.0061 9.0516 15.8224 9.0516H5.71916C5.53545 9.0516 5.36941 9.16108 5.29705 9.32993L4.23544 11.807H4.11183C3.60457 11.807 3.19336 11.3958 3.19336 10.8885V4.91847C3.19336 4.41121 3.60457 4 4.11183 4H17.8889C18.3962 4 18.8074 4.41121 18.8074 4.91847V10.8885C18.8074 11.3958 18.3962 11.807 17.8889 11.807H17.3061ZM16.5112 6.75542C16.7648 6.75542 16.9704 6.54981 16.9704 6.29618C16.9704 6.04255 16.7648 5.83695 16.5112 5.83695C16.2576 5.83695 16.052 6.04255 16.052 6.29618C16.052 6.54981 16.2576 6.75542 16.5112 6.75542ZM16.3068 11.807H5.23471L6.02198 9.97007H15.5195L16.3068 11.807ZM10.3115 13.1847C10.3115 12.9311 10.5171 12.7255 10.7708 12.7255C11.0244 12.7255 11.23 12.9311 11.23 13.1847V15.4809C11.23 15.7345 11.0244 15.9401 10.7708 15.9401C10.5171 15.9401 10.3115 15.7345 10.3115 15.4809V13.1847ZM5.71916 13.1847C5.71916 12.9311 5.92477 12.7255 6.1784 12.7255C6.43202 12.7255 6.63763 12.9311 6.63763 13.1847V15.4809C6.63763 15.7345 6.43202 15.9401 6.1784 15.9401C5.92477 15.9401 5.71916 15.7345 5.71916 15.4809V13.1847ZM14.9039 13.1847C14.9039 12.9311 15.1095 12.7255 15.3631 12.7255C15.6168 12.7255 15.8224 12.9311 15.8224 13.1847V15.4809C15.8224 15.7345 15.6168 15.9401 15.3631 15.9401C15.1095 15.9401 14.9039 15.7345 14.9039 15.4809V13.1847ZM12.6077 14.3328C12.6077 14.0792 12.8133 13.8736 13.0669 13.8736C13.3206 13.8736 13.5262 14.0792 13.5262 14.3328V16.629C13.5262 16.8826 13.3206 17.0882 13.0669 17.0882C12.8133 17.0882 12.6077 16.8826 12.6077 16.629V14.3328ZM8.01534 14.3328C8.01534 14.0792 8.22095 13.8736 8.47458 13.8736C8.72821 13.8736 8.93381 14.0792 8.93381 14.3328V16.629C8.93381 16.8826 8.72821 17.0882 8.47458 17.0882C8.22095 17.0882 8.01534 16.8826 8.01534 16.629V14.3328Z" fill="#236CAE"/>
</svg>
