<svg width="22" height="22" viewBox="0 0 22 22" fill="none" xmlns="http://www.w3.org/2000/svg">
<path d="M20 15.0505C20 15.7255 19.4487 16.2739 18.7766 16.2739H3.22344C2.54844 16.2739 2 15.7227 2 15.0505C2 14.3727 2.55125 13.8242 3.22344 13.8242H18.7738C19.4487 13.8242 20 14.3755 20 15.0505Z" fill="#236CAE"/>
<path d="M20.0001 8.64219C20.0001 9.02187 19.6907 9.33125 19.311 9.33125H3.66508C2.84664 9.33125 2.1632 8.735 2.02539 7.95312H19.3138C19.6907 7.95312 20.0001 8.2625 20.0001 8.64219Z" fill="#236CAE"/>
<path d="M19.311 7.37531H2.02539C2.1632 6.59625 2.84945 6 3.66508 6H19.311C19.6907 6 20.0001 6.30938 20.0001 6.68906C20.0001 7.06594 19.6907 7.37531 19.311 7.37531Z" fill="#236CAE"/>
<path d="M2 12.5602C2 12.1805 2.30938 11.8711 2.68906 11.8711H19.9775C19.8397 12.653 19.1534 13.2464 18.3378 13.2464H2.68906C2.30938 13.2436 2 12.937 2 12.5602Z" fill="#236CAE"/>
<path d="M2 10.6003C2 10.2234 2.30938 9.91406 2.68906 9.91406H18.335C19.1534 9.91406 19.8369 10.5075 19.9747 11.2894H2.68906C2.30938 11.2894 2 10.9828 2 10.6003Z" fill="#236CAE"/>
</svg>
