<svg width="22" height="22" viewBox="0 0 22 22" fill="none" xmlns="http://www.w3.org/2000/svg">
<path d="M17.9505 12.1656V13.2335C17.9494 13.9179 17.7606 14.5889 17.4048 15.1735C17.0489 15.7581 16.5396 16.234 15.9322 16.5493L16.2899 17.2648C16.3218 17.3271 16.3411 17.3952 16.3465 17.465C16.3519 17.5348 16.3435 17.605 16.3217 17.6715C16.2998 17.7381 16.265 17.7996 16.2192 17.8526C16.1735 17.9056 16.1176 17.949 16.055 17.9803C15.9811 18.0197 15.8985 18.0399 15.8147 18.039C15.7159 18.0399 15.6188 18.0128 15.5347 17.9608C15.4506 17.9089 15.383 17.8342 15.3395 17.7454L14.9177 16.9017C14.6854 16.9465 14.4495 16.9697 14.2129 16.9711H7.80552C7.56895 16.9697 7.33302 16.9465 7.10071 16.9017L6.6789 17.7454C6.63546 17.8342 6.56779 17.9089 6.4837 17.9608C6.39961 18.0128 6.30253 18.0399 6.20368 18.039C6.11993 18.0399 6.0373 18.0197 5.96341 17.9803C5.90077 17.949 5.84495 17.9056 5.79918 17.8526C5.75342 17.7996 5.7186 17.7381 5.69676 17.6715C5.67491 17.605 5.66647 17.5348 5.67191 17.465C5.67735 17.3952 5.69658 17.3271 5.72847 17.2648L6.08622 16.5493C5.4788 16.234 4.96948 15.7581 4.61363 15.1735C4.25778 14.5889 4.06902 13.9179 4.06789 13.2335V12.1656C4.06832 12.0241 4.12471 11.8886 4.22475 11.7885C4.32479 11.6885 4.46036 11.6321 4.60184 11.6317H17.4166C17.5581 11.6321 17.6936 11.6885 17.7937 11.7885C17.8937 11.8886 17.9501 12.0241 17.9505 12.1656ZM18.2175 9.2289H5.13579V4.12971C5.13651 4.0429 5.15839 3.95759 5.19954 3.88115C5.24069 3.80472 5.29986 3.73947 5.37193 3.69108C5.44399 3.64268 5.52678 3.6126 5.6131 3.60343C5.69942 3.59427 5.78667 3.6063 5.8673 3.63848L6.6255 3.93749C6.49268 4.39827 6.52326 4.8908 6.71204 5.33162C6.90082 5.77244 7.23621 6.13444 7.66136 6.35627L7.55457 6.59654C7.52665 6.66067 7.51168 6.72969 7.51053 6.79962C7.50938 6.86956 7.52208 6.93903 7.54788 7.00404C7.57369 7.06905 7.6121 7.12831 7.66089 7.17842C7.70969 7.22853 7.76792 7.2685 7.83222 7.29602C7.89917 7.3271 7.97199 7.34349 8.0458 7.34407C8.14978 7.3434 8.25137 7.31284 8.33847 7.25603C8.42557 7.19923 8.49449 7.11858 8.53703 7.0237L10.4005 2.74678C10.4572 2.61721 10.46 2.47044 10.4084 2.33876C10.3569 2.20709 10.2551 2.10129 10.1255 2.04464C9.99595 1.988 9.84918 1.98515 9.7175 2.03672C9.58583 2.08829 9.48003 2.19005 9.42339 2.31963L9.3166 2.55456C8.95265 2.42476 8.55983 2.39846 8.18183 2.47859C7.80382 2.55871 7.45545 2.74212 7.17547 3.00842L6.26242 2.64533C6.01972 2.54844 5.75699 2.51243 5.49716 2.54045C5.23734 2.56847 4.98833 2.65966 4.77187 2.80608C4.55541 2.95249 4.37808 3.14967 4.25537 3.3804C4.13266 3.61112 4.06829 3.86838 4.06789 4.12971V9.2289H3.80092C3.5885 9.2289 3.38479 9.31329 3.23458 9.46349C3.08438 9.61369 3 9.81741 3 10.0298C3 10.2422 3.08438 10.446 3.23458 10.5962C3.38479 10.7464 3.5885 10.8307 3.80092 10.8307H18.2175C18.4299 10.8307 18.6336 10.7464 18.7838 10.5962C18.934 10.446 19.0184 10.2422 19.0184 10.0298C19.0184 9.81741 18.934 9.61369 18.7838 9.46349C18.6336 9.31329 18.4299 9.2289 18.2175 9.2289Z" fill="#236CAE"/>
</svg>
