<svg width="22" height="22" viewBox="0 0 22 22" fill="none" xmlns="http://www.w3.org/2000/svg">
<path d="M17.578 6.35164L14.3675 11.7985C14.3675 11.8044 14.3615 11.8044 14.3563 11.8096C14.2096 12.0725 14.0018 12.296 13.7441 12.4538C14.1217 12.6884 14.4002 13.06 14.5201 13.4987L17.26 8.85085L17.8513 7.84995C17.9503 7.6593 17.998 7.47237 17.998 7.27577C17.9987 6.92202 17.8386 6.58846 17.578 6.35164Z" fill="#236CAE"/>
<path d="M17.578 9.3868L14.3675 14.8336L14.3563 14.8448C14.2096 15.1077 14.0018 15.3311 13.7441 15.489C14.1217 15.7236 14.4002 16.0952 14.5201 16.5338L17.8506 10.8851C17.9496 10.6945 17.9973 10.5075 17.9973 10.3109C17.9988 9.95643 17.8386 9.62288 17.578 9.3868Z" fill="#236CAE"/>
<path d="M12.804 15.7617H4.44236C4.1966 15.7617 4 15.9583 4 16.2041C4 16.4498 4.1966 16.6464 4.44236 16.6464H12.4593C12.606 16.6464 12.7319 16.7663 12.7319 16.919C12.7319 17.0717 12.606 17.1916 12.4593 17.1916H4.53025C4.23459 17.1916 4.00002 17.4262 4.00002 17.7218C4.00002 18.0115 4.23461 18.2461 4.53025 18.2461H12.804C13.4884 18.2461 14.0455 17.6876 14.0455 17.0047C14.0455 16.3188 13.4869 15.7617 12.804 15.7617Z" fill="#236CAE"/>
<path d="M12.4593 14.1602H4.53025C4.23459 14.1602 4.00002 14.3948 4.00002 14.6904C4.00002 14.9801 4.23461 15.2147 4.53025 15.2147H12.804C13.4884 15.2147 14.0455 14.6561 14.0455 13.9732C14.0455 13.2851 13.4869 12.7266 12.804 12.7266H4.44236C4.1966 12.7266 4 12.9284 4 13.1689C4 13.4147 4.1966 13.6113 4.44236 13.6113H12.4593C12.606 13.6113 12.7319 13.7312 12.7319 13.8839C12.7319 14.0402 12.606 14.1602 12.4593 14.1602Z" fill="#236CAE"/>
<path d="M12.804 9.69531H4.44236C4.1966 9.69531 4 9.89713 4 10.1377C4 10.3834 4.1966 10.58 4.44236 10.58H12.4593C12.606 10.58 12.7319 10.7059 12.7319 10.8526C12.7319 11.0053 12.606 11.1252 12.4593 11.1252H4.53025C4.23459 11.1252 4.00002 11.3657 4.00002 11.6554C4.00002 11.9451 4.23461 12.1797 4.53025 12.1797H12.804C13.4884 12.1797 14.0455 11.6212 14.0455 10.9382C14.0455 10.2539 13.4869 9.69531 12.804 9.69531Z" fill="#236CAE"/>
<path d="M16.7526 3.00001H8.39685C8.26503 3.00001 8.15108 3.05512 8.07438 3.14672L4.53613 9.14625H12.8048C13.6247 9.14625 14.3151 9.70851 14.5228 10.4637L17.2596 5.82175V5.8158C17.2596 5.80984 17.2656 5.80984 17.2656 5.80984L17.8509 4.8201C17.8509 4.81415 17.8569 4.81415 17.8569 4.80893C17.9559 4.61828 17.9998 4.43732 17.9998 4.2407C17.9991 3.55854 17.4407 3.00001 16.7526 3.00001Z" fill="#236CAE"/>
</svg>
