<svg width="22" height="22" viewBox="0 0 22 22" fill="none" xmlns="http://www.w3.org/2000/svg">
<path d="M6.97168 2.41377C6.97168 2.18525 7.15693 2 7.38545 2H16.4883C16.7168 2 16.9021 2.18525 16.9021 2.41377V19.792C16.9021 20.0205 16.7168 20.2057 16.4883 20.2057H7.38545C7.15693 20.2057 6.97168 20.0205 6.97168 19.792V16.4818C6.97168 16.2533 7.15693 16.0681 7.38545 16.0681H11.9369C14.7092 16.0681 14.7092 11.9304 11.9369 11.9304C10.0887 11.9304 8.57153 11.9304 7.38545 11.9304C7.15693 11.9304 6.97168 11.7451 6.97168 11.5166V2.41377ZM9.04051 4.4826H14.8332C15.0618 4.4826 15.247 4.29735 15.247 4.06883C15.247 3.84032 15.0618 3.65507 14.8332 3.65507H9.04051C8.812 3.65507 8.62675 3.84032 8.62675 4.06883C8.62675 4.29735 8.812 4.4826 9.04051 4.4826ZM8.62675 5.7239V8.2065C8.62675 8.43501 8.812 8.62026 9.04051 8.62026H14.8332C15.0618 8.62026 15.247 8.43501 15.247 8.2065V5.7239C15.247 5.49538 15.0618 5.31013 14.8332 5.31013H9.04051C8.812 5.31013 8.62675 5.49538 8.62675 5.7239ZM9.45428 11.1029C9.91131 11.1029 10.2818 10.7324 10.2818 10.2753C10.2818 9.8183 9.91131 9.4478 9.45428 9.4478C8.99724 9.4478 8.62675 9.8183 8.62675 10.2753C8.62675 10.7324 8.99724 11.1029 9.45428 11.1029ZM14.4195 11.1029C14.8765 11.1029 15.247 10.7324 15.247 10.2753C15.247 9.8183 14.8765 9.4478 14.4195 9.4478C13.9624 9.4478 13.5919 9.8183 13.5919 10.2753C13.5919 10.7324 13.9624 11.1029 14.4195 11.1029ZM11.9369 11.1029C12.3939 11.1029 12.7644 10.7324 12.7644 10.2753C12.7644 9.8183 12.3939 9.4478 11.9369 9.4478C11.4798 9.4478 11.1093 9.8183 11.1093 10.2753C11.1093 10.7324 11.4798 11.1029 11.9369 11.1029ZM11.9369 18.5507C12.3939 18.5507 12.7644 18.1802 12.7644 17.7231C12.7644 17.2661 12.3939 16.8956 11.9369 16.8956C11.4798 16.8956 11.1093 17.2661 11.1093 17.7231C11.1093 18.1802 11.4798 18.5507 11.9369 18.5507Z" fill="#236CAE"/>
<path d="M11.9251 12.7656C13.5968 12.7656 13.5968 15.2732 11.9251 15.2732H3.25378C1.58207 15.2732 1.58207 12.7656 3.25378 12.7656H11.9251Z" fill="#236CAE"/>
</svg>
