<svg width="22" height="22" viewBox="0 0 22 22" fill="none" xmlns="http://www.w3.org/2000/svg">
<path d="M10.9518 13.1655C9.41277 8.83401 11.5524 6.01289 11.8015 5.70539L11.8982 5.58594H5.77568C5.53084 5.58594 5.30217 5.69479 5.14821 5.88456C4.44582 6.75337 2.93965 9.2064 4.11991 13.2113C4.47705 14.4243 4.60202 15.6408 4.49123 16.8267C4.42814 17.5015 4.30396 18.0704 4.12214 18.518C4.09536 18.5849 4.10373 18.6608 4.14441 18.7209C4.18551 18.7817 4.25369 18.8179 4.32666 18.8179H10.5232C10.6739 18.8179 10.8084 18.7262 10.8654 18.5846C11.0536 18.1219 11.1826 17.5351 11.2486 16.8362C11.3737 15.4932 11.2743 14.2594 10.953 13.1692L10.9518 13.1655Z" fill="#236CAE"/>
<path d="M13.7586 11.2934C13.631 11.4317 13.4802 11.5049 13.3225 11.5049C13.1443 11.5049 12.9706 11.4077 12.8331 11.2306C12.6225 10.9648 12.5017 10.548 12.5017 10.0871C12.5017 9.6262 12.6222 9.20985 12.8326 8.94416C12.9704 8.76699 13.1443 8.66931 13.3225 8.66931C13.4802 8.66931 13.631 8.7425 13.7586 8.88085L13.7804 8.90449H15.6737L15.6601 8.81955C15.3563 6.91565 14.395 5.58594 13.3225 5.58594C11.9783 5.58594 10.8848 7.60514 10.8848 10.0871C10.8848 12.5682 11.9783 14.5867 13.3225 14.5867C14.395 14.5867 15.3563 13.2576 15.6601 11.3547L15.6737 11.2697H13.7804L13.7586 11.2934Z" fill="#236CAE"/>
<path d="M17.4869 2.64062H6.14837C5.9432 2.64062 5.74884 2.72112 5.6011 2.86721C5.45465 3.01187 5.37402 3.20637 5.37402 3.41505C5.37402 3.84201 5.72142 4.18933 6.14837 4.18933H16.2315C16.3528 4.18933 16.4515 4.28802 16.4515 4.40933V9.09383C16.4515 9.21514 16.3528 9.31382 16.2315 9.31382H13.0861L13.0662 9.35579C12.9728 9.55344 12.9213 9.81353 12.9213 10.0882C12.9213 10.3607 12.9727 10.6206 13.066 10.8203L13.0858 10.8625H17.4869C17.77 10.8625 18.0003 10.6322 18.0003 10.3492V3.15396C18.0003 2.87094 17.77 2.64062 17.4869 2.64062Z" fill="#236CAE"/>
</svg>
