<svg width="22" height="22" viewBox="0 0 22 22" fill="none" xmlns="http://www.w3.org/2000/svg">
<path d="M18.7123 3.27658L17.8694 3.14453C17.871 3.465 17.8683 8.54999 17.8694 9.03681V9.82141L18.7162 9.68936C18.8071 9.6754 18.89 9.62933 18.9499 9.55949C19.0097 9.48966 19.0426 9.40069 19.0425 9.30872V3.66111C19.0432 3.56794 19.0101 3.47768 18.9494 3.40699C18.8887 3.3363 18.8045 3.28998 18.7123 3.27658Z" fill="#236CAE"/>
<path d="M8.41167 1.00121C5.09654 0.92761 2.39613 4.22804 3.11761 7.48006C3.28031 8.28986 3.62691 9.05145 4.13064 9.70604C4.63437 10.3606 5.28178 10.8907 6.02289 11.2554L7.49888 16.7554C7.98793 16.6469 10.2251 16.1763 10.7616 16.0601L11.5229 15.9009L10.3266 11.4496C10.7479 11.2939 11.1463 11.0823 11.5112 10.8204L17.0928 9.9426V9.15409C17.0948 8.67706 17.0914 3.31599 17.0928 3.02096L11.7754 2.18588C10.823 1.41724 9.63552 0.999022 8.41167 1.00121ZM7.35905 4.70282C9.74295 4.77614 9.73883 8.22888 7.35901 8.30346C4.98414 8.22742 4.98114 4.7769 7.35905 4.70282Z" fill="#236CAE"/>
<path d="M13.8654 20.183C13.3877 19.8179 12.6614 19.8218 11.6709 20.2102C11.5854 20.1792 11.1892 19.9578 10.5794 18.6061C10.9323 18.4214 11.2244 18.1388 11.4207 17.7923C11.6171 17.4458 11.7093 17.05 11.6864 16.6523C11.166 16.7641 9.04162 17.2167 8.48197 17.336L7.71289 17.4991C7.871 17.9216 8.16325 18.2807 8.54487 18.5213C8.9265 18.7619 9.37647 18.8709 9.82588 18.8314C10.4654 20.1785 11.0227 21.1612 11.9117 20.9522C12.9166 20.5257 13.6783 20.5758 13.6052 21.4377C13.5991 21.4882 13.6029 21.5394 13.6166 21.5884C13.6303 21.6374 13.6535 21.6832 13.6849 21.7233C13.7162 21.7633 13.7552 21.7968 13.7995 21.8217C13.8438 21.8467 13.8926 21.8627 13.9431 21.8688C13.9936 21.875 14.0448 21.8711 14.0938 21.8574C14.1428 21.8437 14.1887 21.8205 14.2287 21.7892C14.2687 21.7578 14.3022 21.7188 14.3272 21.6745C14.3521 21.6302 14.3681 21.5814 14.3743 21.5309C14.4038 21.2819 14.373 21.0294 14.2844 20.7948C14.1959 20.5602 14.0522 20.3504 13.8654 20.183Z" fill="#236CAE"/>
</svg>
