<svg width="22" height="22" viewBox="0 0 22 22" fill="none" xmlns="http://www.w3.org/2000/svg">
<path fill-rule="evenodd" clip-rule="evenodd" d="M11 3C9.31029 3 7.83085 3.95975 6.79477 5.41027C6.2532 6.16848 5.82411 7.07029 5.53773 8.06667H5.4C4.07451 8.06667 3 9.14117 3 10.4667V18.4667C3 18.7612 3.23877 19 3.53333 19C3.82789 19 4.06667 18.7612 4.06667 18.4667V17.4H7.47029C8.4332 18.3869 9.64941 19 11 19C12.3506 19 13.5668 18.3869 14.5297 17.4H17.9333V18.4667C17.9333 18.7612 18.1721 19 18.4667 19C18.7612 19 19 18.7612 19 18.4667V10.4667C19 9.14117 17.9255 8.06667 16.6 8.06667H16.4623C16.1759 7.07027 15.7468 6.16848 15.2052 5.41027C14.1691 3.95975 12.6897 3 11 3ZM17.9333 10.4667C17.9333 9.76659 17.3938 9.19253 16.7078 9.13763C16.8119 9.73648 16.8667 10.3602 16.8667 11C16.8667 13.0356 16.312 14.9094 15.3805 16.3333H17.9333V10.4667ZM5.13333 11C5.13333 13.0356 5.68797 14.9094 6.61949 16.3333H4.06667V10.4667C4.06667 9.76659 4.60621 9.19253 5.29216 9.13763C5.18811 9.73648 5.13333 10.3602 5.13333 11ZM11.5543 8.49539C11.7594 8.28392 12.097 8.27872 12.3085 8.48379C12.5199 8.68883 12.5251 9.02648 12.3201 9.23795L10.3162 11.3045C10.1112 11.516 9.77352 11.5212 9.56205 11.3161C9.35061 11.1111 9.34539 10.7734 9.55045 10.562L11.5543 8.49539ZM11.6838 10.6955C11.8888 10.484 12.2265 10.4788 12.4379 10.6839C12.6494 10.8889 12.6546 11.2266 12.4495 11.438L10.4457 13.5046C10.2406 13.7161 9.90296 13.7213 9.69149 13.5162C9.48005 13.3112 9.47485 12.9735 9.67989 12.7621L11.6838 10.6955Z" fill="#236CAE"/>
</svg>
