<svg width="91" height="26" viewBox="0 0 91 26" fill="none" xmlns="http://www.w3.org/2000/svg">
<g clip-path="url(#clip0_10720_1177)">
<path fill-rule="evenodd" clip-rule="evenodd" d="M65.6357 11.7422V25.996H73.4806V17.5493H82.3714C86.1133 17.5212 89.2919 15.1084 90.4905 11.7422H65.6357Z" fill="#37A72E"/>
<path fill-rule="evenodd" clip-rule="evenodd" d="M64.5908 -0.00390625C65.0478 5.82226 70.5082 10.4225 77.177 10.4225C77.1988 10.4225 90.8175 10.4225 90.8175 10.4225C90.9182 9.88816 90.9708 9.33666 90.9708 8.77274C90.9708 3.94649 87.1134 0.0317975 82.3415 -0.00366342L64.5908 -0.00390625Z" fill="url(#paint0_linear_10720_1177)"/>
<path fill-rule="evenodd" clip-rule="evenodd" d="M52.9795 10.2838L52.9857 10.2706L52.9865 10.2708C53.0669 10.1251 53.221 10.0266 53.3979 10.0266C53.6535 10.0266 53.8615 10.2322 53.8685 10.4884L53.8686 10.4885V25.8641H61.7135V-0.00390625H53.8686C52.8738 0.0295178 51.7499 0.766405 51.332 1.67095L45.089 15.1853C45.0736 15.2405 45.0495 15.2921 45.0183 15.3384L45.0162 15.3429L45.0154 15.3426C44.921 15.4799 44.7637 15.5697 44.5856 15.5697C44.2968 15.5697 44.0626 15.3333 44.0626 15.0418V-0.00390625H36.2178V25.8641H44.0626V25.8612C45.0465 25.8093 46.1441 25.0807 46.5559 24.1893L52.9634 10.3187C52.9683 10.3068 52.9737 10.2952 52.9795 10.2838Z" fill="#37A72E"/>
<path fill-rule="evenodd" clip-rule="evenodd" d="M23.6862 10.726L19.1013 25.8641H13.4579L8.87015 10.7168C8.82591 10.4743 8.61534 10.2905 8.36225 10.2905C8.07703 10.2905 7.8458 10.5239 7.8458 10.8118C7.8458 10.814 7.84582 10.8162 7.84584 10.8184L7.8458 25.8641H0.000976562V-0.00390625H6.73445H8.73982C10.1833 -0.00390625 11.6959 1.12687 12.1178 2.51958L15.9356 15.125C16.1256 15.7522 16.4338 15.7515 16.6235 15.125L20.4414 2.51958C20.8635 1.1259 22.3757 -0.00390625 23.8194 -0.00390625L25.8241 -0.00390625H32.557V25.8641H24.7122V10.8184C24.7122 10.8162 24.7122 10.814 24.7122 10.8118C24.7122 10.5239 24.481 10.2905 24.1957 10.2905C23.9395 10.2905 23.7268 10.4789 23.6862 10.726Z" fill="#37A72E"/>
</g>
<defs>
<linearGradient id="paint0_linear_10720_1177" x1="64.5908" y1="5.20929" x2="90.9708" y2="5.20929" gradientUnits="userSpaceOnUse">
<stop stop-color="#00A0E5"/>
<stop offset="1" stop-color="#0077C3"/>
</linearGradient>
<clipPath id="clip0_10720_1177">
<rect width="91" height="26" fill="white"/>
</clipPath>
</defs>
</svg>
