<svg width="44" height="35" viewBox="0 0 44 35" fill="none" xmlns="http://www.w3.org/2000/svg">
<g clip-path="url(#clip0_10720_1185)">
<path d="M7.97518 34.9251V32.6023C7.97518 31.7138 7.44676 31.132 6.53964 31.132C6.08607 31.132 5.59288 31.2853 5.25381 31.7905C4.9896 31.3665 4.61089 31.132 4.04284 31.132C3.66414 31.132 3.28543 31.2492 2.98599 31.6732V31.2086H2.19336V34.9251H2.98599V32.8729C2.98599 32.2144 3.32506 31.9032 3.85349 31.9032C4.38191 31.9032 4.64612 32.2505 4.64612 32.8729V34.9251H5.43876V32.8729C5.43876 32.2144 5.81746 31.9032 6.30625 31.9032C6.83467 31.9032 7.09888 32.2505 7.09888 32.8729V34.9251H7.97518ZM19.7326 31.2086H18.4468V30.0856H17.6541V31.2086H16.9364V31.9438H17.6541V33.6487C17.6541 34.5012 17.9932 35.0018 18.9003 35.0018C19.2394 35.0018 19.6181 34.8845 19.8823 34.7312L19.6533 34.0321C19.4243 34.1854 19.1601 34.226 18.9708 34.226C18.5921 34.226 18.4424 33.9915 18.4424 33.6081V31.9438H19.7282V31.2086H19.7326ZM26.4612 31.1275C26.0076 31.1275 25.7038 31.362 25.5144 31.6687V31.2041H24.7218V34.9206H25.5144V32.8278C25.5144 32.2099 25.7786 31.8581 26.2718 31.8581C26.4215 31.8581 26.6109 31.8987 26.765 31.9348L26.994 31.159C26.8355 31.1275 26.6109 31.1275 26.4612 31.1275ZM16.2934 31.5153C15.9147 31.2447 15.3863 31.1275 14.8183 31.1275C13.9111 31.1275 13.3079 31.592 13.3079 32.3272C13.3079 32.9451 13.7614 33.2969 14.554 33.4097L14.9328 33.4503C15.3467 33.5269 15.5757 33.6442 15.5757 33.8382C15.5757 34.1088 15.2718 34.3027 14.7434 34.3027C14.215 34.3027 13.7966 34.1088 13.5324 33.9148L13.1537 34.5327C13.5677 34.844 14.1357 34.9973 14.7038 34.9973C15.7606 34.9973 16.3683 34.4921 16.3683 33.7976C16.3683 33.1391 15.8751 32.7918 15.1221 32.6745L14.7434 32.6339C14.4043 32.5933 14.1401 32.5166 14.1401 32.2866C14.1401 32.016 14.4043 31.8626 14.8227 31.8626C15.2762 31.8626 15.7298 32.0566 15.9588 32.1738L16.2934 31.5153ZM37.3819 31.1275C36.9283 31.1275 36.6245 31.362 36.4352 31.6687V31.2041H35.6425V34.9206H36.4352V32.8278C36.4352 32.2099 36.6994 31.8581 37.1926 31.8581C37.3423 31.8581 37.5316 31.8987 37.6858 31.9348L37.9147 31.1681C37.7606 31.1275 37.536 31.1275 37.3819 31.1275ZM27.2538 33.0669C27.2538 34.19 28.0112 35.0018 29.1826 35.0018C29.711 35.0018 30.0897 34.8845 30.4684 34.5778L30.0897 33.9193C29.7858 34.1539 29.4864 34.2666 29.1429 34.2666C28.5 34.2666 28.0464 33.8021 28.0464 33.0669C28.0464 32.3678 28.5 31.9032 29.1429 31.8671C29.482 31.8671 29.7858 31.9844 30.0897 32.2144L30.4684 31.5559C30.0897 31.2447 29.711 31.132 29.1826 31.132C28.0112 31.1275 27.2538 31.9438 27.2538 33.0669ZM34.5857 33.0669V31.2086H33.793V31.6732C33.5288 31.3259 33.1501 31.132 32.6569 31.132C31.6353 31.132 30.8427 31.9438 30.8427 33.0669C30.8427 34.19 31.6353 35.0018 32.6569 35.0018C33.1854 35.0018 33.5641 34.8079 33.793 34.4606V34.9251H34.5857V33.0669ZM31.6749 33.0669C31.6749 32.4084 32.0889 31.8671 32.7714 31.8671C33.4143 31.8671 33.8679 32.3723 33.8679 33.0669C33.8679 33.7254 33.4143 34.2666 32.7714 34.2666C32.0933 34.226 31.6749 33.7209 31.6749 33.0669ZM22.1898 31.1275C21.1329 31.1275 20.3755 31.9032 20.3755 33.0624C20.3755 34.226 21.1329 34.9973 22.2294 34.9973C22.7578 34.9973 23.2862 34.844 23.7046 34.4921L23.3259 33.9103C23.022 34.1449 22.6433 34.2982 22.269 34.2982C21.7758 34.2982 21.287 34.0637 21.1725 33.4097H23.8543C23.8543 33.2924 23.8543 33.2157 23.8543 33.0985C23.8895 31.9032 23.207 31.1275 22.1898 31.1275ZM22.1898 31.8266C22.683 31.8266 23.022 32.1378 23.0969 32.7151H21.2078C21.2826 32.2144 21.6217 31.8266 22.1898 31.8266ZM41.8823 33.0669V29.7383H41.0897V31.6732C40.8255 31.3259 40.4468 31.132 39.9536 31.132C38.9319 31.132 38.1393 31.9438 38.1393 33.0669C38.1393 34.19 38.9319 35.0018 39.9536 35.0018C40.482 35.0018 40.8607 34.8079 41.0897 34.4606V34.9251H41.8823V33.0669ZM38.9716 33.0669C38.9716 32.4084 39.3855 31.8671 40.0681 31.8671C40.711 31.8671 41.1645 32.3723 41.1645 33.0669C41.1645 33.7254 40.711 34.2666 40.0681 34.2666C39.3855 34.226 38.9716 33.7209 38.9716 33.0669ZM12.436 33.0669V31.2086H11.6433V31.6732C11.3791 31.3259 11.0004 31.132 10.5072 31.132C9.48559 31.132 8.69296 31.9438 8.69296 33.0669C8.69296 34.19 9.48559 35.0018 10.5072 35.0018C11.0356 35.0018 11.4143 34.8079 11.6433 34.4606V34.9251H12.436V33.0669ZM9.49 33.0669C9.49 32.4084 9.90393 31.8671 10.5865 31.8671C11.2294 31.8671 11.683 32.3723 11.683 33.0669C11.683 33.7254 11.2294 34.2666 10.5865 34.2666C9.90393 34.226 9.49 33.7209 9.49 33.0669Z" fill="#12213A"/>
<path d="M27.9364 2.98438H16.0293V24.8955H27.9364V2.98438Z" fill="#FF5A00"/>
<path d="M16.8215 13.9408C16.8215 9.48909 18.8647 5.53806 22 2.98522C19.6926 1.12697 16.7818 0.00390625 13.6069 0.00390625C6.08567 0.00390625 0 6.23715 0 13.9408C0 21.6444 6.08567 27.8776 13.6069 27.8776C16.7818 27.8776 19.6926 26.7546 22 24.8963C18.8603 22.3796 16.8215 18.3924 16.8215 13.9408Z" fill="#EB001B"/>
<path d="M44 13.9408C44 21.6444 37.9143 27.8776 30.3931 27.8776C27.2182 27.8776 24.3074 26.7546 22 24.8963C25.1749 22.339 27.1785 18.3924 27.1785 13.9408C27.1785 9.48909 25.1353 5.53806 22 2.98522C24.303 1.12697 27.2138 0.00390625 30.3887 0.00390625C37.9143 0.00390625 44 6.27775 44 13.9408Z" fill="#F79E1B"/>
</g>
<defs>
<clipPath id="clip0_10720_1185">
<rect width="44" height="35" fill="white"/>
</clipPath>
</defs>
</svg>
