<svg width="80" height="27" viewBox="0 0 80 27" fill="none" xmlns="http://www.w3.org/2000/svg">
<g clip-path="url(#clip0_10720_1170)">
<path d="M34.6661 26.6094H28.1855L32.239 0.472656H38.7192L34.6661 26.6094Z" fill="#00579F"/>
<path d="M58.1597 1.11274C56.8814 0.583905 54.854 0 52.3471 0C45.9473 0 41.4407 3.55886 41.413 8.64695C41.3599 12.4009 44.6397 14.486 47.0927 15.7377C49.5999 17.0167 50.4522 17.8516 50.4522 18.9917C50.4267 20.7426 48.4262 21.5498 46.5604 21.5498C43.9731 21.5498 42.5867 21.1336 40.4799 20.1595L39.6266 19.7419L38.7197 25.609C40.2397 26.3311 43.04 26.9719 45.9473 27C52.7472 27 57.1741 23.4962 57.2266 18.074C57.2524 15.0987 55.5206 12.8189 51.7868 10.956C49.5202 9.76007 48.1321 8.95369 48.1321 7.73008C48.1587 6.6177 49.3062 5.47835 51.8648 5.47835C53.9716 5.42255 55.5195 5.95065 56.6922 6.47912L57.2783 6.75665L58.1597 1.11274Z" fill="#00579F"/>
<path d="M66.7726 17.3501C67.3063 15.8485 69.3599 10.0372 69.3599 10.0372C69.333 10.093 69.8925 8.50798 70.2125 7.53493L70.6654 9.78703C70.6654 9.78703 71.8927 16.0433 72.1591 17.3501C71.1463 17.3501 68.0526 17.3501 66.7726 17.3501ZM74.772 0.472656H69.7593C68.2135 0.472656 67.0391 0.944953 66.3721 2.64123L56.7461 26.609H63.5459C63.5459 26.609 64.6654 23.3831 64.9061 22.6883C65.652 22.6883 72.2669 22.6883 73.2265 22.6883C73.4126 23.606 73.9998 26.609 73.9998 26.609H80.0002L74.772 0.472656Z" fill="#00579F"/>
<path d="M22.7734 0.472656L16.4268 18.2954L15.7332 14.6807C14.5599 10.5099 10.88 5.97836 6.77344 3.72515L12.5867 26.5817H19.4397L29.626 0.472656H22.7734Z" fill="#00579F"/>
<path d="M10.5333 0.472656H0.106668L0 1.00076C8.13339 3.1697 13.52 8.39786 15.7331 14.6818L13.4665 2.66969C13.0933 1.00039 11.9465 0.527721 10.5333 0.472656Z" fill="#FAA61A"/>
</g>
<defs>
<clipPath id="clip0_10720_1170">
<rect width="80" height="27" fill="white"/>
</clipPath>
</defs>
</svg>
