<svg width="45" height="35" viewBox="0 0 45 35" fill="none" xmlns="http://www.w3.org/2000/svg">
<g clip-path="url(#clip0_10720_1191)">
<path d="M44.5723 22.5164V21.9766H44.4373L44.2798 22.3365L44.1223 21.9766H43.9873V22.5164H44.0773V22.1115L44.2348 22.4714H44.3473L44.5048 22.1115V22.5164H44.5723ZM43.6723 22.5164V22.0665H43.8523V21.9766H43.4023V22.0665H43.5823V22.5164H43.6723Z" fill="#00A2E5"/>
<path d="M28.5748 24.8325H16.4023V2.96875H28.5748V24.8325Z" fill="#7375CF"/>
<path d="M17.19 13.901C17.19 9.4698 19.26 5.51093 22.5 2.96915C20.1375 1.10219 17.145 0 13.905 0C6.2325 0 0 6.23072 0 13.901C0 21.5713 6.2325 27.8021 13.905 27.8021C17.145 27.8021 20.1375 26.6999 22.5 24.8329C19.26 22.2911 17.19 18.3323 17.19 13.901Z" fill="#EB001B"/>
<path d="M45 13.901C45 21.5713 38.7675 27.8021 31.095 27.8021C27.855 27.8021 24.8625 26.6999 22.5 24.8329C25.74 22.2911 27.81 18.3323 27.81 13.901C27.81 9.4698 25.74 5.51093 22.5 2.96915C24.8625 1.10219 27.855 0 31.095 0C38.7675 0 45 6.23072 45 13.901Z" fill="#00A2E5"/>
<path d="M32.67 31.0181C32.8275 31.0181 33.075 31.0406 33.2325 31.1081L32.985 31.8729C32.805 31.8054 32.6475 31.7829 32.49 31.7829C31.9725 31.7829 31.7025 32.1203 31.7025 32.7276V34.7971H30.8925V31.1081H31.68V31.558C31.905 31.2206 32.22 31.0181 32.67 31.0181ZM29.7 31.8279H28.395V33.4924C28.395 33.8523 28.53 34.0998 28.935 34.0998C29.1375 34.0998 29.4075 34.0323 29.655 33.8973L29.88 34.5946C29.6325 34.7746 29.2275 34.887 28.8675 34.887C27.9225 34.887 27.585 34.3697 27.585 33.5149V31.8279H26.8425V31.0856H27.585V29.9609H28.395V31.0856H29.7V31.8279ZM19.4175 32.6152C19.5075 32.0753 19.8225 31.7154 20.4075 31.7154C20.925 31.7154 21.2625 32.0303 21.3525 32.6152H19.4175ZM22.185 32.9526C22.185 31.8054 21.465 31.0181 20.43 31.0181C19.35 31.0181 18.585 31.8054 18.585 32.9526C18.585 34.1222 19.3725 34.887 20.475 34.887C21.0375 34.887 21.5325 34.7521 21.9825 34.3697L21.5775 33.7848C21.2625 34.0323 20.88 34.1672 20.4975 34.1672C19.98 34.1672 19.5075 33.9198 19.395 33.2675H22.14C22.1625 33.155 22.185 33.0651 22.185 32.9526ZM25.7175 32.0528C25.4925 31.9179 25.0425 31.7379 24.57 31.7379C24.12 31.7379 23.8725 31.8954 23.8725 32.1653C23.8725 32.4127 24.1425 32.4802 24.5025 32.5252L24.885 32.5702C25.695 32.6827 26.1675 33.0201 26.1675 33.6724C26.1675 34.3697 25.56 34.887 24.48 34.887C23.8725 34.887 23.31 34.7296 22.8825 34.4147L23.265 33.7848C23.535 33.9873 23.94 34.1672 24.5025 34.1672C25.0425 34.1672 25.335 34.0098 25.335 33.7174C25.335 33.5149 25.1325 33.4025 24.6825 33.335L24.3 33.29C23.4675 33.1775 23.0175 32.7951 23.0175 32.2103C23.0175 31.468 23.625 31.0181 24.5475 31.0181C25.1325 31.0181 25.6725 31.1531 26.055 31.4005L25.7175 32.0528ZM35.6175 31.7604C35.46 31.7604 35.3025 31.7829 35.1675 31.8504C35.0325 31.9179 34.8975 31.9854 34.8075 32.0978C34.7175 32.2103 34.6275 32.3228 34.56 32.4802C34.4925 32.6152 34.47 32.7951 34.47 32.9526C34.47 33.1325 34.4925 33.29 34.56 33.4249C34.6275 33.5599 34.695 33.6949 34.8075 33.8073C34.92 33.9198 35.0325 33.9873 35.1675 34.0548C35.3025 34.1222 35.46 34.1447 35.6175 34.1447C35.775 34.1447 35.9325 34.1222 36.0675 34.0548C36.2025 33.9873 36.3375 33.9198 36.4275 33.8073C36.54 33.6949 36.6075 33.5824 36.675 33.4249C36.7425 33.29 36.765 33.11 36.765 32.9526C36.765 32.7726 36.7425 32.6152 36.675 32.4802C36.6075 32.3453 36.54 32.2103 36.4275 32.0978C36.315 31.9854 36.2025 31.9179 36.0675 31.8504C35.9325 31.8054 35.775 31.7604 35.6175 31.7604ZM35.6175 31.0181C35.91 31.0181 36.18 31.0631 36.405 31.1756C36.6525 31.2656 36.855 31.4005 37.035 31.5805C37.215 31.7604 37.35 31.9629 37.4625 32.1878C37.5525 32.4352 37.62 32.6827 37.62 32.9526C37.62 33.2225 37.575 33.4924 37.4625 33.7174C37.3725 33.9648 37.215 34.1672 37.035 34.3247C36.855 34.5046 36.6525 34.6396 36.405 34.7296C36.1575 34.8195 35.8875 34.887 35.6175 34.887C35.325 34.887 35.055 34.842 34.83 34.7296C34.5825 34.6396 34.38 34.5046 34.2 34.3247C34.02 34.1447 33.885 33.9423 33.7725 33.7174C33.6825 33.4699 33.615 33.2225 33.615 32.9526C33.615 32.6827 33.66 32.4127 33.7725 32.1878C33.8625 31.9404 34.02 31.7379 34.2 31.5805C34.38 31.4005 34.5825 31.2656 34.83 31.1756C35.055 31.0631 35.325 31.0181 35.6175 31.0181ZM14.7375 32.9526C14.7375 32.3003 15.165 31.7604 15.8625 31.7604C16.5375 31.7604 16.965 32.2778 16.965 32.9526C16.965 33.6274 16.515 34.1222 15.8625 34.1222C15.165 34.1222 14.7375 33.6049 14.7375 32.9526ZM17.73 32.9526V31.1081H16.92V31.558C16.6725 31.2206 16.29 31.0181 15.75 31.0181C14.715 31.0181 13.905 31.8279 13.905 32.9526C13.905 34.0773 14.715 34.887 15.75 34.887C16.2675 34.887 16.65 34.6846 16.92 34.3472V34.7971H17.73V32.9526ZM13.2075 34.7971V32.4802C13.2075 31.603 12.645 31.0181 11.745 31.0181C11.2725 31.0181 10.7775 31.1531 10.44 31.6705C10.1925 31.2656 9.78746 31.0181 9.22496 31.0181C8.84246 31.0181 8.43746 31.1306 8.14496 31.558V31.1081H7.33496V34.7971H8.14496V32.7501C8.14496 32.1203 8.50496 31.7604 9.04496 31.7604C9.58496 31.7604 9.85496 32.0978 9.85496 32.7276V34.7746H10.665V32.7276C10.665 32.0978 11.0475 31.7379 11.565 31.7379C12.105 31.7379 12.375 32.0753 12.375 32.7052V34.7521H13.2075V34.7971Z" fill="black"/>
<path d="M38.4752 34.5052V34.5952H38.5652C38.5877 34.5952 38.6102 34.5952 38.6102 34.5727C38.6327 34.5727 38.6327 34.5502 38.6327 34.5277C38.6327 34.5052 38.6327 34.5052 38.6102 34.5052C38.6102 34.5052 38.5877 34.4827 38.5652 34.4827H38.4752V34.5052ZM38.5652 34.4603C38.6102 34.4603 38.6327 34.4603 38.6552 34.4827C38.6777 34.5052 38.7002 34.5277 38.7002 34.5727C38.7002 34.5952 38.7002 34.6177 38.6777 34.6402C38.6552 34.6627 38.6327 34.6627 38.5877 34.6627L38.7002 34.7977H38.6102L38.4977 34.6627H38.4752V34.7977H38.4077V34.4603H38.5652ZM38.5427 34.9101C38.5877 34.9101 38.6102 34.9101 38.6552 34.8876C38.7002 34.8651 38.7227 34.8426 38.7452 34.8202C38.7677 34.7977 38.7902 34.7752 38.8127 34.7302C38.8352 34.6852 38.8352 34.6627 38.8352 34.6177C38.8352 34.5727 38.8352 34.5502 38.8127 34.5052C38.7902 34.4603 38.7677 34.4378 38.7452 34.4153C38.7227 34.3928 38.7002 34.3703 38.6552 34.3478C38.6327 34.3253 38.5877 34.3253 38.5427 34.3253C38.4977 34.3253 38.4752 34.3253 38.4302 34.3478C38.3852 34.3703 38.3627 34.3928 38.3402 34.4153C38.3177 34.4378 38.2952 34.4827 38.2727 34.5052C38.2502 34.5502 38.2502 34.5727 38.2502 34.6177C38.2502 34.6627 38.2502 34.6852 38.2727 34.7302C38.2952 34.7752 38.3177 34.7977 38.3402 34.8202C38.3627 34.8426 38.4077 34.8651 38.4302 34.8876C38.4752 34.9101 38.4977 34.9101 38.5427 34.9101ZM38.5427 34.2578C38.5877 34.2578 38.6327 34.2578 38.6777 34.2803C38.7227 34.3028 38.7677 34.3253 38.7902 34.3478C38.8127 34.3703 38.8577 34.4153 38.8802 34.4603C38.9027 34.5052 38.9027 34.5502 38.9027 34.5952C38.9027 34.6402 38.9027 34.6852 38.8802 34.7302C38.8577 34.7752 38.8352 34.8201 38.7902 34.8426C38.7452 34.8651 38.7227 34.9101 38.6777 34.9326C38.6327 34.9551 38.5877 34.9551 38.5427 34.9551C38.4977 34.9551 38.4302 34.9551 38.3852 34.9326C38.3402 34.9101 38.2952 34.8876 38.2727 34.8426C38.2502 34.8201 38.2052 34.7752 38.1827 34.7302C38.1602 34.6852 38.1602 34.6402 38.1602 34.5952C38.1602 34.5502 38.1602 34.5052 38.1827 34.4603C38.2052 34.4153 38.2277 34.3703 38.2727 34.3478C38.2952 34.3253 38.3402 34.2803 38.3852 34.2803C38.4302 34.2578 38.4977 34.2578 38.5427 34.2578Z" fill="black"/>
</g>
<defs>
<clipPath id="clip0_10720_1191">
<rect width="45" height="35" fill="white"/>
</clipPath>
</defs>
</svg>
