<svg width="126" height="36" viewBox="0 0 126 36" fill="none" xmlns="http://www.w3.org/2000/svg">
<path d="M18 0L22.0413 12.4377H35.119L24.5389 20.1246L28.5801 32.5623L18 24.8754L7.41987 32.5623L11.4611 20.1246L0.880983 12.4377H13.9587L18 0Z" fill="#F2C94C"/>
<path d="M63 0L67.0413 12.4377H80.119L69.5389 20.1246L73.5801 32.5623L63 24.8754L52.4199 32.5623L56.4611 20.1246L45.881 12.4377H58.9587L63 0Z" fill="#F2C94C"/>
<path d="M108 0L112.041 12.4377H125.119L114.539 20.1246L118.58 32.5623L108 24.8754L97.4199 32.5623L101.461 20.1246L90.881 12.4377H103.959L108 0Z" fill="#F2C94C"/>
</svg>
