<svg width="22" height="22" viewBox="0 0 22 22" fill="none" xmlns="http://www.w3.org/2000/svg">
<path d="M20.8882 5.89798H19.1111V4.53299C19.1113 4.38704 19.0826 4.24251 19.0268 4.10765C18.971 3.97279 18.8892 3.85026 18.786 3.74706C18.6828 3.64386 18.5602 3.56202 18.4254 3.50622C18.2905 3.45042 18.146 3.42176 18 3.42188C17.8541 3.42187 17.7096 3.45061 17.5748 3.50645C17.44 3.56229 17.3175 3.64413 17.2143 3.74731C17.1111 3.85049 17.0293 3.97297 16.9734 4.10778C16.9176 4.24259 16.8889 4.38707 16.8889 4.53299V5.89798H15.6111V4.53299C15.6111 4.2383 15.494 3.95569 15.2857 3.74731C15.0773 3.53894 14.7947 3.42188 14.5 3.42188C14.2053 3.42188 13.9227 3.53894 13.7143 3.74731C13.5059 3.95569 13.3889 4.2383 13.3889 4.53299V5.89798H12.1111V4.53299C12.1111 4.2383 11.994 3.95569 11.7856 3.74731C11.5773 3.53894 11.2947 3.42188 11 3.42188C10.7053 3.42188 10.4227 3.53894 10.2143 3.74731C10.0059 3.95569 9.88885 4.2383 9.88885 4.53299V5.89798H8.61107V4.53299C8.61107 4.2383 8.49401 3.95569 8.28564 3.74731C8.07726 3.53894 7.79465 3.42188 7.49996 3.42188C7.20527 3.42188 6.92266 3.53894 6.71428 3.74731C6.50591 3.95569 6.38885 4.2383 6.38885 4.53299V5.89798H5.11107V4.53299C5.11107 4.2383 4.994 3.95569 4.78563 3.74731C4.57725 3.53894 4.29464 3.42188 3.99995 3.42188C3.70527 3.42188 3.42265 3.53894 3.21428 3.74731C3.0059 3.95569 2.88884 4.2383 2.88884 4.53299V5.89798H1.11182C1.08216 5.89799 1.05372 5.90977 1.03275 5.93074C1.01178 5.95171 1 5.98015 1 6.00981V7.2784C1 7.30805 1.01178 7.3365 1.03275 7.35747C1.05372 7.37844 1.08216 7.39022 1.11182 7.39023H2.88884V15.2313H1.11182C1.08216 15.2313 1.05372 15.2431 1.03275 15.2641C1.01178 15.2851 1 15.3135 1 15.3432V16.6117C1 16.6414 1.01178 16.6698 1.03275 16.6908C1.05372 16.7118 1.08216 16.7236 1.11182 16.7236H2.88884V18.0886C2.88884 18.3833 3.0059 18.6659 3.21428 18.8742C3.42265 19.0826 3.70527 19.1997 3.99995 19.1997C4.29464 19.1997 4.57725 19.0826 4.78563 18.8742C4.994 18.6659 5.11107 18.3833 5.11107 18.0886V16.7236H6.38885V18.0886C6.38885 18.3833 6.50591 18.6659 6.71428 18.8742C6.92266 19.0826 7.20527 19.1997 7.49996 19.1997C7.79465 19.1997 8.07726 19.0826 8.28564 18.8742C8.49401 18.6659 8.61107 18.3833 8.61107 18.0886V16.7236H9.88885V18.0886C9.88885 18.3833 10.0059 18.6659 10.2143 18.8742C10.4227 19.0826 10.7053 19.1997 11 19.1997C11.2947 19.1997 11.5773 19.0826 11.7856 18.8742C11.994 18.6659 12.1111 18.3833 12.1111 18.0886V16.7236H13.3889V18.0886C13.3889 18.3833 13.5059 18.6659 13.7143 18.8742C13.9227 19.0826 14.2053 19.1997 14.5 19.1997C14.7947 19.1997 15.0773 19.0826 15.2857 18.8742C15.494 18.6659 15.6111 18.3833 15.6111 18.0886V16.7236H16.8889V18.0886C16.8889 18.2345 16.9176 18.379 16.9734 18.5138C17.0293 18.6486 17.1111 18.7711 17.2143 18.8743C17.3175 18.9774 17.44 19.0593 17.5748 19.1151C17.7096 19.1709 17.8541 19.1997 18 19.1997C18.2947 19.1997 18.5773 19.0826 18.7857 18.8742C18.9941 18.6659 19.1111 18.3833 19.1111 18.0886V16.7236H20.8882C20.9029 16.7236 20.9174 16.7207 20.931 16.7151C20.9446 16.7094 20.9569 16.7012 20.9673 16.6908C20.9777 16.6804 20.9859 16.6681 20.9915 16.6545C20.9972 16.641 21.0001 16.6264 21.0001 16.6117V15.3432C21.0001 15.3285 20.9972 15.3139 20.9915 15.3004C20.9859 15.2868 20.9777 15.2745 20.9673 15.2641C20.9569 15.2537 20.9446 15.2455 20.931 15.2398C20.9174 15.2342 20.9029 15.2313 20.8882 15.2313H19.1111V7.39023H20.8882C20.9029 7.39023 20.9174 7.38734 20.931 7.38172C20.9446 7.3761 20.9569 7.36786 20.9673 7.35748C20.9777 7.34709 20.9859 7.33476 20.9915 7.32119C20.9972 7.30763 21.0001 7.29308 21.0001 7.2784V6.00981C21.0001 5.99513 20.9972 5.98058 20.9915 5.96701C20.9859 5.95345 20.9777 5.94112 20.9673 5.93073C20.9569 5.92035 20.9446 5.91211 20.931 5.90649C20.9174 5.90087 20.9029 5.89798 20.8882 5.89798ZM5.11108 15.2313V7.39023H6.38886V15.2313H5.11108ZM8.61108 15.2313V7.39023H9.88885V15.2313H8.61108ZM12.1111 15.2313V7.39023H13.3889V15.2313H12.1111ZM15.6111 15.2313V7.39023H16.8889V15.2313H15.6111Z" fill="#236CAE"/>
</svg>
