<svg width="22" height="22" viewBox="0 0 22 22" fill="none" xmlns="http://www.w3.org/2000/svg">
<path d="M13.518 2H7.54029C6.8672 2 6.22162 2.26713 5.74533 2.74273C5.26904 3.21833 5.00098 3.86351 5 4.5366V16.9636C5.00098 17.6366 5.26904 18.2818 5.74533 18.7574C6.22162 19.233 6.8672 19.5002 7.54029 19.5002H13.518C13.851 19.5002 14.1808 19.4345 14.4884 19.307C14.7961 19.1795 15.0756 18.9927 15.311 18.7571C15.5464 18.5215 15.733 18.2419 15.8603 17.9341C15.9876 17.6264 16.053 17.2966 16.0527 16.9636V4.5366C16.053 4.20358 15.9876 3.87377 15.8603 3.56603C15.733 3.25828 15.5464 2.97863 15.311 2.74307C15.0756 2.5075 14.7961 2.32062 14.4884 2.19312C14.1808 2.06562 13.851 2 13.518 2ZM10.5264 18.487C10.3442 18.487 10.1661 18.433 10.0147 18.3318C9.86318 18.2306 9.74513 18.0867 9.67542 17.9184C9.6057 17.7501 9.58746 17.5649 9.623 17.3862C9.65854 17.2076 9.74627 17.0435 9.87508 16.9146C10.0039 16.7858 10.168 16.6981 10.3467 16.6626C10.5253 16.627 10.7105 16.6453 10.8788 16.715C11.0471 16.7847 11.191 16.9027 11.2922 17.0542C11.3934 17.2057 11.4474 17.3838 11.4474 17.5659C11.4474 17.8102 11.3504 18.0445 11.1777 18.2172C11.0049 18.39 10.7706 18.487 10.5264 18.487ZM15.1317 15.5396H5.92106V5.0395H15.1317V15.5396Z" fill="#236CAE"/>
</svg>
