<svg width="17" height="17" viewBox="0 0 17 17" fill="none" xmlns="http://www.w3.org/2000/svg">
<path d="M1.31023e-06 3.06944C1.31023e-06 2.25538 0.323388 1.47465 0.899021 0.899019C1.47465 0.323387 2.25538 0 3.06945 0H13.9306C14.7446 0 15.5253 0.323387 16.101 0.899019C16.6766 1.47465 17 2.25538 17 3.06944V13.9306C17 14.7446 16.6766 15.5253 16.101 16.101C15.5253 16.6766 14.7446 17 13.9306 17H10.591C10.9744 16.592 11.2814 16.1122 11.4911 15.5833H13.9306C14.3689 15.5833 14.7893 15.4092 15.0992 15.0992C15.4092 14.7893 15.5833 14.3689 15.5833 13.9306V3.06944C15.5833 2.6311 15.4092 2.21071 15.0992 1.90075C14.7893 1.5908 14.3689 1.41667 13.9306 1.41667H3.06945C2.6311 1.41667 2.21071 1.5908 1.90076 1.90075C1.5908 2.21071 1.41667 2.6311 1.41667 3.06944V5.50894C0.892059 5.71723 0.411437 6.02258 1.31023e-06 6.409V3.06944ZM9.90722 15.5833C9.62978 16.018 9.2472 16.3757 8.79488 16.6233C8.34257 16.8709 7.83511 17.0005 7.31945 17H3.06945C2.25538 17 1.47465 16.6766 0.899021 16.101C0.323388 15.5253 1.31023e-06 14.7446 1.31023e-06 13.9306V9.68055C-0.000371381 9.27736 0.0787677 8.87806 0.23289 8.50549C0.387012 8.13292 0.613091 7.7944 0.898189 7.5093C1.18329 7.2242 1.52181 6.99812 1.89438 6.844C2.26695 6.68988 2.66626 6.61074 3.06945 6.61111H7.31945C7.72253 6.61111 8.12167 6.6905 8.49407 6.84476C8.86647 6.99901 9.20484 7.22511 9.48987 7.51013C9.77489 7.79515 10.001 8.13353 10.1552 8.50593C10.3095 8.87833 10.3889 9.27747 10.3889 9.68055V13.9306C10.3889 14.5388 10.2113 15.1064 9.90722 15.5833ZM1.41667 9.68055V13.9306C1.41667 14.8429 2.15711 15.5833 3.06945 15.5833H7.31945C7.75779 15.5833 8.17818 15.4092 8.48814 15.0992C8.79809 14.7893 8.97222 14.3689 8.97222 13.9306V9.68055C8.97222 9.24221 8.79809 8.82182 8.48814 8.51186C8.17818 8.20191 7.75779 8.02778 7.31945 8.02778H3.06945C2.6311 8.02778 2.21071 8.20191 1.90076 8.51186C1.5908 8.82182 1.41667 9.24221 1.41667 9.68055Z" fill="#236CAE"/>
</svg>
