<svg width="17" height="17" viewBox="0 0 17 17" fill="none" xmlns="http://www.w3.org/2000/svg">
<g clip-path="url(#clip0_10673_598)">
<path fill-rule="evenodd" clip-rule="evenodd" d="M1.03733 10.9553C1.70152 10.2911 2.60236 9.91797 3.54167 9.91797H9.20833C10.1476 9.91797 11.0485 10.2911 11.7127 10.9553C12.3769 11.6195 12.75 12.5203 12.75 13.4596V14.8763C12.75 15.2675 12.4329 15.5846 12.0417 15.5846C11.6505 15.5846 11.3333 15.2675 11.3333 14.8763V13.4596C11.3333 12.8961 11.1094 12.3555 10.7109 11.957C10.3124 11.5585 9.77192 11.3346 9.20833 11.3346H3.54167C2.97808 11.3346 2.43758 11.5585 2.03906 11.957C1.64055 12.3555 1.41667 12.8961 1.41667 13.4596V14.8763C1.41667 15.2675 1.09953 15.5846 0.708333 15.5846C0.317132 15.5846 0 15.2675 0 14.8763V13.4596C0 12.5203 0.373139 11.6195 1.03733 10.9553Z" fill="#236CAE"/>
<path fill-rule="evenodd" clip-rule="evenodd" d="M6.37565 2.83464C5.20205 2.83464 4.25065 3.78603 4.25065 4.95964C4.25065 6.13324 5.20205 7.08464 6.37565 7.08464C7.54926 7.08464 8.50065 6.13324 8.50065 4.95964C8.50065 3.78603 7.54926 2.83464 6.37565 2.83464ZM2.83398 4.95964C2.83398 3.00363 4.41964 1.41797 6.37565 1.41797C8.33166 1.41797 9.91732 3.00363 9.91732 4.95964C9.91732 6.91564 8.33166 8.5013 6.37565 8.5013C4.41964 8.5013 2.83398 6.91564 2.83398 4.95964Z" fill="#236CAE"/>
<path fill-rule="evenodd" clip-rule="evenodd" d="M13.4807 10.5392C13.5785 10.1605 13.9648 9.93268 14.3436 10.0305C15.1034 10.2267 15.7765 10.6696 16.2573 11.2898C16.7381 11.91 16.9993 12.6723 16.9998 13.457L16.9998 14.8742C16.9998 15.2654 16.6827 15.5826 16.2915 15.5826C15.9003 15.5826 15.5832 15.2654 15.5832 14.8742L15.5832 13.4581C15.5832 13.458 15.5832 13.4582 15.5832 13.4581C15.5828 12.9873 15.4261 12.5298 15.1377 12.1578C14.8492 11.7856 14.4453 11.5199 13.9894 11.4022C13.6107 11.3044 13.3829 10.918 13.4807 10.5392Z" fill="#236CAE"/>
<path fill-rule="evenodd" clip-rule="evenodd" d="M10.6473 2.04062C10.7443 1.66165 11.1302 1.43309 11.5092 1.53012C12.271 1.72518 12.9463 2.16824 13.4285 2.78946C13.9107 3.41067 14.1724 4.17471 14.1724 4.96111C14.1724 5.74751 13.9107 6.51154 13.4285 7.13276C12.9463 7.75398 12.271 8.19704 11.5092 8.3921C11.1302 8.48913 10.7443 8.26057 10.6473 7.88159C10.5503 7.50262 10.7788 7.11674 11.1578 7.0197C11.6149 6.90267 12.02 6.63683 12.3094 6.2641C12.5987 5.89137 12.7557 5.43295 12.7557 4.96111C12.7557 4.48927 12.5987 4.03085 12.3094 3.65812C12.02 3.28539 11.6149 3.01955 11.1578 2.90251C10.7788 2.80548 10.5503 2.4196 10.6473 2.04062Z" fill="#236CAE"/>
</g>
<defs>
<clipPath id="clip0_10673_598">
<rect width="17" height="17" fill="white"/>
</clipPath>
</defs>
</svg>
