<svg width="22" height="22" viewBox="0 0 22 22" fill="none" xmlns="http://www.w3.org/2000/svg">
<path d="M11 2C6.03714 2 2 6.03714 2 11C2 15.9629 6.03714 20 11 20C15.9635 20 20 15.9629 20 11C20 6.03714 15.9635 2 11 2ZM2.97264 11C2.97264 10.5577 3.01764 10.1276 3.08771 9.70529C3.08836 9.71236 3.09157 9.72071 3.09221 9.72843C3.20214 10.8888 3.72414 11.2269 4.38629 11.6544C4.56114 11.7676 4.75143 11.8897 4.95393 12.0408C5.53829 12.4754 5.51964 12.9112 5.49393 13.5155C5.48429 13.7347 5.47464 13.961 5.49071 14.2124C5.52479 14.7176 5.83593 15.0217 6.13743 15.3161L6.26086 15.4376C6.61379 15.7951 6.72436 16.0323 6.85936 16.5202C6.98021 16.9586 7.16021 17.3122 7.35114 17.6876L7.50479 17.9975C7.553 18.0991 7.60057 18.1974 7.66486 18.2919C4.90057 17.0223 2.97264 14.2349 2.97264 11ZM11 19.0267C10.4266 19.0267 9.86857 18.9637 9.32857 18.8499L9.32536 18.8429C9.2315 18.668 9.11964 18.5182 9.02129 18.3877C8.77186 18.0547 8.60729 17.8361 8.78857 17.3823C8.87664 17.1624 9.1415 16.8609 9.42179 16.5421C10.0724 15.8015 10.8824 14.8803 10.2761 14.0696C10.0196 13.727 9.56707 13.6351 9.12993 13.5457C8.76864 13.4718 8.39514 13.3959 8.17336 13.1812C8.10971 13.1189 8.048 13.0565 7.98564 12.9929C7.70729 12.7087 7.41993 12.4149 6.98986 12.2684C6.39586 12.0671 5.95936 11.1588 5.83914 10.5783C5.7305 10.0563 5.978 9.77407 6.29171 9.416C6.4595 9.22507 6.63243 9.02771 6.76936 8.77507C6.851 8.62529 6.96286 8.53914 7.12486 8.42536C7.31771 8.29036 7.5935 8.23893 7.886 8.18493C8.25693 8.11679 8.64007 8.04543 8.89657 7.78379C9.05986 7.61857 9.13764 7.43214 9.12929 7.23029C9.11064 6.77129 8.64586 6.37207 8.273 6.05193C8.17207 5.96514 8.08079 5.88736 8.01393 5.81921C7.83971 5.64243 7.80114 5.52414 7.82107 5.47593C7.85386 5.3975 8.06343 5.31393 8.38679 5.31393C8.73907 5.31393 9.101 5.41036 9.26879 5.54921C9.50343 5.744 9.70914 5.83914 9.8975 5.83914C10.2806 5.83914 10.4632 5.48107 10.64 5.13521C10.6979 5.02271 10.757 4.90636 10.8245 4.80029C10.8978 4.68457 10.9859 4.5785 11.0714 4.47564C11.3735 4.10793 11.7496 3.65086 11.1414 3.0485C11.1196 3.02664 11.0861 3.00029 11.0598 2.97714C12.6065 2.98871 14.0471 3.44386 15.2692 4.21593C15.2461 4.232 15.2036 4.25 15.1156 4.25C14.9709 4.25 14.7851 4.20114 14.6032 4.15486C14.4187 4.10729 14.2445 4.06164 14.0536 4.06164C14.051 4.06164 14.0491 4.06164 14.0459 4.06164C13.7746 4.07836 13.5714 4.16579 13.4422 4.32136C13.2146 4.59264 13.2629 4.99186 13.3085 5.37757C13.3445 5.67521 13.3805 5.9825 13.2719 6.14193C13.1793 6.27564 13.115 6.42029 13.0501 6.55914C12.9851 6.7025 12.9247 6.83814 12.8405 6.95129C12.8013 7.00271 12.7357 7.05736 12.665 7.11521C12.5178 7.23543 12.3539 7.37107 12.3076 7.58321C12.2555 7.83264 12.332 8.03 12.3931 8.18943C12.4638 8.37329 12.512 8.49479 12.4072 8.68571C12.3359 8.81686 12.2227 8.91971 12.1019 9.02836C11.9129 9.2 11.6981 9.39414 11.6326 9.72907C11.5181 10.3134 11.63 11.18 12.0633 11.7071C12.2954 11.99 12.5981 12.1391 12.9498 12.1391C13.0899 12.1379 13.2314 12.1256 13.3689 12.1141C13.502 12.1019 13.6338 12.0903 13.7624 12.0903C14.1256 12.0903 14.3448 12.1983 14.5177 12.4606C14.7929 12.881 14.6694 13.2854 14.5299 13.7534C14.4335 14.0748 14.3319 14.4071 14.366 14.7607C14.3756 14.8591 14.3769 14.9793 14.3789 15.1059C14.3866 15.6157 14.3956 16.3859 15.0089 16.3859C15.1824 16.3859 15.383 16.3177 15.6228 16.175C15.9693 15.9712 16.0908 15.6266 16.1975 15.3232C16.2669 15.1259 16.3325 14.9394 16.4508 14.7935L16.589 14.6225C16.9304 14.2021 17.1033 13.9912 17.291 13.3342C17.3521 13.1208 17.4652 12.9266 17.5848 12.7216C17.6928 12.5358 17.8053 12.3429 17.8811 12.1276C17.9551 11.9135 17.9679 11.7097 17.9776 11.5117C17.9917 11.2623 18.0039 11.0476 18.1383 10.8393C18.2032 10.7377 18.4006 10.4291 18.5992 10.4291C18.6429 10.4291 18.6892 10.4426 18.7394 10.4716C18.8319 10.5243 18.9296 10.6336 19.0164 10.7544C19.019 10.8367 19.0293 10.9164 19.0293 10.9987C19.0267 15.4261 15.4261 19.0267 11 19.0267Z" fill="#236CAE"/>
</svg>
