<svg width="22" height="22" viewBox="0 0 22 22" fill="none" xmlns="http://www.w3.org/2000/svg">
<path fill-rule="evenodd" clip-rule="evenodd" d="M6.09146 9.72266H3.94269C3.68339 9.72266 3.44637 9.828 3.27687 9.99953C3.10602 10.1704 3 10.406 3 10.6654L3.00068 17.2702C3.00068 17.5295 3.10602 17.7645 3.27754 17.934L3.27957 17.936C3.45041 18.1068 3.68609 18.2129 3.94335 18.2129H6.09212C6.35142 18.2129 6.58642 18.1075 6.7559 17.936L6.75793 17.934C6.92877 17.7631 7.0348 17.5274 7.0348 17.2702L7.03345 10.6647C7.03345 10.4054 6.9281 10.1704 6.75658 10.0009V9.99885C6.58776 9.82801 6.3528 9.72266 6.09146 9.72266Z" fill="#236CAE"/>
<path fill-rule="evenodd" clip-rule="evenodd" d="M9.39618 8.80865C8.88635 9.55213 8.35357 10.278 7.79916 10.9851L7.69922 11.1127V16.885L7.91531 17.0234C8.40961 17.3394 8.90593 17.6028 9.40361 17.8101C9.90872 18.0208 10.4233 18.1835 10.9473 18.2943L10.9993 18.3044H17.1482C17.525 18.3044 17.8694 18.1505 18.1166 17.902V17.8999C18.3658 17.6508 18.519 17.3084 18.519 16.9336C18.519 16.5568 18.3651 16.2124 18.1166 15.9653C18.0646 15.9133 18.0079 15.8653 17.9491 15.8221C18.2219 15.7701 18.4698 15.6337 18.6615 15.4433L18.6636 15.4453C18.9127 15.1961 19.066 14.8538 19.066 14.477C19.066 14.1015 18.9121 13.7578 18.6636 13.5086L18.6656 13.5066C18.6001 13.4411 18.5272 13.3824 18.4495 13.3304C18.669 13.2649 18.8661 13.144 19.0248 12.9867C19.274 12.7375 19.4273 12.3951 19.4273 12.0183C19.4273 11.6415 19.2733 11.2971 19.0248 11.05H19.0228C18.8709 10.898 18.6858 10.7819 18.4765 10.7144C18.5609 10.661 18.6392 10.5969 18.7081 10.528C18.9573 10.2788 19.1106 9.93644 19.1106 9.56168C19.1106 9.18487 18.9566 8.84048 18.7081 8.59333L18.7061 8.59536C18.4569 8.34618 18.1145 8.1929 17.7377 8.1929H13.5571C13.6381 7.83366 13.7144 7.47914 13.7866 7.12799C13.894 6.60399 13.9852 6.12184 14.0581 5.6829L14.0615 5.66062C14.2377 4.16557 13.5496 3.3013 11.9972 3.0655L11.5631 3L11.4712 3.43217C11.3868 3.83665 11.2848 4.32421 11.1687 4.8948C11.037 5.53631 10.9249 6.09813 10.8283 6.57826C10.3746 7.33389 9.89589 8.07875 9.39618 8.80865Z" fill="#236CAE"/>
</svg>
