<svg width="22" height="22" viewBox="0 0 22 22" fill="none" xmlns="http://www.w3.org/2000/svg">
<path d="M18.4549 10.4688C17.5141 11.3042 16.2995 11.7656 15.0413 11.7656C13.7831 11.7656 12.5686 11.3042 11.6278 10.4688C10.8413 11.0148 10.1989 11.7432 9.75557 12.5918C9.31221 13.4404 9.08111 14.3837 9.08203 15.3411V15.9799C9.08592 16.6741 9.36342 17.3388 9.85432 17.8297C10.3452 18.3206 11.0099 18.5981 11.7041 18.602H18.3785C18.7229 18.6022 19.064 18.5345 19.3822 18.4028C19.7004 18.2711 19.9895 18.078 20.2331 17.8344C20.4766 17.5909 20.6697 17.3018 20.8014 16.9836C20.9331 16.6653 21.0008 16.3243 21.0006 15.9799V15.3411C21.0003 14.384 20.7686 13.4411 20.3254 12.5927C19.8821 11.7443 19.2404 11.0157 18.4549 10.4688Z" fill="#236CAE"/>
<path d="M5.50526 12.2449C7.47999 12.2449 9.08083 10.6441 9.08083 8.66932C9.08083 6.69459 7.47999 5.09375 5.50526 5.09375C3.53052 5.09375 1.92969 6.69459 1.92969 8.66932C1.92969 10.6441 3.53052 12.2449 5.50526 12.2449Z" fill="#236CAE"/>
<path d="M10.8301 6.60608C10.8302 7.43893 11.0772 8.25305 11.54 8.94549C12.0028 9.63793 12.6605 10.1776 13.43 10.4963C14.1995 10.8149 15.0461 10.8982 15.863 10.7357C16.6798 10.5732 17.4301 10.1721 18.019 9.5831C18.6079 8.99416 19.0089 8.24382 19.1713 7.42696C19.3338 6.61011 19.2504 5.76343 18.9316 4.99398C18.6129 4.22454 18.0731 3.56689 17.3806 3.10419C16.6881 2.64149 15.874 2.39453 15.0411 2.39453C13.9246 2.39584 12.8542 2.83999 12.0647 3.62953C11.2753 4.41908 10.8313 5.48955 10.8301 6.60608Z" fill="#236CAE"/>
<path d="M3.00758 18.6018H8.00408C8.36897 18.6006 8.72953 18.5226 9.06233 18.3729C8.45648 17.7239 8.12212 16.8675 8.12792 15.9797V15.3409C8.12649 14.3222 8.35118 13.3159 8.78576 12.3946C8.84303 12.2706 8.90984 12.1467 8.97665 12.0227C8.9003 11.956 8.82394 11.8892 8.74759 11.832C8.32524 12.2637 7.82093 12.6067 7.26425 12.8408C6.70758 13.075 6.10975 13.1956 5.50583 13.1956C4.90192 13.1956 4.30408 13.075 3.74741 12.8408C3.19073 12.6067 2.68642 12.2637 2.26408 11.832C1.71235 12.2628 1.26654 12.8142 0.960771 13.4439C0.655006 14.0735 0.497403 14.7648 0.500032 15.4648V16.0941C0.500815 16.7589 0.76525 17.3963 1.23533 17.8664C1.70542 18.3365 2.34277 18.601 3.00758 18.6018Z" fill="#236CAE"/>
</svg>
