<svg width="22" height="22" viewBox="0 0 22 22" fill="none" xmlns="http://www.w3.org/2000/svg">
<path d="M6.92404 4.95746C8.04922 4.95746 8.96136 4.04532 8.96136 2.92014C8.96136 1.79495 8.04922 0.882812 6.92404 0.882812C5.79886 0.882812 4.88672 1.79495 4.88672 2.92014C4.88672 4.04532 5.79886 4.95746 6.92404 4.95746Z" fill="#236CAE"/>
<path d="M9.15366 13.9978C8.96266 12.6396 8.85655 11.2602 8.85655 9.90196V7.24919H11.1061L11.5305 6.37909C11.7003 6.01831 11.955 5.69998 12.2309 5.44531H6.05523C5.20635 5.44531 4.42113 5.93342 4.06035 6.69742L2.0867 10.857C1.87448 11.3026 2.06548 11.8544 2.51114 12.0666C2.63847 12.1303 2.7658 12.1515 2.89314 12.1515C3.23269 12.1515 3.55102 11.9605 3.69958 11.6422L4.9729 8.96818V9.90196C4.9729 11.2602 4.86679 12.6396 4.67579 13.9978L3.84813 19.8339C3.76324 20.4069 4.16646 20.9375 4.73946 21.0223C4.78191 21.0223 4.84557 21.0223 4.88802 21.0223C5.39735 21.0223 5.86423 20.6403 5.9279 20.1098L6.75556 14.2737C6.79801 13.9129 6.84045 13.5734 6.88289 13.2126C6.92534 13.5734 6.96778 13.9129 7.01023 14.2737L7.83789 20.1098C7.92278 20.6403 8.36844 21.0223 8.87777 21.0223C8.92022 21.0223 8.98388 21.0223 9.02633 21.0223C9.59933 20.9375 10.0025 20.4069 9.91766 19.8339L9.15366 13.9978Z" fill="#236CAE"/>
<path d="M19.9127 10.857L17.939 6.69742C17.5782 5.93342 16.793 5.44531 15.9441 5.44531H14.2252C13.3763 5.44531 12.5911 5.93342 12.2303 6.69742L10.2566 10.857C10.0444 11.3026 10.2354 11.8544 10.6811 12.0666C10.8084 12.1303 10.9357 12.1515 11.0631 12.1515C11.4026 12.1515 11.7209 11.9605 11.8907 11.6422L13.164 8.96818V9.90196C13.164 11.2602 13.0579 12.6396 12.8669 13.9978L12.0393 19.8339C11.9544 20.4069 12.3576 20.9375 12.9306 21.0223C12.973 21.0223 13.0367 21.0436 13.0792 21.0436C13.5885 21.0436 14.0554 20.6616 14.119 20.131L14.9467 14.2949C14.9892 13.9342 15.0316 13.5946 15.074 13.2338C15.1165 13.5946 15.1589 13.9342 15.2014 14.2949L16.029 20.131C16.1139 20.6616 16.5596 21.0436 17.0689 21.0436C17.1114 21.0436 17.175 21.0436 17.2175 21.0223C17.7905 20.9375 18.1937 20.4069 18.1088 19.8339L17.2811 13.9978C17.0901 12.6396 16.984 11.2602 16.984 9.90196V8.94696L18.2574 11.6209C18.4696 12.0666 19.0214 12.2576 19.467 12.0454C19.9339 11.8332 20.1249 11.3026 19.9127 10.857Z" fill="#236CAE"/>
<path d="M15.0744 4.95746C16.1996 4.95746 17.1118 4.04532 17.1118 2.92014C17.1118 1.79495 16.1996 0.882812 15.0744 0.882812C13.9492 0.882812 13.0371 1.79495 13.0371 2.92014C13.0371 4.04532 13.9492 4.95746 15.0744 4.95746Z" fill="#236CAE"/>
</svg>
