<svg width="22" height="22" viewBox="0 0 22 22" fill="none" xmlns="http://www.w3.org/2000/svg">
<path d="M10.9528 13.1655C9.41375 8.83401 11.5534 6.01289 11.8025 5.70539L11.8992 5.58594H5.77666C5.53181 5.58594 5.30315 5.69479 5.14919 5.88456C4.4468 6.75337 2.94063 9.2064 4.12089 13.2113C4.47803 14.4243 4.60299 15.6408 4.4922 16.8267C4.42911 17.5015 4.30494 18.0704 4.12311 18.518C4.09633 18.5849 4.1047 18.6608 4.14539 18.7209C4.18649 18.7817 4.25466 18.8179 4.32764 18.8179H10.5242C10.6749 18.8179 10.8093 18.7262 10.8664 18.5846C11.0545 18.1219 11.1836 17.5351 11.2495 16.8362C11.3746 15.4932 11.2753 14.2594 10.954 13.1692L10.9528 13.1655Z" fill="#236CAE"/>
<path d="M13.7606 11.2934C13.6329 11.4317 13.4821 11.5049 13.3244 11.5049C13.1463 11.5049 12.9726 11.4077 12.8351 11.2306C12.6245 10.9648 12.5037 10.548 12.5037 10.0871C12.5037 9.6262 12.6241 9.20985 12.8346 8.94416C12.9723 8.76699 13.1463 8.66931 13.3244 8.66931C13.4821 8.66931 13.6329 8.7425 13.7606 8.88085L13.7823 8.90449H15.6756L15.6621 8.81955C15.3582 6.91565 14.397 5.58594 13.3244 5.58594C11.9803 5.58594 10.8867 7.60514 10.8867 10.0871C10.8867 12.5682 11.9803 14.5867 13.3244 14.5867C14.397 14.5867 15.3582 13.2576 15.6621 11.3547L15.6756 11.2697H13.7823L13.7606 11.2934Z" fill="#236CAE"/>
<path d="M17.4879 2.64062H6.14935C5.94418 2.64062 5.74981 2.72112 5.60208 2.86721C5.45563 3.01187 5.375 3.20637 5.375 3.41505C5.375 3.84201 5.7224 4.18933 6.14935 4.18933H16.2325C16.3538 4.18933 16.4525 4.28802 16.4525 4.40933V9.09383C16.4525 9.21514 16.3538 9.31382 16.2325 9.31382H13.0871L13.0672 9.35579C12.9738 9.55344 12.9223 9.81353 12.9223 10.0882C12.9223 10.3607 12.9737 10.6206 13.067 10.8203L13.0868 10.8625H17.4879C17.7709 10.8625 18.0012 10.6322 18.0012 10.3492V3.15396C18.0012 2.87094 17.7709 2.64062 17.4879 2.64062Z" fill="#236CAE"/>
</svg>
